<svg width="189" height="53" viewBox="0 0 189 53" fill="none" xmlns="http://www.w3.org/2000/svg">
<rect x="188" y="1" width="51" height="187" rx="9" transform="rotate(90 188 1)" stroke="#A8A6A6" stroke-width="2"/>
<path d="M84.948 18.096V21.616H81.876V38H77.652C76.8627 36.848 75.9027 35.8347 74.772 34.96C73.6627 34.0853 72.4253 33.36 71.06 32.784C69.6947 32.1867 68.212 31.76 66.612 31.504L65.012 27.728C66.9747 26.64 69.1187 25.5947 71.444 24.592C73.7907 23.568 76.0947 22.7573 78.356 22.16L77.78 23.216V21.616H64.18V18.096H84.948ZM77.652 25.232L78.324 25.936C76.916 26.3413 75.5827 26.8107 74.324 27.344C73.0867 27.856 71.7747 28.4427 70.388 29.104C71.2627 29.2747 72.1693 29.5733 73.108 30C74.068 30.4053 74.996 30.9387 75.892 31.6C76.8093 32.2613 77.6307 33.0293 78.356 33.904L77.748 34.256C77.7267 33.7653 77.7053 33.2747 77.684 32.784C77.6627 32.2933 77.652 31.8133 77.652 31.344V25.232ZM104.273 17.872C105.254 17.872 106.097 18.0213 106.801 18.32C107.526 18.5973 108.177 19.056 108.753 19.696C109.35 20.3147 109.937 21.1253 110.513 22.128L108.433 22.224L111.601 18.48L114.801 18C115.633 18.64 116.294 19.3653 116.785 20.176C117.297 20.9653 117.553 21.9573 117.553 23.152C117.553 24.2827 117.254 25.3067 116.657 26.224C116.081 27.1413 115.281 27.952 114.257 28.656C113.254 29.3387 112.113 29.9147 110.833 30.384L109.393 26.928C110.524 26.5013 111.462 26.0213 112.209 25.488C112.977 24.9547 113.361 24.2293 113.361 23.312C113.361 22.7573 113.212 22.288 112.913 21.904C112.614 21.4987 112.188 21.1253 111.633 20.784L113.905 20.176L110.961 24.08L107.825 24.24C107.484 23.2373 106.993 22.4693 106.353 21.936C105.734 21.3813 104.934 21.104 103.953 21.104C103.292 21.104 102.705 21.1893 102.193 21.36C101.681 21.5093 101.18 21.7547 100.689 22.096C100.22 22.416 99.6863 22.832 99.089 23.344L99.153 22.992C99.4943 22.6933 100.006 22.4373 100.689 22.224C101.393 21.9893 102.118 21.872 102.865 21.872C103.633 21.872 104.305 22.0213 104.881 22.32C105.457 22.6187 105.905 23.0347 106.225 23.568C106.566 24.1013 106.737 24.72 106.737 25.424C106.737 26.5973 106.364 27.6213 105.617 28.496C104.892 29.3493 103.772 30.2133 102.257 31.088L99.921 27.696C101.158 27.2053 101.948 26.768 102.289 26.384C102.652 26 102.833 25.6373 102.833 25.296C102.833 25.0613 102.737 24.8693 102.545 24.72C102.353 24.5493 102.076 24.464 101.713 24.464C101.308 24.464 100.892 24.528 100.465 24.656C100.06 24.784 99.6117 24.9867 99.121 25.264L96.049 22.512C96.9023 21.552 97.745 20.7307 98.577 20.048C99.409 19.344 100.284 18.8107 101.201 18.448C102.14 18.064 103.164 17.872 104.273 17.872ZM108.273 37.424C105.841 37.424 103.59 37.0507 101.521 36.304C99.4517 35.5573 97.5743 34.3307 95.889 32.624C94.225 30.896 92.7637 28.5813 91.505 25.68L95.313 24.176C96.337 26.5227 97.4783 28.4107 98.737 29.84C100.017 31.248 101.436 32.2613 102.993 32.88C104.55 33.4987 106.289 33.808 108.209 33.808C109.724 33.808 110.993 33.552 112.017 33.04C113.041 32.528 113.553 31.8133 113.553 30.896C113.553 30.1707 113.297 29.584 112.785 29.136C112.273 28.6667 111.665 28.3147 110.961 28.08L114.769 26.416C115.665 26.992 116.401 27.696 116.977 28.528C117.574 29.3387 117.873 30.2773 117.873 31.344C117.873 32.56 117.489 33.6267 116.721 34.544C115.953 35.44 114.854 36.144 113.425 36.656C111.996 37.168 110.278 37.424 108.273 37.424ZM149.832 18.096V21.616H138.696V25.744C138.696 26.064 138.749 26.3413 138.856 26.576C138.963 26.7893 139.187 26.896 139.528 26.896C139.805 26.896 140.104 26.8 140.424 26.608C140.744 26.3947 141.064 26.1067 141.384 25.744C141.725 25.36 142.067 24.9333 142.408 24.464L146.152 23.76C146.877 24.8053 147.421 25.8613 147.784 26.928C148.147 27.9733 148.328 29.104 148.328 30.32C148.328 31.664 147.997 32.8693 147.336 33.936C146.696 34.9813 145.725 35.8133 144.424 36.432C143.144 37.0507 141.555 37.36 139.656 37.36C138.248 37.36 136.893 37.1573 135.592 36.752C134.291 36.3467 133.064 35.664 131.912 34.704C130.781 33.7227 129.736 32.3893 128.776 30.704C127.837 28.9973 127.016 26.864 126.312 24.304L130.312 23.184C131.016 25.7227 131.816 27.7707 132.712 29.328C133.608 30.864 134.6 31.984 135.688 32.688C136.797 33.3707 138.003 33.712 139.304 33.712C140.84 33.712 142.024 33.3707 142.856 32.688C143.709 31.984 144.136 31.0133 144.136 29.776C144.136 28.944 143.987 28.2613 143.688 27.728C143.389 27.1947 143.048 26.6933 142.664 26.224L145.928 25.968C145.16 26.992 144.381 27.8347 143.592 28.496C142.803 29.1573 142.003 29.648 141.192 29.968C140.403 30.288 139.581 30.448 138.728 30.448C138.045 30.448 137.437 30.352 136.904 30.16C136.371 29.9467 135.923 29.6373 135.56 29.232C135.197 28.8267 134.92 28.304 134.728 27.664C134.557 27.024 134.472 26.2027 134.472 25.2V21.616H125.48V18.096H149.832ZM137.672 43.664C137.011 43.664 136.456 43.4293 136.008 42.96C135.56 42.512 135.336 41.9467 135.336 41.264C135.336 40.5813 135.56 40.0053 136.008 39.536C136.456 39.088 137.011 38.864 137.672 38.864C138.355 38.864 138.909 39.088 139.336 39.536C139.784 40.0053 140.008 40.5813 140.008 41.264C140.008 41.9467 139.784 42.512 139.336 42.96C138.909 43.4293 138.355 43.664 137.672 43.664ZM165.967 18.096V21.616H162.895V38H158.671V23.792C158.415 23.1307 158.052 22.608 157.583 22.224C157.113 21.8187 156.505 21.616 155.759 21.616H155.599V18.096H156.239C156.729 18.096 157.188 18.224 157.615 18.48C158.041 18.736 158.436 19.28 158.799 20.112C158.777 20.0053 158.745 19.76 158.703 19.376C158.681 18.992 158.671 18.6613 158.671 18.384V15.984H162.127L162.863 18.096H165.967Z" fill="#A5A5A5"/>
<path d="M42.5 24.5C42.5 26.7091 40.7091 28.5 38.5 28.5C36.2909 28.5 34.5 26.7091 34.5 24.5C34.5 22.2909 36.2909 20.5 38.5 20.5C40.7091 20.5 42.5 22.2909 42.5 24.5Z" stroke="#757575" stroke-width="2" stroke-linecap="round" stroke-linejoin="round"/>
<path d="M48.5 24.5C48.5 34.0228 38.5 39.5 38.5 39.5C38.5 39.5 28.5 34.0228 28.5 24.5C28.5 18.9772 32.9772 14.5 38.5 14.5C44.0228 14.5 48.5 18.9772 48.5 24.5Z" stroke="#757575" stroke-width="2" stroke-linecap="round" stroke-linejoin="round"/>
</svg>
