<svg width="992" height="79" viewBox="0 0 992 79" fill="none" xmlns="http://www.w3.org/2000/svg">
<mask id="path-1-inside-1_74_56190" fill="white">
<path d="M0 0H992V79H0V0Z"/>
</mask>
<path d="M992 78H0V80H992V78Z" fill="url(#paint0_linear_74_56190)" mask="url(#path-1-inside-1_74_56190)"/>
<path d="M66.1016 33.584V35.572H63.1616V51H61.0056V39.912L61.6216 41.704C60.8563 40.584 60.1563 39.632 59.5216 38.848C58.887 38.0453 58.2803 37.392 57.7016 36.888C57.1416 36.384 56.5723 36.02 55.9936 35.796C55.415 35.5533 54.7896 35.432 54.1176 35.432C53.371 35.432 52.6896 35.572 52.0736 35.852C51.4763 36.132 50.9256 36.5053 50.4216 36.972C49.9176 37.4387 49.451 37.9427 49.0216 38.484L48.7976 38.54C49.0963 38.3533 49.3856 38.2133 49.6656 38.12C49.9643 38.0267 50.291 37.98 50.6456 37.98C51.747 37.98 52.5403 38.2787 53.0256 38.876C53.5296 39.4547 53.7816 40.1733 53.7816 41.032C53.7816 41.2373 53.7723 41.4333 53.7536 41.62C53.735 41.8067 53.707 41.9467 53.6696 42.04L53.1936 41.872C53.4176 41.6293 53.6323 41.396 53.8376 41.172C54.043 40.948 54.2576 40.724 54.4816 40.5C54.7243 40.276 54.967 40.0427 55.2096 39.8L58.6816 36.552L60.0536 38.036L52.1016 45.54L50.4496 44L52.7456 41.816L51.7376 43.02L50.8976 43.664C51.1776 43.3467 51.411 43.0107 51.5976 42.656C51.803 42.2827 51.9056 41.8627 51.9056 41.396C51.9056 40.9293 51.7656 40.556 51.4856 40.276C51.2056 39.996 50.795 39.856 50.2536 39.856C49.955 39.856 49.6656 39.8933 49.3856 39.968C49.1056 40.0427 48.8163 40.1733 48.5176 40.36L46.3896 38.344C47.1363 37.3547 47.9016 36.496 48.6856 35.768C49.4696 35.0213 50.291 34.4427 51.1496 34.032C52.0083 33.6027 52.9323 33.388 53.9216 33.388C54.967 33.388 55.9003 33.584 56.7216 33.976C57.5616 34.368 58.3736 34.956 59.1576 35.74C59.9603 36.5053 60.791 37.476 61.6496 38.652L61.1456 38.512C61.0896 38.064 61.0523 37.5787 61.0336 37.056C61.015 36.5333 61.0056 35.9733 61.0056 35.376V31.736H62.4896L63.1336 33.584H66.1016ZM63.1616 52.204H61.0616C60.875 51.644 60.6323 51.1867 60.3336 50.832C60.0536 50.4773 59.7176 50.216 59.3256 50.048C58.9336 49.88 58.4856 49.796 57.9816 49.796C57.011 49.796 56.0683 49.88 55.1536 50.048C54.2576 50.1973 53.2776 50.272 52.2136 50.272C51.5416 50.272 50.8416 50.2067 50.1136 50.076C49.3856 49.9453 48.7043 49.7027 48.0696 49.348C47.435 48.9933 46.9216 48.4707 46.5296 47.78C46.1376 47.0893 45.9416 46.184 45.9416 45.064C45.9416 44.7653 45.9603 44.4293 45.9976 44.056C46.035 43.6827 46.1003 43.3187 46.1936 42.964L48.3496 43.244C48.275 43.468 48.219 43.748 48.1816 44.084C48.1443 44.4013 48.1256 44.7373 48.1256 45.092C48.1256 45.8573 48.2843 46.4733 48.6016 46.94C48.9376 47.4067 49.4136 47.7427 50.0296 47.948C50.6456 48.1533 51.3736 48.256 52.2136 48.256C53.091 48.256 53.959 48.1813 54.8176 48.032C55.6763 47.864 56.5723 47.78 57.5056 47.78C58.215 47.78 58.8683 47.9013 59.4656 48.144C60.063 48.368 60.5763 48.7507 61.0056 49.292V46.772H63.1616V52.204ZM73.5464 35.572H70.6064V51H68.4504V35.572H65.5384V33.584H68.4504C68.3757 32.3707 68.0584 31.3533 67.4984 30.532C66.957 29.7107 66.2477 29.0667 65.3704 28.6C64.4744 28.1147 63.4664 27.7693 62.3464 27.564C61.2077 27.3587 60.013 27.256 58.7624 27.256C57.661 27.256 56.7184 27.3213 55.9344 27.452C55.1317 27.564 54.5157 27.732 54.0864 27.956C53.657 28.18 53.4424 28.4693 53.4424 28.824C53.4424 29.1787 53.6664 29.4027 54.1144 29.496C54.5624 29.5893 55.057 29.636 55.5984 29.636H58.2864C59.2757 29.636 60.0597 29.72 60.6384 29.888C61.217 30.056 61.6837 30.3267 62.0384 30.7C62.393 31.0547 62.645 31.4747 62.7944 31.96C62.9437 32.4453 63.0184 33.052 63.0184 33.78H61.1424C61.1237 33.332 61.0677 32.968 60.9744 32.688C60.881 32.3893 60.7317 32.1653 60.5264 32.016C60.3397 31.8667 60.1157 31.764 59.8544 31.708C59.5744 31.652 59.1917 31.624 58.7064 31.624H55.9344C55.169 31.624 54.497 31.5773 53.9184 31.484C53.3397 31.372 52.8637 31.2227 52.4904 31.036C52.0237 30.7747 51.697 30.4573 51.5104 30.084C51.3237 29.7107 51.2304 29.3187 51.2304 28.908C51.2304 27.8253 51.837 26.9573 53.0504 26.304C54.2637 25.6507 56.1117 25.324 58.5944 25.324C62.3837 25.324 65.2957 25.996 67.3304 27.34C69.3837 28.6653 70.5037 30.7467 70.6904 33.584H73.5464V35.572ZM83.2239 33.584V35.572H82.6639C82.0852 35.7027 81.4599 35.992 80.7879 36.44C80.1159 36.8693 79.4812 37.4387 78.8839 38.148C78.2865 38.8387 77.7919 39.6507 77.3999 40.584C77.0265 41.5173 76.8399 42.544 76.8399 43.664C76.8399 45.008 77.0359 46.0813 77.4279 46.884C77.8385 47.668 78.3425 48.228 78.9399 48.564C79.5372 48.9 80.1345 49.068 80.7319 49.068C81.1985 49.068 81.5905 49.0213 81.9079 48.928C82.2252 48.8347 82.5892 48.6667 82.9999 48.424L83.9799 50.132C83.4945 50.5053 82.9625 50.7667 82.3839 50.916C81.8052 51.0653 81.2265 51.14 80.6479 51.14C79.4719 51.14 78.4265 50.832 77.5119 50.216C76.6159 49.6 75.9065 48.7413 75.3839 47.64C74.8799 46.52 74.6279 45.2133 74.6279 43.72C74.6279 42.1893 74.9172 40.808 75.4959 39.576C76.0745 38.3253 76.8492 37.2707 77.8199 36.412C78.8092 35.5533 79.9012 34.928 81.0959 34.536L79.3039 35.46C78.9679 35.4973 78.6039 35.5253 78.2119 35.544C77.8199 35.5627 77.3812 35.572 76.8959 35.572H72.9759V33.584H83.2239ZM103.264 33.584V35.572H100.324V51H98.1675V39.912L98.7835 41.704C98.0182 40.584 97.3182 39.632 96.6835 38.848C96.0489 38.0453 95.4422 37.392 94.8635 36.888C94.3035 36.384 93.7342 36.02 93.1555 35.796C92.5769 35.5533 91.9515 35.432 91.2795 35.432C90.5329 35.432 89.8515 35.572 89.2355 35.852C88.6382 36.132 88.0875 36.5053 87.5835 36.972C87.0795 37.4387 86.6129 37.9427 86.1835 38.484L85.9595 38.54C86.2582 38.3533 86.5475 38.2133 86.8275 38.12C87.1262 38.0267 87.4529 37.98 87.8075 37.98C88.8902 37.98 89.6835 38.2787 90.1875 38.876C90.6915 39.4547 90.9435 40.1733 90.9435 41.032C90.9435 41.2373 90.9342 41.4333 90.9155 41.62C90.8969 41.8067 90.8689 41.9467 90.8315 42.04L90.3555 41.872C90.5795 41.6293 90.7942 41.396 90.9995 41.172C91.2049 40.948 91.4195 40.724 91.6435 40.5C91.8862 40.276 92.1289 40.0427 92.3715 39.8L95.8435 36.552L97.2155 38.036L89.2635 45.54L87.6115 44L89.9075 41.816L88.8995 43.02L88.0595 43.664C88.3395 43.3467 88.5729 43.0107 88.7595 42.656C88.9649 42.2827 89.0675 41.8627 89.0675 41.396C89.0675 40.9293 88.9275 40.556 88.6475 40.276C88.3675 39.996 87.9569 39.856 87.4155 39.856C87.1169 39.856 86.8275 39.8933 86.5475 39.968C86.2675 40.0427 85.9782 40.1733 85.6795 40.36L83.5515 38.344C84.2982 37.3547 85.0635 36.496 85.8475 35.768C86.6315 35.0213 87.4529 34.4427 88.3115 34.032C89.1702 33.6027 90.0942 33.388 91.0835 33.388C92.1289 33.388 93.0715 33.584 93.9115 33.976C94.7515 34.368 95.5635 34.956 96.3475 35.74C97.1315 36.5053 97.9529 37.476 98.8115 38.652L98.3075 38.512C98.2515 38.064 98.2142 37.5787 98.1955 37.056C98.1769 36.5333 98.1675 35.9733 98.1675 35.376V31.736H99.6515L100.296 33.584H103.264ZM112.947 33.584V35.572H112.387C111.808 35.7027 111.183 35.992 110.511 36.44C109.839 36.8693 109.204 37.4387 108.607 38.148C108.009 38.8387 107.515 39.6507 107.123 40.584C106.749 41.5173 106.563 42.544 106.563 43.664C106.563 45.008 106.759 46.0813 107.151 46.884C107.561 47.668 108.065 48.228 108.663 48.564C109.26 48.9 109.857 49.068 110.455 49.068C110.921 49.068 111.313 49.0213 111.631 48.928C111.948 48.8347 112.312 48.6667 112.723 48.424L113.703 50.132C113.217 50.5053 112.685 50.7667 112.107 50.916C111.528 51.0653 110.949 51.14 110.371 51.14C109.195 51.14 108.149 50.832 107.235 50.216C106.339 49.6 105.629 48.7413 105.107 47.64C104.603 46.52 104.351 45.2133 104.351 43.72C104.351 42.1893 104.64 40.808 105.219 39.576C105.797 38.3253 106.572 37.2707 107.543 36.412C108.532 35.5533 109.624 34.928 110.819 34.536L109.027 35.46C108.691 35.4973 108.327 35.5253 107.935 35.544C107.543 35.5627 107.104 35.572 106.619 35.572H102.699V33.584H112.947ZM130.354 33.584V35.572H127.414V51H125.258V47.22L125.762 48.704C125.109 47.7147 124.446 46.8 123.774 45.96C123.121 45.12 122.421 44.4387 121.674 43.916C120.946 43.3933 120.144 43.132 119.266 43.132C118.576 43.132 117.988 43.3093 117.502 43.664C117.036 44.0187 116.802 44.5507 116.802 45.26C116.802 45.876 117.026 46.3987 117.474 46.828C117.922 47.2387 118.585 47.5933 119.462 47.892L118.762 50.048C117.754 49.6933 116.933 49.264 116.298 48.76C115.682 48.256 115.225 47.7053 114.926 47.108C114.646 46.492 114.506 45.848 114.506 45.176C114.506 44.28 114.721 43.5333 115.15 42.936C115.598 42.3387 116.158 41.8907 116.83 41.592C117.521 41.2747 118.212 41.116 118.902 41.116C120.022 41.116 121.002 41.3213 121.842 41.732C122.701 42.1427 123.448 42.6933 124.082 43.384C124.736 44.0747 125.324 44.8493 125.846 45.708L125.37 45.792C125.333 45.3627 125.305 44.9333 125.286 44.504C125.268 44.056 125.258 43.5987 125.258 43.132V35.572H112.378V33.584H130.354ZM121.03 41.956C121.03 42.068 121.021 42.18 121.002 42.292C121.002 42.404 120.993 42.516 120.974 42.628L118.846 41.984C118.809 40.9013 118.622 40.0333 118.286 39.38C117.95 38.7267 117.418 38.232 116.69 37.896C115.962 37.5413 114.973 37.2987 113.722 37.168L114.086 35.152L115.374 35.516C116.27 35.5907 117.064 35.7773 117.754 36.076C118.464 36.356 119.061 36.7573 119.546 37.28C120.032 37.8027 120.396 38.456 120.638 39.24C120.9 40.0053 121.03 40.9107 121.03 41.956ZM135.452 37.812C136.292 37.812 137.048 37.952 137.72 38.232C138.392 38.4933 139.018 38.8667 139.596 39.352C140.175 39.8187 140.735 40.36 141.276 40.976L141.248 43.496C140.464 42.4693 139.596 41.6013 138.644 40.892C137.692 40.1827 136.768 39.828 135.872 39.828C135.256 39.828 134.734 39.9867 134.304 40.304C133.875 40.6213 133.66 41.0973 133.66 41.732C133.66 42.236 133.828 42.6653 134.164 43.02C134.519 43.3747 135.042 43.7013 135.732 44L134.696 45.988C133.651 45.54 132.83 44.9427 132.232 44.196C131.654 43.4493 131.364 42.6 131.364 41.648C131.364 40.7707 131.57 40.052 131.98 39.492C132.391 38.932 132.904 38.512 133.52 38.232C134.155 37.952 134.799 37.812 135.452 37.812ZM154.1 33.584V35.572H142.732V45.26C142.732 46.0813 142.779 46.66 142.872 46.996C142.966 47.332 143.078 47.5747 143.208 47.724C143.544 48.116 144.058 48.312 144.748 48.312C145.476 48.312 146.167 48.1347 146.82 47.78C147.474 47.4253 148.043 46.9867 148.528 46.464C149.07 45.8853 149.48 45.2693 149.76 44.616C150.059 43.9627 150.208 43.3 150.208 42.628C150.208 42.0307 150.059 41.5827 149.76 41.284C149.462 40.9667 148.967 40.808 148.276 40.808C148.052 40.808 147.81 40.8267 147.548 40.864C147.287 40.9013 147.035 40.948 146.792 41.004L146.484 39.016C146.839 38.9227 147.203 38.848 147.576 38.792C147.968 38.736 148.379 38.708 148.808 38.708C149.499 38.708 150.115 38.8387 150.656 39.1C151.198 39.3613 151.618 39.772 151.916 40.332C152.234 40.892 152.392 41.62 152.392 42.516C152.392 43.6173 152.122 44.6907 151.58 45.736C151.039 46.7627 150.358 47.6307 149.536 48.34C148.846 48.9373 148.09 49.4227 147.268 49.796C146.466 50.1507 145.579 50.328 144.608 50.328C143.918 50.328 143.32 50.2253 142.816 50.02C142.331 49.8147 141.93 49.5533 141.612 49.236C141.314 48.8813 141.062 48.452 140.856 47.948C140.67 47.444 140.576 46.6787 140.576 45.652V41.564L140.688 40.836C140.651 40.4627 140.623 40.0987 140.604 39.744C140.586 39.3707 140.576 38.9787 140.576 38.568V35.572H129.796V33.584H154.1ZM148.976 33.584C148.958 32.8187 148.771 32.268 148.416 31.932C148.08 31.596 147.52 31.428 146.736 31.428H144.104C142.891 31.428 141.948 31.344 141.276 31.176C140.623 31.008 140.063 30.7467 139.596 30.392C139.092 30.0187 138.71 29.5427 138.448 28.964C138.206 28.3667 138.084 27.6947 138.084 26.948C138.084 26.7053 138.094 26.472 138.112 26.248C138.15 26.0053 138.187 25.744 138.224 25.464L140.296 25.604C140.259 25.8093 140.231 25.996 140.212 26.164C140.194 26.3133 140.184 26.4813 140.184 26.668C140.184 27.0787 140.222 27.4427 140.296 27.76C140.39 28.0773 140.53 28.3387 140.716 28.544C140.978 28.8427 141.351 29.0667 141.836 29.216C142.34 29.3467 143.05 29.412 143.964 29.412H146.148C147.138 29.412 147.922 29.4867 148.5 29.636C149.079 29.7853 149.574 30.056 149.984 30.448C150.302 30.7467 150.544 31.1573 150.712 31.68C150.88 32.184 150.974 32.8187 150.992 33.584H148.976ZM171.189 33.584V35.572H170.629C170.05 35.7027 169.425 35.992 168.753 36.44C168.081 36.8693 167.446 37.4387 166.849 38.148C166.251 38.8387 165.757 39.6507 165.365 40.584C164.991 41.5173 164.805 42.544 164.805 43.664C164.805 45.008 165.001 46.0813 165.393 46.884C165.803 47.668 166.307 48.228 166.905 48.564C167.502 48.9 168.099 49.068 168.697 49.068C169.163 49.068 169.555 49.0213 169.873 48.928C170.19 48.8347 170.554 48.6667 170.965 48.424L171.945 50.132C171.459 50.5053 170.927 50.7667 170.349 50.916C169.77 51.0653 169.182 51.14 168.585 51.14C167.409 51.14 166.373 50.832 165.477 50.216C164.581 49.6 163.871 48.7413 163.349 47.64C162.845 46.52 162.593 45.2133 162.593 43.72C162.593 42.2827 162.817 41.004 163.265 39.884C163.731 38.7453 164.329 37.756 165.057 36.916C165.803 36.076 166.606 35.3853 167.465 34.844C168.323 34.284 169.154 33.864 169.957 33.584H171.189ZM188.092 33.584V35.572H185.152V51H182.996V44.196L183.444 45.764C182.828 44.9053 182.156 44.1307 181.428 43.44C180.7 42.7493 179.954 42.1987 179.188 41.788C178.423 41.3773 177.676 41.172 176.948 41.172C176.258 41.172 175.67 41.3587 175.184 41.732C174.718 42.0867 174.484 42.6187 174.484 43.328C174.484 43.888 174.68 44.3733 175.072 44.784C175.464 45.176 176.071 45.5307 176.892 45.848L175.828 47.836C174.69 47.3693 173.794 46.744 173.14 45.96C172.506 45.1573 172.188 44.252 172.188 43.244C172.188 42.3293 172.403 41.5733 172.832 40.976C173.28 40.36 173.84 39.9027 174.512 39.604C175.203 39.3053 175.903 39.156 176.612 39.156C177.583 39.156 178.47 39.324 179.272 39.66C180.075 39.996 180.822 40.4533 181.512 41.032C182.222 41.6107 182.894 42.2827 183.528 43.048L183.136 43.16C183.08 42.7307 183.043 42.3107 183.024 41.9C183.006 41.4707 182.996 41.0413 182.996 40.612V35.572H170.62V33.584H188.092ZM197.823 33.584C197.804 32.8187 197.617 32.268 197.263 31.932C196.927 31.596 196.367 31.428 195.583 31.428H193.567C192.335 31.428 191.383 31.344 190.711 31.176C190.057 31.008 189.497 30.7467 189.031 30.392C188.527 30.0187 188.144 29.5427 187.883 28.964C187.64 28.3667 187.519 27.6947 187.519 26.948C187.519 26.7053 187.537 26.4627 187.575 26.22C187.593 25.9773 187.621 25.7253 187.659 25.464L189.731 25.604C189.693 25.828 189.665 26.024 189.647 26.192C189.628 26.36 189.619 26.5187 189.619 26.668C189.619 27.0787 189.656 27.4427 189.731 27.76C189.824 28.0773 189.964 28.3387 190.151 28.544C190.412 28.8427 190.785 29.0667 191.271 29.216C191.775 29.3467 192.484 29.412 193.399 29.412H194.995C195.984 29.412 196.768 29.4867 197.347 29.636C197.925 29.7853 198.42 30.056 198.831 30.448C199.148 30.7467 199.391 31.1573 199.559 31.68C199.727 32.184 199.82 32.8187 199.839 33.584H197.823ZM194.575 37C196.049 37 197.235 37.252 198.131 37.756C199.045 38.2413 199.717 38.8667 200.147 39.632C200.576 40.3787 200.791 41.1347 200.791 41.9C200.791 43.4307 200.249 44.644 199.167 45.54C198.103 46.436 196.516 46.94 194.407 47.052L194.687 46.744C195.527 46.9867 196.413 47.332 197.347 47.78C198.28 48.228 199.223 48.7507 200.175 49.348C201.127 49.9267 202.041 50.5707 202.919 51.28L201.631 52.764C200.473 51.9053 199.409 51.168 198.439 50.552C197.487 49.9173 196.544 49.3667 195.611 48.9C194.677 48.4333 193.688 48.0227 192.643 47.668C191.597 47.3133 190.412 46.9867 189.087 46.688L189.507 44.756C190.16 44.9427 190.785 45.0827 191.383 45.176C191.999 45.2507 192.736 45.288 193.595 45.288C194.92 45.288 195.937 45.1293 196.647 44.812C197.375 44.4947 197.879 44.084 198.159 43.58C198.439 43.076 198.579 42.5627 198.579 42.04C198.579 41.0507 198.215 40.2947 197.487 39.772C196.759 39.2307 195.835 38.96 194.715 38.96C194.043 38.96 193.501 39.0253 193.091 39.156C192.68 39.2867 192.381 39.4827 192.195 39.744C192.027 39.9867 191.943 40.2853 191.943 40.64C191.943 40.7893 191.961 40.948 191.999 41.116C192.036 41.2653 192.073 41.4053 192.111 41.536L190.067 41.956C189.973 41.676 189.899 41.3867 189.843 41.088C189.787 40.7707 189.759 40.4907 189.759 40.248C189.759 39.5573 189.964 38.9693 190.375 38.484C190.785 37.9987 191.345 37.6347 192.055 37.392C192.783 37.1307 193.623 37 194.575 37ZM192.699 37.98C192.605 37.3827 192.325 36.86 191.859 36.412C191.392 35.9453 190.72 35.6187 189.843 35.432L190.515 34.172L191.803 34.508C192.848 34.9187 193.604 35.3853 194.071 35.908C194.556 36.4307 194.836 37.0933 194.911 37.896L192.699 37.98ZM202.919 33.584V35.572H187.519V33.584H202.919ZM207.896 45.1435V44.9545C207.91 43.7216 208.032 42.7405 208.264 42.0114C208.503 41.2822 208.841 40.6922 209.279 40.2415C209.716 39.7907 210.243 39.3797 210.86 39.0085C211.257 38.7566 211.615 38.4749 211.933 38.1634C212.252 37.8518 212.503 37.4938 212.689 37.0895C212.875 36.6851 212.968 36.2377 212.968 35.7472C212.968 35.1572 212.828 34.6468 212.55 34.2159C212.271 33.785 211.9 33.4536 211.436 33.2216C210.979 32.983 210.468 32.8636 209.905 32.8636C209.395 32.8636 208.907 32.9697 208.443 33.1818C207.979 33.3939 207.595 33.7254 207.29 34.1761C206.985 34.6203 206.809 35.1937 206.763 35.8963H203.74C203.787 34.7031 204.088 33.6955 204.645 32.8736C205.202 32.045 205.938 31.4186 206.852 30.9943C207.774 30.5701 208.791 30.358 209.905 30.358C211.125 30.358 212.192 30.5866 213.107 31.044C214.021 31.4948 214.731 32.1278 215.235 32.9432C215.745 33.7519 216 34.6965 216 35.777C216 36.5194 215.884 37.1889 215.652 37.7855C215.42 38.3755 215.089 38.9025 214.658 39.3665C214.234 39.8305 213.723 40.2415 213.127 40.5994C212.563 40.9508 212.106 41.3153 211.754 41.6932C211.41 42.071 211.158 42.5185 210.999 43.0355C210.84 43.5526 210.753 44.1922 210.74 44.9545V45.1435H207.896ZM209.398 51.1889C208.854 51.1889 208.387 50.9967 207.996 50.6122C207.605 50.2211 207.409 49.7505 207.409 49.2003C207.409 48.6567 207.605 48.1927 207.996 47.8082C208.387 47.4171 208.854 47.2216 209.398 47.2216C209.935 47.2216 210.399 47.4171 210.79 47.8082C211.188 48.1927 211.387 48.6567 211.387 49.2003C211.387 49.5649 211.294 49.8996 211.108 50.2045C210.929 50.5028 210.691 50.7415 210.392 50.9205C210.094 51.0994 209.762 51.1889 209.398 51.1889ZM244.144 33.584V35.572H241.204V51H239.048V41.116L239.692 42.88C239.113 42.1147 238.609 41.5267 238.18 41.116C237.769 40.7053 237.368 40.5 236.976 40.5C236.714 40.5 236.472 40.5747 236.248 40.724C236.024 40.8733 235.772 41.1627 235.492 41.592C235.212 42.0027 234.838 42.6373 234.372 43.496C233.868 44.4107 233.41 45.1667 233 45.764C232.589 46.3427 232.15 46.772 231.684 47.052C231.236 47.3133 230.685 47.444 230.032 47.444C229.528 47.444 229.042 47.3413 228.576 47.136C228.128 46.9307 227.67 46.5947 227.204 46.128C226.756 45.6427 226.27 44.9893 225.748 44.168L227.456 43.132C227.96 44.028 228.38 44.616 228.716 44.896C229.052 45.176 229.416 45.316 229.808 45.316C230.125 45.316 230.424 45.2227 230.704 45.036C231.002 44.8307 231.32 44.4853 231.656 44C232.01 43.5147 232.412 42.852 232.86 42.012L233.504 41.088C233.989 40.08 234.456 39.3893 234.904 39.016C235.352 38.624 235.846 38.428 236.388 38.428C237.004 38.428 237.554 38.6053 238.04 38.96C238.544 39.296 239.122 39.8187 239.776 40.528L239.216 40.556C239.141 40.1267 239.094 39.7253 239.076 39.352C239.057 38.96 239.048 38.568 239.048 38.176V35.572H224.488V33.584H244.144ZM232.356 43.412C232.169 42.1427 231.973 41.1347 231.768 40.388C231.581 39.6413 231.245 39.0627 230.76 38.652C230.293 38.2227 229.658 37.9053 228.856 37.7C228.053 37.476 227.045 37.2893 225.832 37.14L226.252 35.012L227.764 35.572C228.828 35.74 229.714 35.9547 230.424 36.216C231.133 36.4773 231.702 36.8227 232.132 37.252C232.58 37.6627 232.916 38.176 233.14 38.792C233.364 39.408 233.513 40.1547 233.588 41.032L232.356 43.412ZM261.55 33.584V35.572H258.61V51H256.454V47.22L256.958 48.704C256.304 47.7147 255.642 46.8 254.97 45.96C254.316 45.12 253.616 44.4387 252.87 43.916C252.142 43.3933 251.339 43.132 250.462 43.132C249.771 43.132 249.183 43.3093 248.698 43.664C248.231 44.0187 247.998 44.5507 247.998 45.26C247.998 45.876 248.222 46.3987 248.67 46.828C249.118 47.2387 249.78 47.5933 250.658 47.892L249.958 50.048C248.95 49.6933 248.128 49.264 247.494 48.76C246.878 48.256 246.42 47.7053 246.122 47.108C245.842 46.492 245.702 45.848 245.702 45.176C245.702 44.28 245.916 43.5333 246.346 42.936C246.794 42.3387 247.354 41.8907 248.026 41.592C248.716 41.2747 249.407 41.116 250.098 41.116C251.218 41.116 252.198 41.3213 253.038 41.732C253.896 42.1427 254.643 42.6933 255.278 43.384C255.931 44.0747 256.519 44.8493 257.042 45.708L256.566 45.792C256.528 45.3627 256.5 44.9333 256.482 44.504C256.463 44.056 256.454 43.5987 256.454 43.132V35.572H243.574V33.584H261.55ZM252.226 41.956C252.226 42.068 252.216 42.18 252.198 42.292C252.198 42.404 252.188 42.516 252.17 42.628L250.042 41.984C250.004 40.9013 249.818 40.0333 249.482 39.38C249.146 38.7267 248.614 38.232 247.886 37.896C247.158 37.5413 246.168 37.2987 244.918 37.168L245.282 35.152L246.57 35.516C247.466 35.5907 248.259 35.7773 248.95 36.076C249.659 36.356 250.256 36.7573 250.742 37.28C251.227 37.8027 251.591 38.456 251.834 39.24C252.095 40.0053 252.226 40.9107 252.226 41.956ZM280.647 33.584V35.572H277.707V51H275.551V41.116L276.195 42.88C275.617 42.1147 275.113 41.5267 274.683 41.116C274.273 40.7053 273.871 40.5 273.479 40.5C273.218 40.5 272.975 40.5747 272.751 40.724C272.527 40.8733 272.275 41.1627 271.995 41.592C271.715 42.0027 271.342 42.6373 270.875 43.496C270.371 44.4107 269.914 45.1667 269.503 45.764C269.093 46.3427 268.654 46.772 268.187 47.052C267.739 47.3133 267.189 47.444 266.535 47.444C266.031 47.444 265.546 47.3413 265.079 47.136C264.631 46.9307 264.174 46.5947 263.707 46.128C263.259 45.6427 262.774 44.9893 262.251 44.168L263.959 43.132C264.463 44.028 264.883 44.616 265.219 44.896C265.555 45.176 265.919 45.316 266.311 45.316C266.629 45.316 266.927 45.2227 267.207 45.036C267.506 44.8307 267.823 44.4853 268.159 44C268.514 43.5147 268.915 42.852 269.363 42.012L270.007 41.088C270.493 40.08 270.959 39.3893 271.407 39.016C271.855 38.624 272.35 38.428 272.891 38.428C273.507 38.428 274.058 38.6053 274.543 38.96C275.047 39.296 275.626 39.8187 276.279 40.528L275.719 40.556C275.645 40.1267 275.598 39.7253 275.579 39.352C275.561 38.96 275.551 38.568 275.551 38.176V35.572H260.991V33.584H280.647ZM268.859 43.412C268.673 42.1427 268.477 41.1347 268.271 40.388C268.085 39.6413 267.749 39.0627 267.263 38.652C266.797 38.2227 266.162 37.9053 265.359 37.7C264.557 37.476 263.549 37.2893 262.335 37.14L262.755 35.012L264.267 35.572C265.331 35.74 266.218 35.9547 266.927 36.216C267.637 36.4773 268.206 36.8227 268.635 37.252C269.083 37.6627 269.419 38.176 269.643 38.792C269.867 39.408 270.017 40.1547 270.091 41.032L268.859 43.412ZM287.777 33.584V35.572H285.817L287.497 34.956C286.732 35.572 286.153 36.132 285.761 36.636C285.369 37.1213 285.108 37.616 284.977 38.12C284.847 38.624 284.781 39.2307 284.781 39.94C284.781 40.556 284.856 41.2093 285.005 41.9C285.155 42.5907 285.304 43.3093 285.453 44.056C285.621 44.784 285.705 45.5493 285.705 46.352C285.705 47.024 285.631 47.6773 285.481 48.312C285.332 48.928 285.052 49.5067 284.641 50.048C284.249 50.5707 283.68 51.0373 282.933 51.448C282.205 51.8587 281.253 52.1947 280.077 52.456L279.489 50.524C280.684 50.244 281.561 49.8987 282.121 49.488C282.7 49.0587 283.073 48.5733 283.241 48.032C283.428 47.4907 283.521 46.912 283.521 46.296C283.521 45.5493 283.447 44.8213 283.297 44.112C283.148 43.4027 282.989 42.7027 282.821 42.012C282.672 41.3213 282.597 40.6493 282.597 39.996C282.597 39.2867 282.663 38.6707 282.793 38.148C282.924 37.6067 283.148 37.0933 283.465 36.608C283.783 36.104 284.212 35.5627 284.753 34.984L285.173 35.572H280.077V33.584H287.777ZM295.222 33.584V35.572H292.282V51H290.126V37.868C289.902 37.2333 289.566 36.692 289.118 36.244C288.689 35.796 288.129 35.572 287.438 35.572H287.214V33.584H287.634C288.082 33.584 288.549 33.7333 289.034 34.032C289.519 34.312 289.911 34.7507 290.21 35.348C290.191 35.2547 290.173 35.04 290.154 34.704C290.135 34.368 290.126 34.0787 290.126 33.836V31.736H291.638L292.254 33.584H295.222ZM312.31 33.584V35.572H311.75C311.171 35.7027 310.546 35.992 309.874 36.44C309.202 36.8693 308.567 37.4387 307.97 38.148C307.372 38.8387 306.878 39.6507 306.486 40.584C306.112 41.5173 305.926 42.544 305.926 43.664C305.926 45.008 306.122 46.0813 306.514 46.884C306.924 47.668 307.428 48.228 308.026 48.564C308.623 48.9 309.22 49.068 309.818 49.068C310.284 49.068 310.676 49.0213 310.994 48.928C311.311 48.8347 311.675 48.6667 312.086 48.424L313.066 50.132C312.58 50.5053 312.048 50.7667 311.47 50.916C310.891 51.0653 310.303 51.14 309.706 51.14C308.53 51.14 307.494 50.832 306.598 50.216C305.702 49.6 304.992 48.7413 304.47 47.64C303.966 46.52 303.714 45.2133 303.714 43.72C303.714 42.2827 303.938 41.004 304.386 39.884C304.852 38.7453 305.45 37.756 306.178 36.916C306.924 36.076 307.727 35.3853 308.586 34.844C309.444 34.284 310.275 33.864 311.078 33.584H312.31ZM329.213 33.584V35.572H326.273V51H324.117V44.196L324.565 45.764C323.949 44.9053 323.277 44.1307 322.549 43.44C321.821 42.7493 321.075 42.1987 320.309 41.788C319.544 41.3773 318.797 41.172 318.069 41.172C317.379 41.172 316.791 41.3587 316.305 41.732C315.839 42.0867 315.605 42.6187 315.605 43.328C315.605 43.888 315.801 44.3733 316.193 44.784C316.585 45.176 317.192 45.5307 318.013 45.848L316.949 47.836C315.811 47.3693 314.915 46.744 314.261 45.96C313.627 45.1573 313.309 44.252 313.309 43.244C313.309 42.3293 313.524 41.5733 313.953 40.976C314.401 40.36 314.961 39.9027 315.633 39.604C316.324 39.3053 317.024 39.156 317.733 39.156C318.704 39.156 319.591 39.324 320.393 39.66C321.196 39.996 321.943 40.4533 322.633 41.032C323.343 41.6107 324.015 42.2827 324.649 43.048L324.257 43.16C324.201 42.7307 324.164 42.3107 324.145 41.9C324.127 41.4707 324.117 41.0413 324.117 40.612V35.572H311.741V33.584H329.213ZM338.944 33.584C338.925 32.8187 338.739 32.268 338.384 31.932C338.048 31.596 337.488 31.428 336.704 31.428H334.688C333.456 31.428 332.504 31.344 331.832 31.176C331.179 31.008 330.619 30.7467 330.152 30.392C329.648 30.0187 329.265 29.5427 329.004 28.964C328.761 28.3667 328.64 27.6947 328.64 26.948C328.64 26.7053 328.659 26.4627 328.696 26.22C328.715 25.9773 328.743 25.7253 328.78 25.464L330.852 25.604C330.815 25.828 330.787 26.024 330.768 26.192C330.749 26.36 330.74 26.5187 330.74 26.668C330.74 27.0787 330.777 27.4427 330.852 27.76C330.945 28.0773 331.085 28.3387 331.272 28.544C331.533 28.8427 331.907 29.0667 332.392 29.216C332.896 29.3467 333.605 29.412 334.52 29.412H336.116C337.105 29.412 337.889 29.4867 338.468 29.636C339.047 29.7853 339.541 30.056 339.952 30.448C340.269 30.7467 340.512 31.1573 340.68 31.68C340.848 32.184 340.941 32.8187 340.96 33.584H338.944ZM335.696 37C337.171 37 338.356 37.252 339.252 37.756C340.167 38.2413 340.839 38.8667 341.268 39.632C341.697 40.3787 341.912 41.1347 341.912 41.9C341.912 43.4307 341.371 44.644 340.288 45.54C339.224 46.436 337.637 46.94 335.528 47.052L335.808 46.744C336.648 46.9867 337.535 47.332 338.468 47.78C339.401 48.228 340.344 48.7507 341.296 49.348C342.248 49.9267 343.163 50.5707 344.04 51.28L342.752 52.764C341.595 51.9053 340.531 51.168 339.56 50.552C338.608 49.9173 337.665 49.3667 336.732 48.9C335.799 48.4333 334.809 48.0227 333.764 47.668C332.719 47.3133 331.533 46.9867 330.208 46.688L330.628 44.756C331.281 44.9427 331.907 45.0827 332.504 45.176C333.12 45.2507 333.857 45.288 334.716 45.288C336.041 45.288 337.059 45.1293 337.768 44.812C338.496 44.4947 339 44.084 339.28 43.58C339.56 43.076 339.7 42.5627 339.7 42.04C339.7 41.0507 339.336 40.2947 338.608 39.772C337.88 39.2307 336.956 38.96 335.836 38.96C335.164 38.96 334.623 39.0253 334.212 39.156C333.801 39.2867 333.503 39.4827 333.316 39.744C333.148 39.9867 333.064 40.2853 333.064 40.64C333.064 40.7893 333.083 40.948 333.12 41.116C333.157 41.2653 333.195 41.4053 333.232 41.536L331.188 41.956C331.095 41.676 331.02 41.3867 330.964 41.088C330.908 40.7707 330.88 40.4907 330.88 40.248C330.88 39.5573 331.085 38.9693 331.496 38.484C331.907 37.9987 332.467 37.6347 333.176 37.392C333.904 37.1307 334.744 37 335.696 37ZM333.82 37.98C333.727 37.3827 333.447 36.86 332.98 36.412C332.513 35.9453 331.841 35.6187 330.964 35.432L331.636 34.172L332.924 34.508C333.969 34.9187 334.725 35.3853 335.192 35.908C335.677 36.4307 335.957 37.0933 336.032 37.896L333.82 37.98ZM344.04 33.584V35.572H328.64V33.584H344.04ZM349.515 30.6364L349.256 45.1435H346.502L346.243 30.6364H349.515ZM347.884 51.1889C347.334 51.1889 346.863 50.9967 346.472 50.6122C346.081 50.2211 345.889 49.7505 345.895 49.2003C345.889 48.6567 346.081 48.1927 346.472 47.8082C346.863 47.4171 347.334 47.2216 347.884 47.2216C348.421 47.2216 348.885 47.4171 349.276 47.8082C349.667 48.1927 349.866 48.6567 349.873 49.2003C349.866 49.5649 349.77 49.8996 349.584 50.2045C349.405 50.5028 349.167 50.7415 348.868 50.9205C348.57 51.0994 348.242 51.1889 347.884 51.1889ZM373.632 33.584C373.614 32.8187 373.427 32.268 373.072 31.932C372.736 31.596 372.176 31.428 371.392 31.428H367.472C366.259 31.428 365.316 31.344 364.644 31.176C363.991 31.008 363.431 30.7467 362.964 30.392C362.46 30.0187 362.078 29.5427 361.816 28.964C361.574 28.3667 361.452 27.6947 361.452 26.948C361.452 26.7053 361.462 26.4627 361.48 26.22C361.518 25.9773 361.555 25.7253 361.592 25.464L363.664 25.604C363.627 25.828 363.599 26.024 363.58 26.192C363.562 26.36 363.552 26.5187 363.552 26.668C363.552 27.0787 363.59 27.4427 363.664 27.76C363.758 28.0773 363.898 28.3387 364.084 28.544C364.346 28.8427 364.719 29.0667 365.204 29.216C365.69 29.3467 366.399 29.412 367.332 29.412H370.804C371.794 29.412 372.578 29.4867 373.156 29.636C373.735 29.7853 374.23 30.056 374.64 30.448C374.958 30.7467 375.2 31.1573 375.368 31.68C375.536 32.184 375.63 32.8187 375.648 33.584H373.632ZM379.624 33.584V35.572H369.376V40.584C369.376 41.1253 369.46 41.5267 369.628 41.788C369.796 42.0307 370.058 42.152 370.412 42.152C370.767 42.152 371.131 42.04 371.504 41.816C371.896 41.592 372.316 41.2373 372.764 40.752C373.212 40.2667 373.698 39.6413 374.22 38.876L375.9 38.624C376.498 39.5013 376.955 40.4067 377.272 41.34C377.608 42.2733 377.776 43.2067 377.776 44.14C377.776 45.316 377.515 46.3707 376.992 47.304C376.488 48.2373 375.732 48.9747 374.724 49.516C373.735 50.0573 372.522 50.328 371.084 50.328C369.852 50.328 368.704 50.1133 367.64 49.684C366.576 49.2547 365.596 48.564 364.7 47.612C363.804 46.6413 362.983 45.372 362.236 43.804C361.49 42.2173 360.818 40.276 360.22 37.98L362.348 37.42C363.02 40.0147 363.758 42.1053 364.56 43.692C365.382 45.26 366.315 46.408 367.36 47.136C368.406 47.8453 369.61 48.2 370.972 48.2C372.466 48.2 373.614 47.8267 374.416 47.08C375.238 46.3333 375.648 45.372 375.648 44.196C375.648 43.356 375.527 42.6373 375.284 42.04C375.06 41.4427 374.762 40.948 374.388 40.556L375.676 40.024C375.116 40.976 374.538 41.76 373.94 42.376C373.362 42.992 372.774 43.4587 372.176 43.776C371.598 44.0747 371.019 44.224 370.44 44.224C370.011 44.224 369.61 44.168 369.236 44.056C368.863 43.9253 368.546 43.7387 368.284 43.496C367.986 43.2347 367.734 42.8707 367.528 42.404C367.323 41.9187 367.22 41.116 367.22 39.996V35.572H359.128V33.584H379.624ZM399.67 33.584V35.572H396.73V51H394.574V39.912L395.19 41.704C394.424 40.584 393.724 39.632 393.09 38.848C392.455 38.0453 391.848 37.392 391.27 36.888C390.71 36.384 390.14 36.02 389.562 35.796C388.983 35.5533 388.358 35.432 387.686 35.432C386.939 35.432 386.258 35.572 385.642 35.852C385.044 36.132 384.494 36.5053 383.99 36.972C383.486 37.4387 383.019 37.9427 382.59 38.484L382.366 38.54C382.664 38.3533 382.954 38.2133 383.234 38.12C383.532 38.0267 383.859 37.98 384.214 37.98C385.296 37.98 386.09 38.2787 386.594 38.876C387.098 39.4547 387.35 40.1733 387.35 41.032C387.35 41.2373 387.34 41.4333 387.322 41.62C387.303 41.8067 387.275 41.9467 387.238 42.04L386.762 41.872C386.986 41.6293 387.2 41.396 387.406 41.172C387.611 40.948 387.826 40.724 388.05 40.5C388.292 40.276 388.535 40.0427 388.778 39.8L392.25 36.552L393.622 38.036L385.67 45.54L384.018 44L386.314 41.816L385.306 43.02L384.466 43.664C384.746 43.3467 384.979 43.0107 385.166 42.656C385.371 42.2827 385.474 41.8627 385.474 41.396C385.474 40.9293 385.334 40.556 385.054 40.276C384.774 39.996 384.363 39.856 383.822 39.856C383.523 39.856 383.234 39.8933 382.954 39.968C382.674 40.0427 382.384 40.1733 382.086 40.36L379.958 38.344C380.704 37.3547 381.47 36.496 382.254 35.768C383.038 35.0213 383.859 34.4427 384.718 34.032C385.576 33.6027 386.5 33.388 387.49 33.388C388.535 33.388 389.478 33.584 390.318 33.976C391.158 34.368 391.97 34.956 392.754 35.74C393.538 36.5053 394.359 37.476 395.218 38.652L394.714 38.512C394.658 38.064 394.62 37.5787 394.602 37.056C394.583 36.5333 394.574 35.9733 394.574 35.376V31.736H396.058L396.702 33.584H399.67ZM409.353 33.584V35.572H408.793C408.214 35.7027 407.589 35.992 406.917 36.44C406.245 36.8693 405.61 37.4387 405.013 38.148C404.415 38.8387 403.921 39.6507 403.529 40.584C403.155 41.5173 402.969 42.544 402.969 43.664C402.969 45.008 403.165 46.0813 403.557 46.884C403.967 47.668 404.471 48.228 405.069 48.564C405.666 48.9 406.263 49.068 406.861 49.068C407.327 49.068 407.719 49.0213 408.037 48.928C408.354 48.8347 408.718 48.6667 409.129 48.424L410.109 50.132C409.623 50.5053 409.091 50.7667 408.513 50.916C407.934 51.0653 407.355 51.14 406.777 51.14C405.601 51.14 404.555 50.832 403.641 50.216C402.745 49.6 402.035 48.7413 401.513 47.64C401.009 46.52 400.757 45.2133 400.757 43.72C400.757 42.1893 401.046 40.808 401.625 39.576C402.203 38.3253 402.978 37.2707 403.949 36.412C404.938 35.5533 406.03 34.928 407.225 34.536L405.433 35.46C405.097 35.4973 404.733 35.5253 404.341 35.544C403.949 35.5627 403.51 35.572 403.025 35.572H399.105V33.584H409.353ZM420.88 49.796C419.667 49.796 418.528 49.6 417.464 49.208C416.4 48.816 415.402 48.1627 414.468 47.248C413.554 46.3333 412.714 45.12 411.948 43.608C411.183 42.096 410.492 40.22 409.876 37.98L412.004 37.42C412.676 39.884 413.432 41.872 414.272 43.384C415.131 44.8773 416.092 45.9693 417.156 46.66C418.239 47.332 419.462 47.668 420.824 47.668C421.814 47.668 422.654 47.4907 423.344 47.136C424.054 46.7813 424.595 46.296 424.968 45.68C425.342 45.0453 425.528 44.3267 425.528 43.524C425.528 42.964 425.472 42.46 425.36 42.012C425.248 41.564 425.09 41.1627 424.884 40.808C424.698 40.4347 424.483 40.1173 424.24 39.856L425.584 37.672C426.294 38.6987 426.816 39.6973 427.152 40.668C427.488 41.6387 427.656 42.6 427.656 43.552C427.656 44.728 427.395 45.792 426.872 46.744C426.35 47.6773 425.584 48.424 424.576 48.984C423.587 49.5253 422.355 49.796 420.88 49.796ZM419.816 43.048C418.64 43.048 417.716 42.7587 417.044 42.18C416.372 41.5827 416.036 40.7707 416.036 39.744C416.036 39.3147 416.102 38.8947 416.232 38.484C416.363 38.0547 416.503 37.6907 416.652 37.392L418.892 38.064C418.762 38.2507 418.64 38.484 418.528 38.764C418.416 39.044 418.36 39.3333 418.36 39.632C418.36 40.136 418.5 40.5 418.78 40.724C419.06 40.948 419.424 41.06 419.872 41.06C420.264 41.06 420.656 40.9853 421.048 40.836C421.44 40.6867 421.86 40.3973 422.308 39.968C422.775 39.52 423.279 38.848 423.82 37.952L425.584 37.672L425.36 39.184C424.856 40.024 424.324 40.7333 423.764 41.312C423.223 41.872 422.626 42.3013 421.972 42.6C421.338 42.8987 420.619 43.048 419.816 43.048ZM429.532 33.584V35.572H408.784V33.584H429.532ZM436.972 33.584V35.572H434.032V51H431.876V37.868C431.652 37.2333 431.316 36.692 430.868 36.244C430.439 35.796 429.879 35.572 429.188 35.572H428.964V33.584H429.384C429.832 33.584 430.299 33.7333 430.784 34.032C431.269 34.312 431.661 34.7507 431.96 35.348C431.941 35.2547 431.923 35.04 431.904 34.704C431.885 34.368 431.876 34.0787 431.876 33.836V31.736H433.388L434.004 33.584H436.972ZM450.234 51V39.1L450.822 40.864C450.168 39.9307 449.552 39.128 448.974 38.456C448.414 37.7653 447.872 37.196 447.35 36.748C446.827 36.3 446.295 35.9733 445.754 35.768C445.212 35.544 444.643 35.432 444.046 35.432C443.056 35.432 442.254 35.6933 441.638 36.216C441.04 36.72 440.508 37.308 440.042 37.98L439.65 38.204C439.911 37.9613 440.312 37.7653 440.854 37.616C441.395 37.448 442.02 37.364 442.73 37.364C443.588 37.364 444.279 37.532 444.802 37.868C445.343 38.204 445.735 38.6333 445.978 39.156C446.239 39.66 446.37 40.164 446.37 40.668C446.37 41.7693 445.996 42.7587 445.25 43.636C444.503 44.4947 443.346 45.344 441.778 46.184L440.35 44.14C441.376 43.7107 442.263 43.2347 443.01 42.712C443.756 42.1707 444.13 41.5267 444.13 40.78C444.13 40.3693 443.971 40.024 443.654 39.744C443.336 39.464 442.879 39.324 442.282 39.324C441.796 39.324 441.339 39.38 440.91 39.492C440.499 39.604 440.051 39.7813 439.566 40.024L437.298 38.176C437.876 37.2053 438.492 36.3653 439.146 35.656C439.799 34.928 440.508 34.368 441.274 33.976C442.058 33.584 442.907 33.388 443.822 33.388C444.755 33.388 445.604 33.556 446.37 33.892C447.154 34.2093 447.91 34.6947 448.638 35.348C449.384 36.0013 450.131 36.8133 450.878 37.784L450.374 37.476C450.336 37.2147 450.299 36.8133 450.262 36.272C450.243 35.7307 450.234 35.18 450.234 34.62V31.736H451.718L452.362 33.584H455.33V35.572H452.39V51H450.234ZM485.343 33.584V35.572H476.243V37.308V37.756V51H474.087C473.545 49.8987 472.789 48.8627 471.819 47.892C470.848 46.9213 469.737 46.1093 468.487 45.456C467.255 44.784 465.957 44.364 464.595 44.196L463.503 41.508C465.313 40.4627 467.124 39.5293 468.935 38.708C470.745 37.8867 472.668 37.1587 474.703 36.524L474.087 37.7V35.572H462.187V33.584H485.343ZM474.087 37.924L474.675 38.736C473.723 38.9973 472.733 39.3427 471.707 39.772C470.699 40.2013 469.709 40.6493 468.739 41.116C467.787 41.5827 466.909 42.04 466.107 42.488C467.152 42.6933 468.225 43.0853 469.327 43.664C470.447 44.2427 471.464 44.952 472.379 45.792C473.312 46.6133 474.003 47.5093 474.451 48.48L474.227 48.536C474.189 48.1067 474.152 47.6773 474.115 47.248C474.096 46.8187 474.087 46.3053 474.087 45.708V37.924ZM483.775 42.936C483.775 43.552 483.653 44.14 483.411 44.7C483.168 45.2413 482.767 45.6893 482.207 46.044C481.647 46.3987 480.9 46.576 479.967 46.576C479.668 46.576 479.379 46.5667 479.099 46.548C478.837 46.5293 478.576 46.492 478.315 46.436L478.483 44.42C478.595 44.4387 478.725 44.4573 478.875 44.476C479.043 44.476 479.229 44.476 479.435 44.476C480.331 44.476 480.909 44.308 481.171 43.972C481.451 43.6173 481.591 43.1973 481.591 42.712C481.591 41.7227 481.105 40.8827 480.135 40.192C479.183 39.4827 477.764 38.9973 475.879 38.736L475.963 36.636C477.4 36.7853 478.707 37.1493 479.883 37.728C481.059 38.288 482.001 39.016 482.711 39.912C483.42 40.7893 483.775 41.7973 483.775 42.936ZM507.817 33.584V35.572H499.081V42.936L498.997 43.328C499.034 43.6827 499.053 44.0467 499.053 44.42C499.071 44.7933 499.081 45.1667 499.081 45.54V51H496.925C496.365 49.88 495.59 48.8533 494.601 47.92C493.63 46.968 492.51 46.1653 491.241 45.512C489.971 44.8587 488.618 44.42 487.181 44.196L486.089 41.508C487.881 40.4253 489.729 39.4453 491.633 38.568C493.555 37.6907 495.534 36.944 497.569 36.328L496.925 37.504V35.572H484.773V33.584H507.817ZM496.925 37.728L497.513 38.512C496.094 38.9787 494.601 39.5573 493.033 40.248C491.465 40.92 490.018 41.6667 488.693 42.488C489.701 42.712 490.774 43.0947 491.913 43.636C493.051 44.1773 494.106 44.8587 495.077 45.68C496.047 46.5013 496.794 47.4533 497.317 48.536H497.065C497.027 48.1067 496.99 47.6773 496.953 47.248C496.934 46.8187 496.925 46.3053 496.925 45.708V37.728ZM502.917 46.408C502.226 46.408 501.573 46.268 500.957 45.988C500.341 45.708 499.781 45.2507 499.277 44.616C498.773 43.9813 498.334 43.1507 497.961 42.124L498.997 40.22C499.277 41.2093 499.594 42.0213 499.949 42.656C500.322 43.272 500.733 43.7293 501.181 44.028C501.629 44.3267 502.114 44.476 502.637 44.476C503.066 44.476 503.467 44.3453 503.841 44.084C504.214 43.804 504.401 43.328 504.401 42.656C504.401 42.264 504.317 41.9 504.149 41.564C503.981 41.228 503.701 40.9387 503.309 40.696C502.917 40.4347 502.385 40.2387 501.713 40.108L502.133 38.036C502.917 38.1853 503.635 38.456 504.289 38.848C504.961 39.2213 505.502 39.716 505.913 40.332C506.323 40.948 506.529 41.7133 506.529 42.628C506.529 43.7667 506.202 44.6813 505.549 45.372C504.895 46.0627 504.018 46.408 502.917 46.408ZM490.233 51.168C489.766 51.168 489.365 51.0187 489.029 50.72C488.711 50.4213 488.553 50.0293 488.553 49.544C488.553 49.0587 488.711 48.6573 489.029 48.34C489.365 48.0227 489.766 47.864 490.233 47.864C490.699 47.864 491.091 48.0227 491.409 48.34C491.745 48.6573 491.913 49.0587 491.913 49.544C491.913 50.0293 491.745 50.4213 491.409 50.72C491.091 51.0187 490.699 51.168 490.233 51.168ZM524.721 33.584V35.572H521.781V51H519.625V44.196L520.073 45.764C519.457 44.9053 518.785 44.1307 518.057 43.44C517.329 42.7493 516.583 42.1987 515.817 41.788C515.052 41.3773 514.305 41.172 513.577 41.172C512.887 41.172 512.299 41.3587 511.813 41.732C511.347 42.0867 511.113 42.6187 511.113 43.328C511.113 43.888 511.309 44.3733 511.701 44.784C512.093 45.176 512.7 45.5307 513.521 45.848L512.457 47.836C511.319 47.3693 510.423 46.744 509.769 45.96C509.135 45.1573 508.817 44.252 508.817 43.244C508.817 42.3293 509.032 41.5733 509.461 40.976C509.909 40.36 510.469 39.9027 511.141 39.604C511.832 39.3053 512.532 39.156 513.241 39.156C514.212 39.156 515.099 39.324 515.901 39.66C516.704 39.996 517.451 40.4533 518.141 41.032C518.851 41.6107 519.523 42.2827 520.157 43.048L519.765 43.16C519.709 42.7307 519.672 42.3107 519.653 41.9C519.635 41.4707 519.625 41.0413 519.625 40.612V35.572H507.249V33.584H524.721ZM545.614 33.584V51H543.458C542.917 49.8987 542.161 48.8627 541.19 47.892C540.219 46.9213 539.109 46.1093 537.858 45.456C536.626 44.784 535.329 44.364 533.966 44.196L532.874 41.508C534.647 40.444 536.467 39.464 538.334 38.568C540.219 37.672 542.123 36.9253 544.046 36.328L543.458 37.504V35.572H531.558V33.584H545.614ZM543.458 37.728L544.018 38.512C543.103 38.8107 542.151 39.1653 541.162 39.576C540.191 39.9867 539.221 40.444 538.25 40.948C537.298 41.4333 536.374 41.9467 535.478 42.488C536.523 42.6933 537.597 43.0853 538.698 43.664C539.818 44.2427 540.835 44.952 541.75 45.792C542.683 46.6133 543.374 47.5093 543.822 48.48L543.598 48.536C543.561 48.1067 543.523 47.6773 543.486 47.248C543.467 46.8187 543.458 46.3053 543.458 45.708V37.728ZM554.35 33.584V35.572H551.41V48.956H549.254C548.881 48.2093 548.451 47.528 547.966 46.912C547.481 46.296 546.958 45.736 546.398 45.232C545.857 44.7093 545.278 44.252 544.662 43.86L545.362 42.096C545.903 42.3947 546.454 42.796 547.014 43.3C547.574 43.7853 548.087 44.3173 548.554 44.896C549.021 45.456 549.366 45.9973 549.59 46.52L549.366 46.604C549.329 46.1747 549.301 45.7547 549.282 45.344C549.263 44.9147 549.254 44.4013 549.254 43.804V31.736H550.738L551.382 33.584H554.35ZM561.796 33.584V35.572H558.856V51H556.7V37.868C556.476 37.2333 556.14 36.692 555.692 36.244C555.263 35.796 554.703 35.572 554.012 35.572H553.788V33.584H554.208C554.656 33.584 555.123 33.7333 555.608 34.032C556.094 34.312 556.486 34.7507 556.784 35.348C556.766 35.2547 556.747 35.04 556.728 34.704C556.71 34.368 556.7 34.0787 556.7 33.836V31.736H558.212L558.828 33.584H561.796ZM571.474 33.584V35.572H570.914C570.335 35.7027 569.71 35.992 569.038 36.44C568.366 36.8693 567.731 37.4387 567.134 38.148C566.537 38.8387 566.042 39.6507 565.65 40.584C565.277 41.5173 565.09 42.544 565.09 43.664C565.09 45.008 565.286 46.0813 565.678 46.884C566.089 47.668 566.593 48.228 567.19 48.564C567.787 48.9 568.385 49.068 568.982 49.068C569.449 49.068 569.841 49.0213 570.158 48.928C570.475 48.8347 570.839 48.6667 571.25 48.424L572.23 50.132C571.745 50.5053 571.213 50.7667 570.634 50.916C570.055 51.0653 569.477 51.14 568.898 51.14C567.722 51.14 566.677 50.832 565.762 50.216C564.866 49.6 564.157 48.7413 563.634 47.64C563.13 46.52 562.878 45.2133 562.878 43.72C562.878 42.1893 563.167 40.808 563.746 39.576C564.325 38.3253 565.099 37.2707 566.07 36.412C567.059 35.5533 568.151 34.928 569.346 34.536L567.554 35.46C567.218 35.4973 566.854 35.5253 566.462 35.544C566.07 35.5627 565.631 35.572 565.146 35.572H561.226V33.584H571.474ZM588.882 33.584V35.572H585.942V51H583.786V47.22L584.29 48.704C583.636 47.7147 582.974 46.8 582.302 45.96C581.648 45.12 580.948 44.4387 580.202 43.916C579.474 43.3933 578.671 43.132 577.794 43.132C577.103 43.132 576.515 43.3093 576.03 43.664C575.563 44.0187 575.33 44.5507 575.33 45.26C575.33 45.876 575.554 46.3987 576.002 46.828C576.45 47.2387 577.112 47.5933 577.99 47.892L577.29 50.048C576.282 49.6933 575.46 49.264 574.826 48.76C574.21 48.256 573.752 47.7053 573.454 47.108C573.174 46.492 573.034 45.848 573.034 45.176C573.034 44.28 573.248 43.5333 573.678 42.936C574.126 42.3387 574.686 41.8907 575.358 41.592C576.048 41.2747 576.739 41.116 577.43 41.116C578.55 41.116 579.53 41.3213 580.37 41.732C581.228 42.1427 581.975 42.6933 582.61 43.384C583.263 44.0747 583.851 44.8493 584.374 45.708L583.898 45.792C583.86 45.3627 583.832 44.9333 583.814 44.504C583.795 44.056 583.786 43.5987 583.786 43.132V35.572H570.906V33.584H588.882ZM579.558 41.956C579.558 42.068 579.548 42.18 579.53 42.292C579.53 42.404 579.52 42.516 579.502 42.628L577.374 41.984C577.336 40.9013 577.15 40.0333 576.814 39.38C576.478 38.7267 575.946 38.232 575.218 37.896C574.49 37.5413 573.5 37.2987 572.25 37.168L572.614 35.152L573.902 35.516C574.798 35.5907 575.591 35.7773 576.282 36.076C576.991 36.356 577.588 36.7573 578.074 37.28C578.559 37.8027 578.923 38.456 579.166 39.24C579.427 40.0053 579.558 40.9107 579.558 41.956ZM609.352 33.584V35.572H606.412V51H604.256V41.62L604.424 42.348C604.013 41.7507 603.574 41.2747 603.108 40.92C602.66 40.5653 602.165 40.388 601.624 40.388C601.344 40.388 601.054 40.444 600.756 40.556C600.476 40.6493 600.233 40.836 600.028 41.116C599.841 41.396 599.748 41.8253 599.748 42.404C599.748 42.6093 599.748 42.796 599.748 42.964C599.766 43.1133 599.785 43.2627 599.804 43.412L597.984 43.552C597.909 42.7867 597.704 42.1427 597.368 41.62C597.032 41.0787 596.621 40.668 596.136 40.388C595.65 40.108 595.128 39.968 594.568 39.968C594.064 39.968 593.634 40.0707 593.28 40.276C592.925 40.4627 592.654 40.724 592.468 41.06C592.281 41.3773 592.188 41.7413 592.188 42.152C592.188 42.8987 592.458 43.5333 593 44.056C593.56 44.5787 594.344 45.0173 595.352 45.372L594.596 47.444C593.7 47.164 592.897 46.7813 592.188 46.296C591.478 45.8107 590.918 45.2133 590.508 44.504C590.097 43.7947 589.892 42.9733 589.892 42.04C589.892 41.2 590.097 40.4813 590.508 39.884C590.918 39.268 591.469 38.792 592.16 38.456C592.85 38.12 593.606 37.952 594.428 37.952C595.417 37.952 596.266 38.1387 596.976 38.512C597.685 38.8667 598.338 39.4453 598.936 40.248L598.516 40.276C598.702 39.66 599.057 39.1933 599.58 38.876C600.121 38.54 600.681 38.372 601.26 38.372C601.932 38.372 602.51 38.5027 602.996 38.764C603.481 39.0253 604.013 39.3987 604.592 39.884L604.34 40.304C604.321 39.912 604.302 39.52 604.284 39.128C604.265 38.736 604.256 38.3347 604.256 37.924V35.572H588.324V33.584H609.352ZM616.812 33.584V35.572H613.872V51H611.716V37.868C611.492 37.2333 611.156 36.692 610.708 36.244C610.279 35.796 609.719 35.572 609.028 35.572H608.804V33.584H609.224C609.672 33.584 610.139 33.7333 610.624 34.032C611.109 34.312 611.501 34.7507 611.8 35.348C611.781 35.2547 611.763 35.04 611.744 34.704C611.725 34.368 611.716 34.0787 611.716 33.836V31.736H613.228L613.844 33.584H616.812ZM634.217 33.584V35.572H631.277V51H629.121V47.22L629.625 48.704C628.972 47.7147 628.309 46.8 627.637 45.96C626.984 45.12 626.284 44.4387 625.537 43.916C624.809 43.3933 624.007 43.132 623.129 43.132C622.439 43.132 621.851 43.3093 621.365 43.664C620.899 44.0187 620.665 44.5507 620.665 45.26C620.665 45.876 620.889 46.3987 621.337 46.828C621.785 47.2387 622.448 47.5933 623.325 47.892L622.625 50.048C621.617 49.6933 620.796 49.264 620.161 48.76C619.545 48.256 619.088 47.7053 618.789 47.108C618.509 46.492 618.369 45.848 618.369 45.176C618.369 44.28 618.584 43.5333 619.013 42.936C619.461 42.3387 620.021 41.8907 620.693 41.592C621.384 41.2747 622.075 41.116 622.765 41.116C623.885 41.116 624.865 41.3213 625.705 41.732C626.564 42.1427 627.311 42.6933 627.945 43.384C628.599 44.0747 629.187 44.8493 629.709 45.708L629.233 45.792C629.196 45.3627 629.168 44.9333 629.149 44.504C629.131 44.056 629.121 43.5987 629.121 43.132V35.572H616.241V33.584H634.217ZM624.893 41.956C624.893 42.068 624.884 42.18 624.865 42.292C624.865 42.404 624.856 42.516 624.837 42.628L622.709 41.984C622.672 40.9013 622.485 40.0333 622.149 39.38C621.813 38.7267 621.281 38.232 620.553 37.896C619.825 37.5413 618.836 37.2987 617.585 37.168L617.949 35.152L619.237 35.516C620.133 35.5907 620.927 35.7773 621.617 36.076C622.327 36.356 622.924 36.7573 623.409 37.28C623.895 37.8027 624.259 38.456 624.501 39.24C624.763 40.0053 624.893 40.9107 624.893 41.956ZM625.931 58.448C625.427 58.448 624.877 58.336 624.279 58.112C623.682 57.9067 623.178 57.5707 622.767 57.104C622.338 56.6373 622.123 56.012 622.123 55.228C622.123 54.276 622.487 53.5107 623.215 52.932C623.943 52.372 624.961 52.092 626.267 52.092C627.425 52.092 628.545 52.2973 629.627 52.708C630.691 53.1373 631.783 53.7253 632.903 54.472C634.005 55.2187 635.181 56.0867 636.431 57.076L635.171 58.588C633.921 57.5427 632.782 56.6747 631.755 55.984C630.729 55.2933 629.758 54.7707 628.843 54.416C627.929 54.0613 627.023 53.884 626.127 53.884C625.455 53.884 624.951 54.0147 624.615 54.276C624.279 54.5373 624.111 54.8733 624.111 55.284C624.111 55.8067 624.298 56.1707 624.671 56.376C625.026 56.6 625.446 56.712 625.931 56.712C626.622 56.712 627.182 56.5627 627.611 56.264C628.022 55.984 628.339 55.6293 628.563 55.2C628.787 54.7707 628.937 54.3227 629.011 53.856C629.086 53.408 629.123 53.0067 629.123 52.652V50.776H631.279V52.26C631.279 52.7827 631.223 53.3893 631.111 54.08C630.981 54.7893 630.738 55.4707 630.383 56.124C630.01 56.796 629.469 57.3467 628.759 57.776C628.05 58.224 627.107 58.448 625.931 58.448ZM647.547 36.216C648.966 36.216 650.039 36.5427 650.767 37.196C651.514 37.8493 651.887 38.7547 651.887 39.912C651.887 40.7333 651.663 41.4707 651.215 42.124C650.786 42.7587 650.179 43.3187 649.395 43.804C648.63 44.2893 647.743 44.7093 646.735 45.064L645.895 43.104C647.109 42.712 648.051 42.292 648.723 41.844C649.395 41.396 649.731 40.78 649.731 39.996C649.731 39.4173 649.545 38.9787 649.171 38.68C648.798 38.3627 648.229 38.204 647.463 38.204C646.829 38.204 646.222 38.2973 645.643 38.484C645.083 38.6707 644.579 38.9133 644.131 39.212C643.702 39.492 643.357 39.7907 643.095 40.108C642.853 40.4253 642.731 40.7147 642.731 40.976C642.731 41.2187 642.815 41.424 642.983 41.592C643.17 41.76 643.553 41.8907 644.131 41.984L643.571 44.056C642.545 43.8693 641.779 43.5427 641.275 43.076C640.771 42.5907 640.519 41.9653 640.519 41.2C640.519 40.584 640.706 39.9867 641.079 39.408C641.471 38.8107 641.994 38.2693 642.647 37.784C643.301 37.2987 644.047 36.916 644.887 36.636C645.746 36.356 646.633 36.216 647.547 36.216ZM652.251 46.24C652.251 47.7147 651.691 48.8813 650.571 49.74C649.451 50.58 647.939 51 646.035 51C644.803 51 643.627 50.7947 642.507 50.384C641.387 49.9733 640.342 49.32 639.371 48.424C638.419 47.5093 637.551 46.3053 636.767 44.812C635.983 43.3187 635.302 41.4893 634.723 39.324L636.851 38.68C637.523 41.088 638.279 43.0387 639.119 44.532C639.978 46.0253 640.967 47.1267 642.087 47.836C643.226 48.5267 644.551 48.872 646.063 48.872C647.202 48.872 648.135 48.6573 648.863 48.228C649.61 47.7987 649.983 47.1173 649.983 46.184C649.983 45.5493 649.75 45.008 649.283 44.56C648.817 44.112 648.229 43.7573 647.519 43.496L649.759 42.516C650.562 42.9267 651.178 43.4587 651.607 44.112C652.037 44.7467 652.251 45.456 652.251 46.24ZM655.191 37.756C656.33 37.756 657.245 38.0827 657.935 38.736C658.626 39.3707 658.971 40.2013 658.971 41.228C658.971 41.8067 658.85 42.3853 658.607 42.964C658.383 43.5427 657.954 44.084 657.319 44.588C656.685 45.092 655.779 45.5213 654.603 45.876L653.931 43.86C654.846 43.6173 655.565 43.3 656.087 42.908C656.61 42.516 656.871 42.0307 656.871 41.452C656.871 40.7987 656.675 40.3413 656.283 40.08C655.91 39.8187 655.471 39.688 654.967 39.688C654.333 39.688 653.717 39.8747 653.119 40.248C652.541 40.6027 651.831 41.3213 650.991 42.404L650.039 41.592C650.599 40.6213 651.15 39.8653 651.691 39.324C652.233 38.764 652.793 38.3627 653.371 38.12C653.95 37.8773 654.557 37.756 655.191 37.756ZM660.259 33.584V35.572H633.659V33.584H660.259ZM695.125 31.096V34.616H684.693V36.536L684.757 37.848V51H680.533C679.744 49.848 678.784 48.8347 677.653 47.96C676.544 47.0853 675.306 46.36 673.941 45.784C672.576 45.1867 671.093 44.76 669.493 44.504L667.893 40.728C669.856 39.64 672 38.5947 674.325 37.592C676.672 36.568 678.976 35.7573 681.237 35.16L680.629 36.088V34.616H667.061V31.096H695.125ZM680.533 38.232L681.205 38.936C680.266 39.2133 679.36 39.512 678.485 39.832C677.632 40.152 676.778 40.504 675.925 40.888C675.072 41.2507 674.186 41.656 673.269 42.104C674.144 42.2747 675.05 42.5733 675.989 43C676.949 43.4053 677.877 43.9387 678.773 44.6C679.69 45.2613 680.512 46.0293 681.237 46.904L680.661 47.256C680.64 46.872 680.608 46.4453 680.565 45.976C680.544 45.5067 680.533 45.0053 680.533 44.472V38.232ZM693.781 42.744C693.781 43.448 693.632 44.12 693.333 44.76C693.056 45.4 692.565 45.9227 691.861 46.328C691.157 46.7333 690.176 46.936 688.917 46.936C688.469 46.936 688.053 46.9253 687.669 46.904C687.306 46.8613 686.965 46.808 686.645 46.744L686.773 43.224C686.88 43.2453 687.008 43.2667 687.157 43.288C687.328 43.288 687.541 43.288 687.797 43.288C688.565 43.288 689.066 43.16 689.301 42.904C689.536 42.6267 689.653 42.296 689.653 41.912C689.653 41.1867 689.194 40.5467 688.277 39.992C687.36 39.4373 686.016 39.0107 684.245 38.712V35.224C685.994 35.4587 687.584 35.9067 689.013 36.568C690.464 37.208 691.616 38.0507 692.469 39.096C693.344 40.12 693.781 41.336 693.781 42.744ZM704.258 31.096V34.616H701.698L703.586 34.008C702.989 34.5413 702.509 35.0427 702.146 35.512C701.805 35.9813 701.56 36.4507 701.41 36.92C701.261 37.3893 701.186 37.912 701.186 38.488C701.186 39.192 701.272 39.928 701.442 40.696C701.634 41.4427 701.816 42.2107 701.986 43C702.178 43.768 702.274 44.536 702.274 45.304C702.274 46.1787 702.168 46.9893 701.954 47.736C701.762 48.4827 701.4 49.1653 700.866 49.784C700.333 50.3813 699.586 50.9147 698.626 51.384C697.666 51.8747 696.418 52.3013 694.882 52.664L693.954 49.208C695.149 48.9093 696.034 48.568 696.61 48.184C697.186 47.8 697.56 47.3627 697.73 46.872C697.922 46.3813 698.018 45.848 698.018 45.272C698.018 44.4613 697.922 43.6827 697.73 42.936C697.56 42.1893 697.378 41.4533 697.186 40.728C697.016 40.0027 696.93 39.256 696.93 38.488C696.93 37.848 697.005 37.2933 697.154 36.824C697.304 36.3333 697.528 35.864 697.826 35.416C698.146 34.968 698.53 34.4987 698.978 34.008L698.594 34.616H694.498V31.096H704.258ZM713.991 31.096V34.616H710.919V51H706.695V36.792C706.439 36.1307 706.077 35.608 705.607 35.224C705.138 34.8187 704.53 34.616 703.783 34.616H703.623V31.096H704.263C704.754 31.096 705.213 31.224 705.639 31.48C706.066 31.736 706.461 32.28 706.823 33.112C706.802 33.0053 706.77 32.76 706.727 32.376C706.706 31.992 706.695 31.6613 706.695 31.384V28.984H710.151L710.887 31.096H713.991ZM736.83 31.096V34.616H733.758V51H729.534V34.776L729.662 34.04C729.619 33.6347 729.587 33.24 729.566 32.856C729.545 32.4507 729.534 32.056 729.534 31.672V28.984H732.99L733.726 31.096H736.83ZM724.734 30.872C725.651 30.872 726.451 31.032 727.134 31.352C727.838 31.672 728.467 32.1307 729.022 32.728C729.577 33.3253 730.067 34.0293 730.494 34.84V39.128C729.811 37.7413 729.054 36.6107 728.222 35.736C727.39 34.84 726.441 34.392 725.374 34.392C724.777 34.392 724.254 34.5627 723.806 34.904C723.379 35.224 723.166 35.7253 723.166 36.408C723.166 37.1547 723.475 37.72 724.094 38.104C724.734 38.4667 725.683 38.6693 726.942 38.712L726.494 42.552C724.958 42.4667 723.731 42.1467 722.814 41.592C721.897 41.0373 721.235 40.312 720.83 39.416C720.425 38.4987 720.222 37.4747 720.222 36.344C720.222 35.0853 720.425 34.0613 720.83 33.272C721.257 32.4613 721.811 31.864 722.494 31.48C723.198 31.0747 723.945 30.872 724.734 30.872ZM716.286 30.872C717.267 30.872 718.174 31.0747 719.006 31.48C719.838 31.8853 720.499 32.5253 720.99 33.4C721.502 34.2533 721.758 35.384 721.758 36.792C721.758 37.752 721.545 38.68 721.118 39.576C720.713 40.4507 720.041 41.1653 719.102 41.72C718.185 42.2747 716.958 42.552 715.422 42.552L715.006 38.744C715.987 38.68 716.745 38.552 717.278 38.36C717.811 38.1467 718.185 37.88 718.398 37.56C718.633 37.2187 718.75 36.8453 718.75 36.44C718.75 35.7573 718.505 35.2453 718.014 34.904C717.545 34.5627 716.915 34.392 716.126 34.392C715.678 34.392 715.262 34.4133 714.878 34.456C714.515 34.4987 714.11 34.584 713.662 34.712L713.278 31.16C713.833 31.0533 714.355 30.9787 714.846 30.936C715.337 30.8933 715.817 30.872 716.286 30.872ZM774.952 31.096V34.616H771.88V51H767.656C767.059 49.8693 766.216 48.8987 765.128 48.088C764.061 47.256 763.027 46.5733 762.024 46.04L763.88 43.32C764.691 43.7893 765.427 44.2907 766.088 44.824C766.771 45.336 767.325 45.8373 767.752 46.328C767.731 46.0933 767.709 45.8587 767.688 45.624C767.688 45.3893 767.677 45.144 767.656 44.888C767.656 44.6107 767.656 44.3333 767.656 44.056V34.616H743.592V31.096H774.952ZM756.648 48.376C754.899 48.376 753.256 48.0347 751.72 47.352C750.205 46.6693 748.829 45.5173 747.592 43.896C746.376 42.2747 745.309 40.0773 744.392 37.304L748.392 36.184C749.075 38.168 749.789 39.7893 750.536 41.048C751.283 42.3067 752.136 43.2347 753.096 43.832C754.056 44.408 755.176 44.696 756.456 44.696C757.459 44.696 758.28 44.568 758.92 44.312C759.581 44.056 760.072 43.6827 760.392 43.192C760.712 42.7013 760.872 42.1253 760.872 41.464C760.872 40.6533 760.648 40.024 760.2 39.576C759.773 39.1067 759.219 38.872 758.536 38.872C758.067 38.872 757.704 38.9893 757.448 39.224C757.192 39.4587 757.064 39.768 757.064 40.152C757.064 40.3227 757.085 40.5147 757.128 40.728C757.171 40.92 757.224 41.1013 757.288 41.272L753.32 41.848C753.149 41.4427 753.021 41.048 752.936 40.664C752.851 40.28 752.808 39.9493 752.808 39.672C752.808 38.6267 753.053 37.8053 753.544 37.208C754.035 36.5893 754.675 36.1413 755.464 35.864C756.275 35.5867 757.117 35.448 757.992 35.448C759.464 35.448 760.733 35.736 761.8 36.312C762.867 36.8667 763.677 37.6347 764.232 38.616C764.808 39.5973 765.096 40.7067 765.096 41.944C765.096 43.096 764.808 44.1627 764.232 45.144C763.656 46.1253 762.739 46.9147 761.48 47.512C760.243 48.088 758.632 48.376 756.648 48.376ZM754.632 37.304C754.547 36.6 754.237 35.992 753.704 35.48C753.171 34.968 752.403 34.5947 751.4 34.36L753.8 32.952L755.272 33.304C756.467 33.7947 757.331 34.3387 757.864 34.936C758.397 35.5333 758.717 36.2907 758.824 37.208L754.632 37.304ZM795.239 31.096V34.616H792.167V51H787.943V44.28L788.583 45.944C787.922 45.0907 787.207 44.312 786.439 43.608C785.671 42.904 784.892 42.3387 784.103 41.912C783.335 41.4853 782.578 41.272 781.831 41.272C781.298 41.272 780.839 41.4 780.455 41.656C780.092 41.8907 779.911 42.2747 779.911 42.808C779.911 43.2773 780.082 43.672 780.423 43.992C780.764 44.312 781.308 44.6213 782.055 44.92L780.167 48.44C778.738 47.8853 777.607 47.096 776.775 46.072C775.964 45.0267 775.559 43.8853 775.559 42.648C775.559 41.496 775.826 40.5573 776.359 39.832C776.892 39.0853 777.575 38.5413 778.407 38.2C779.26 37.8373 780.135 37.656 781.031 37.656C782.012 37.656 782.94 37.8053 783.815 38.104C784.69 38.4027 785.522 38.8293 786.311 39.384C787.122 39.9173 787.911 40.5787 788.679 41.368L788.039 41.688C787.996 41.176 787.964 40.6533 787.943 40.12C787.943 39.5653 787.943 39.0533 787.943 38.584V34.616H774.311V31.096H795.239ZM815.406 31.096V34.616H813.582C812.857 34.9787 812.153 35.4267 811.47 35.96C810.809 36.472 810.212 37.0693 809.678 37.752C809.166 38.4133 808.75 39.1493 808.43 39.96C808.132 40.7707 807.982 41.6453 807.982 42.584C807.982 43.864 808.174 44.8667 808.558 45.592C808.942 46.3173 809.422 46.8293 809.998 47.128C810.574 47.4053 811.15 47.544 811.726 47.544C812.11 47.544 812.484 47.512 812.846 47.448C813.209 47.3627 813.625 47.2027 814.094 46.968L815.694 50.136C814.99 50.5413 814.297 50.8187 813.614 50.968C812.932 51.096 812.217 51.16 811.47 51.16C809.892 51.16 808.516 50.84 807.342 50.2C806.169 49.5387 805.262 48.5787 804.622 47.32C804.004 46.04 803.694 44.4933 803.694 42.68C803.694 41.3787 803.897 40.1413 804.302 38.968C804.708 37.7733 805.262 36.6747 805.966 35.672C806.692 34.6693 807.534 33.784 808.494 33.016C809.454 32.2267 810.489 31.5867 811.598 31.096H815.406ZM839.132 31.096V34.616H827.996V38.744C827.996 39.064 828.049 39.3413 828.156 39.576C828.262 39.7893 828.486 39.896 828.828 39.896C829.105 39.896 829.404 39.8 829.724 39.608C830.044 39.3947 830.364 39.1067 830.684 38.744C831.025 38.36 831.366 37.9333 831.708 37.464L835.452 36.76C836.177 37.8053 836.721 38.8613 837.084 39.928C837.446 40.9733 837.628 42.104 837.628 43.32C837.628 44.664 837.297 45.8693 836.636 46.936C835.996 47.9813 835.025 48.8133 833.724 49.432C832.444 50.0507 830.854 50.36 828.956 50.36C827.548 50.36 826.193 50.1573 824.892 49.752C823.59 49.3467 822.364 48.664 821.212 47.704C820.081 46.7227 819.036 45.3893 818.076 43.704C817.137 41.9973 816.316 39.864 815.612 37.304L819.612 36.184C820.316 38.7227 821.116 40.7707 822.012 42.328C822.908 43.864 823.9 44.984 824.988 45.688C826.097 46.3707 827.302 46.712 828.604 46.712C830.14 46.712 831.324 46.3707 832.156 45.688C833.009 44.984 833.436 44.0133 833.436 42.776C833.436 41.944 833.286 41.2613 832.988 40.728C832.689 40.1947 832.348 39.6933 831.964 39.224L835.228 38.968C834.46 39.992 833.681 40.8347 832.892 41.496C832.102 42.1573 831.302 42.648 830.492 42.968C829.702 43.288 828.881 43.448 828.028 43.448C827.345 43.448 826.737 43.352 826.204 43.16C825.67 42.9467 825.222 42.6373 824.86 42.232C824.497 41.8267 824.22 41.304 824.028 40.664C823.857 40.024 823.772 39.2027 823.772 38.2V34.616H814.78V31.096H839.132ZM848.866 31.096V34.616H845.794V51H841.57V34.616H838.498V31.096H841.602C841.261 30.6907 840.888 30.232 840.482 29.72C840.098 29.1867 839.757 28.7173 839.458 28.312C840.674 26.648 841.869 25.336 843.042 24.376C844.237 23.3947 845.485 22.7013 846.786 22.296C848.109 21.8693 849.56 21.656 851.138 21.656C852.354 21.656 853.528 21.752 854.658 21.944C855.789 22.1147 856.962 22.4027 858.178 22.808C859.394 23.2133 860.717 23.7573 862.146 24.44C863.576 25.1013 865.186 25.9227 866.978 26.904L864.994 29.848C863.394 29.016 861.986 28.3013 860.77 27.704C859.554 27.1067 858.434 26.6267 857.41 26.264C856.408 25.88 855.437 25.6027 854.498 25.432C853.581 25.2613 852.61 25.176 851.586 25.176C850.413 25.176 849.357 25.368 848.418 25.752C847.501 26.136 846.69 26.6267 845.986 27.224C845.304 27.8 844.706 28.3973 844.194 29.016C844.386 29.3573 844.6 29.72 844.834 30.104C845.09 30.4667 845.357 30.7973 845.634 31.096H848.866ZM873.689 31.096V34.616H870.617V51H866.393V40.92L867.257 42.744C866.916 42.1253 866.51 41.592 866.041 41.144C865.572 40.696 865.038 40.472 864.441 40.472C864.228 40.472 863.982 40.5253 863.705 40.632C863.449 40.7387 863.225 40.9413 863.033 41.24C862.862 41.5387 862.777 41.976 862.777 42.552C862.777 42.744 862.788 42.9253 862.809 43.096C862.83 43.2453 862.852 43.4053 862.873 43.576L859.257 43.8C859.15 43.096 858.937 42.488 858.617 41.976C858.318 41.4427 857.934 41.0373 857.465 40.76C856.996 40.4827 856.43 40.344 855.769 40.344C855.385 40.344 855.044 40.4187 854.745 40.568C854.446 40.696 854.212 40.888 854.041 41.144C853.892 41.4 853.817 41.6987 853.817 42.04C853.817 42.808 854.116 43.4053 854.713 43.832C855.332 44.2587 856.078 44.6107 856.953 44.888L855.737 48.472C854.457 48.1093 853.348 47.6293 852.409 47.032C851.47 46.4133 850.745 45.6773 850.233 44.824C849.721 43.9707 849.465 42.9893 849.465 41.88C849.465 40.8133 849.721 39.896 850.233 39.128C850.766 38.36 851.47 37.7733 852.345 37.368C853.22 36.9413 854.18 36.728 855.225 36.728C856.484 36.728 857.54 36.9413 858.393 37.368C859.246 37.7733 860.132 38.4453 861.049 39.384L860.473 39.16C860.708 38.4133 861.124 37.848 861.721 37.464C862.318 37.08 862.948 36.888 863.609 36.888C864.356 36.888 865.017 37.0373 865.593 37.336C866.19 37.6347 866.745 38.04 867.257 38.552L866.553 39.064C866.51 38.5947 866.468 38.1253 866.425 37.656C866.404 37.1867 866.393 36.7173 866.393 36.248V34.616H848.217V31.096H873.689ZM887.525 50.072C886.032 50.072 884.602 49.8693 883.237 49.464C881.893 49.0587 880.634 48.376 879.461 47.416C878.309 46.456 877.264 45.1547 876.325 43.512C875.386 41.8693 874.576 39.8 873.893 37.304L877.893 36.184C878.64 38.7653 879.45 40.8027 880.325 42.296C881.221 43.768 882.234 44.824 883.365 45.464C884.496 46.0827 885.776 46.392 887.205 46.392C888.229 46.392 889.093 46.2427 889.797 45.944C890.522 45.6453 891.077 45.208 891.461 44.632C891.845 44.056 892.037 43.3627 892.037 42.552C892.037 41.9973 891.973 41.5067 891.845 41.08C891.717 40.6533 891.536 40.2693 891.301 39.928C891.088 39.5867 890.842 39.2987 890.565 39.064L893.893 36.376C894.704 37.464 895.29 38.552 895.653 39.64C896.037 40.728 896.229 41.88 896.229 43.096C896.229 44.4187 895.898 45.6133 895.237 46.68C894.597 47.7253 893.626 48.5573 892.325 49.176C891.045 49.7733 889.445 50.072 887.525 50.072ZM886.405 42.808C884.954 42.808 883.802 42.4667 882.949 41.784C882.117 41.08 881.701 40.1307 881.701 38.936C881.701 38.424 881.765 37.9333 881.893 37.464C882.021 36.9947 882.181 36.568 882.373 36.184L886.149 37.112C886.064 37.304 885.989 37.4853 885.925 37.656C885.882 37.8053 885.861 37.976 885.861 38.168C885.861 38.5733 885.978 38.8613 886.213 39.032C886.448 39.2027 886.746 39.288 887.109 39.288C887.514 39.288 887.877 39.224 888.197 39.096C888.538 38.9467 888.88 38.712 889.221 38.392C889.562 38.0507 889.936 37.5813 890.341 36.984L893.893 36.376L894.053 38.392C893.349 39.3307 892.613 40.1307 891.845 40.792C891.077 41.4533 890.245 41.9547 889.349 42.296C888.474 42.6373 887.493 42.808 886.405 42.808ZM897.701 31.096V34.616H873.061V31.096H897.701ZM907.429 31.096V34.616H904.357V51H900.133V36.792C899.877 36.1307 899.514 35.608 899.045 35.224C898.576 34.8187 897.968 34.616 897.221 34.616H897.061V31.096H897.701C898.192 31.096 898.65 31.224 899.077 31.48C899.504 31.736 899.898 32.28 900.261 33.112C900.24 33.0053 900.208 32.76 900.165 32.376C900.144 31.992 900.133 31.6613 900.133 31.384V28.984H903.589L904.325 31.096H907.429ZM917.148 31.096V34.616H914.076V51H909.852V34.616H906.78V31.096H909.884C909.542 30.712 909.169 30.2747 908.764 29.784C908.38 29.2933 908.038 28.8453 907.74 28.44C908.806 26.712 909.852 25.3573 910.876 24.376C911.921 23.3947 913.02 22.7013 914.172 22.296C915.324 21.8693 916.593 21.656 917.98 21.656C919.004 21.656 919.974 21.7413 920.892 21.912C921.83 22.0827 922.801 22.3813 923.804 22.808C924.828 23.2133 925.958 23.768 927.196 24.472C928.433 25.1547 929.873 26.008 931.516 27.032L929.34 29.88C927.612 28.7707 926.14 27.8747 924.924 27.192C923.708 26.488 922.598 25.976 921.596 25.656C920.593 25.336 919.537 25.176 918.428 25.176C917.425 25.176 916.55 25.368 915.804 25.752C915.057 26.136 914.406 26.616 913.852 27.192C913.318 27.768 912.849 28.3653 912.444 28.984C912.636 29.3253 912.86 29.688 913.116 30.072C913.372 30.456 913.638 30.7973 913.916 31.096H917.148ZM937.266 31.096V34.616H934.194V51H929.97C929.181 49.848 928.221 48.8347 927.09 47.96C925.981 47.0853 924.744 46.36 923.378 45.784C922.013 45.1867 920.53 44.76 918.93 44.504L917.33 40.728C919.293 39.64 921.437 38.5947 923.762 37.592C926.109 36.568 928.413 35.7573 930.674 35.16L930.098 36.216V34.616H916.498V31.096H937.266ZM929.97 38.232L930.642 38.936C929.234 39.3413 927.901 39.8107 926.642 40.344C925.405 40.856 924.093 41.4427 922.706 42.104C923.581 42.2747 924.488 42.5733 925.426 43C926.386 43.4053 927.314 43.9387 928.21 44.6C929.128 45.2613 929.949 46.0293 930.674 46.904L930.066 47.256C930.045 46.7653 930.024 46.2747 930.002 45.784C929.981 45.2933 929.97 44.8133 929.97 44.344V38.232ZM922.258 51.384C921.597 51.384 921.042 51.16 920.594 50.712C920.146 50.2427 919.922 49.6667 919.922 48.984C919.922 48.3013 920.146 47.736 920.594 47.288C921.042 46.8187 921.597 46.584 922.258 46.584C922.941 46.584 923.496 46.8187 923.922 47.288C924.37 47.736 924.594 48.3013 924.594 48.984C924.594 49.6667 924.37 50.2427 923.922 50.712C923.496 51.16 922.941 51.384 922.258 51.384ZM944.659 27.7273L944.216 44.0227H940.057L939.602 27.7273H944.659ZM942.137 51.2955C941.387 51.2955 940.743 51.0303 940.205 50.5C939.667 49.9621 939.402 49.3182 939.409 48.5682C939.402 47.8258 939.667 47.1894 940.205 46.6591C940.743 46.1288 941.387 45.8636 942.137 45.8636C942.856 45.8636 943.489 46.1288 944.034 46.6591C944.58 47.1894 944.856 47.8258 944.864 48.5682C944.856 49.0682 944.724 49.5265 944.466 49.9432C944.216 50.3523 943.887 50.6818 943.477 50.9318C943.068 51.1742 942.621 51.2955 942.137 51.2955Z" fill="white"/>
<defs>
<linearGradient id="paint0_linear_74_56190" x1="0" y1="39.5" x2="992" y2="39.5" gradientUnits="userSpaceOnUse">
<stop stop-color="#FF9D25"/>
<stop offset="0.5" stop-color="white"/>
<stop offset="1" stop-color="#FF9D25"/>
</linearGradient>
</defs>
</svg>
