<svg width="94" height="70" viewBox="0 0 94 70" fill="none" xmlns="http://www.w3.org/2000/svg">
<path d="M75.3111 0.0526207C75.3111 0.0526207 73.6894 -0.32159 70.6332 0.92583C67.6394 2.17325 64.0843 2.42273 62.2755 4.29386C60.4668 6.16499 61.7766 5.79076 58.7827 8.65983C55.7889 11.5913 56.2879 12.4021 57.9096 14.3356C59.4688 16.2691 62.2131 15.9572 65.1446 14.3356C68.076 12.714 75.9348 6.60158 76.7456 4.41859C77.494 2.23561 77.8683 -0.134492 75.3111 0.0526207Z" fill="#B11116"/>
<path d="M26.9735 14.2732C26.9735 14.2732 29.4683 12.7763 32.774 13.4624C36.142 14.1485 37.5142 14.5227 35.0817 16.5186C32.7116 18.5145 28.0962 22.0072 26.5993 23.1299C25.1024 24.2526 23.7302 24.5644 21.7343 23.1299C19.7385 21.6954 19.7385 20.3856 21.7343 18.0155C23.7302 15.583 26.9735 14.2732 26.9735 14.2732Z" fill="#B11116"/>
<path d="M11.256 32.6726C11.256 32.6726 31.9008 21.3211 60.9034 18.1402C86.1013 14.9593 83.544 16.5186 85.4775 17.0799C87.411 17.7036 89.2822 17.8907 91.0286 19.2629C92.7126 20.5727 95.2074 22.4438 91.0286 22.7557C86.8497 23.0675 58.0967 25.5 47.1817 27.0592C36.3292 28.6185 15.6844 33.4211 11.256 32.6726Z" fill="black"/>
<path d="M26.2874 37.8495C26.2874 37.8495 22.0462 43.8995 20.2998 46.7685C18.491 49.7 11.1312 62.486 10.1333 64.1077C9.19775 65.7293 6.01683 70.0953 2.83591 68.037C-0.407386 66.0412 -0.719241 61.0515 1.52612 56.6855C3.77147 52.3819 9.75909 45.2092 10.757 42.1531C11.755 39.0969 11.8797 37.6 16.9318 37.101C21.9838 36.6644 26.2874 37.8495 26.2874 37.8495Z" fill="#B11116"/>
<path d="M56.6621 29.2423C56.6621 29.2423 49.8013 30.8639 46.8075 32.3608C43.8137 33.8577 42.1297 34.5438 39.6348 38.7851C37.0776 43.0263 29.2189 49.9494 26.5993 58.2448C23.9797 66.5401 24.0421 69.4716 26.8488 69.7834C29.6555 70.0953 31.1524 69.7834 31.1524 69.7834C31.1524 69.7834 35.2689 63.2968 36.3292 61.7999C37.3895 60.303 38.325 59.5546 39.7596 57.1221C41.1941 54.6896 43.5642 52.6314 45.3106 48.702C46.9946 44.7726 51.4853 40.1572 53.7307 37.101C55.976 33.9825 60.2796 28.8057 56.6621 29.2423Z" fill="#B11116"/>
</svg>
