<svg width="65" height="20" viewBox="0 0 65 20" fill="none" xmlns="http://www.w3.org/2000/svg">
<path d="M17.9944 3.92258C18.2563 3.92768 18.5165 3.87979 18.7592 3.78182C19.0019 3.68384 19.2221 3.53782 19.4064 3.35261C19.5907 3.1674 19.7353 2.94687 19.8314 2.70439C19.9275 2.46191 19.973 2.20254 19.9653 1.94201C19.9689 1.68439 19.9202 1.42871 19.8222 1.19025C19.7242 0.951793 19.5788 0.735467 19.3948 0.554217C19.2108 0.372968 18.9919 0.23052 18.7513 0.135399C18.5107 0.0402784 18.2532 -0.00556089 17.9944 0.000625283C17.7345 -0.00595591 17.476 0.0394709 17.2341 0.134208C16.9922 0.228946 16.7719 0.371065 16.5863 0.552133C16.4006 0.733201 16.2534 0.949529 16.1534 1.18828C16.0534 1.42703 16.0026 1.68334 16.004 1.94201C15.9952 2.20446 16.0407 2.46591 16.1376 2.71016C16.2345 2.95442 16.3808 3.17626 16.5674 3.36194C16.754 3.54763 16.977 3.6932 17.2224 3.78964C17.4679 3.88608 17.7306 3.93133 17.9944 3.92258ZM19.7309 4.87415H16.2774V15.5912H19.7309V4.87415ZM27.1652 15.8825C27.9455 15.9143 28.7239 15.786 29.4521 15.5054C30.1803 15.2249 30.8427 14.7982 31.398 14.2519C31.9326 13.7289 32.3539 13.1024 32.6358 12.4111C32.9177 11.7199 33.0544 10.9785 33.0372 10.2327C33.0544 9.48683 32.9177 8.74542 32.6358 8.05416C32.3539 7.3629 31.9326 6.73644 31.398 6.21342C30.8464 5.66039 30.1849 5.22796 29.4559 4.94377C28.7268 4.65957 27.9461 4.52987 27.1638 4.56294C26.3817 4.53169 25.6016 4.66224 24.8727 4.94633C24.1439 5.23042 23.4823 5.66188 22.9296 6.21342C22.4014 6.74021 21.9857 7.36781 21.7075 8.05849C21.4292 8.74918 21.2941 9.48871 21.3103 10.2327C21.2941 10.9766 21.4292 11.7161 21.7075 12.4068C21.9857 13.0975 22.4014 13.7251 22.9296 14.2519C23.4863 14.7971 24.1493 15.223 24.8778 15.5035C25.6062 15.7839 26.3847 15.9129 27.1652 15.8825ZM27.1652 12.6789C26.8461 12.6858 26.529 12.6274 26.2336 12.5072C25.9382 12.3869 25.6709 12.2075 25.4482 11.9799C25.2186 11.747 25.0383 11.4706 24.9176 11.1672C24.797 10.8638 24.7386 10.5395 24.7458 10.2133C24.7388 9.89579 24.7975 9.58024 24.9184 9.2863C25.0392 8.99236 25.2195 8.72631 25.4482 8.50473C25.6671 8.271 25.9333 8.08613 26.2293 7.96232C26.5253 7.8385 26.8443 7.77856 27.1652 7.78645C27.4843 7.77947 27.8014 7.83791 28.0968 7.95815C28.3922 8.0784 28.6596 8.25786 28.8823 8.48537C29.1175 8.70701 29.3033 8.97536 29.4277 9.27302C29.552 9.57069 29.6121 9.89103 29.6041 10.2133C29.6113 10.5395 29.5529 10.8638 29.4323 11.1672C29.3117 11.4706 29.1313 11.747 28.9017 11.9799C28.6753 12.208 28.4046 12.3878 28.106 12.5082C27.8074 12.6286 27.4873 12.6872 27.1652 12.6803V12.6789ZM41.2129 4.60355C39.9837 4.60355 38.9496 5.02857 34.7154 4.87556V20H38.1689V14.6982C38.9987 15.4691 40.0983 15.8871 41.2333 15.8632C41.9394 15.8789 42.6404 15.7411 43.2875 15.4594C43.9346 15.1777 44.512 14.7588 44.9796 14.2321C45.976 13.1312 46.5133 11.694 46.4821 10.2128C46.527 8.74467 45.995 7.31695 44.9991 6.23278C44.5261 5.70234 43.9422 5.28145 43.2882 4.99973C42.6342 4.71801 41.9262 4.58229 41.2138 4.60213L41.2129 4.60355ZM42.9688 10.2534C42.9777 10.902 42.7328 11.5285 42.2859 12.0007C42.0655 12.2378 41.7962 12.4247 41.4965 12.5486C41.1968 12.6726 40.8737 12.7307 40.5494 12.719C40.2224 12.7289 39.897 12.6701 39.5944 12.5463C39.2918 12.4225 39.0189 12.2366 38.7934 12.0007C38.3466 11.5285 38.1017 10.902 38.1105 10.2534C38.1001 9.93011 38.1557 9.60805 38.2741 9.30677C38.3924 9.00548 38.5711 8.73126 38.7991 8.50071C39.0271 8.27017 39.2999 8.08811 39.6007 7.96558C39.9016 7.84304 40.2243 7.78258 40.5494 7.78787C40.8734 7.78282 41.1951 7.84353 41.4947 7.96629C41.7944 8.08906 42.0657 8.27131 42.2922 8.50191C42.5187 8.73252 42.6956 9.00663 42.8121 9.30753C42.9286 9.60843 42.9822 9.9298 42.9698 10.252L42.9688 10.2534ZM49.9542 3.92258C50.2161 3.92768 50.4763 3.87979 50.719 3.78182C50.9617 3.68384 51.1819 3.53782 51.3662 3.35261C51.5505 3.1674 51.6951 2.94687 51.7912 2.70439C51.8873 2.46191 51.9328 2.20254 51.9251 1.94201C51.9287 1.68439 51.88 1.42871 51.782 1.19025C51.684 0.951793 51.5386 0.735467 51.3546 0.554217C51.1706 0.372968 50.9517 0.23052 50.7111 0.135399C50.4705 0.0402784 50.213 -0.00556089 49.9542 0.000625283C49.6943 -0.00595591 49.4358 0.0394709 49.1939 0.134208C48.952 0.228946 48.7317 0.371065 48.5461 0.552133C48.3604 0.733201 48.2132 0.949529 48.1132 1.18828C48.0132 1.42703 47.9624 1.68334 47.9638 1.94201C47.955 2.20446 48.0005 2.46591 48.0974 2.71016C48.1943 2.95442 48.3406 3.17626 48.5272 3.36194C48.7138 3.54763 48.9368 3.6932 49.1822 3.78964C49.4277 3.88608 49.6904 3.93133 49.9542 3.92258ZM51.6907 4.87415H48.2372V15.5912H51.6907V4.87415ZM59.1255 15.8825C59.906 15.9145 60.6847 15.7861 61.4132 15.5055C62.1417 15.2249 62.8043 14.798 63.3597 14.2514C63.8943 13.7284 64.3156 13.1019 64.5975 12.4107C64.8794 11.7194 65.0161 10.978 64.9989 10.2322C65.0161 9.48636 64.8794 8.74495 64.5975 8.05369C64.3156 7.36242 63.8943 6.73596 63.3597 6.21295C62.8081 5.65992 62.1466 5.22749 61.4176 4.9433C60.6885 4.6591 59.9078 4.52939 59.1255 4.56247C58.3434 4.53122 57.5633 4.66177 56.8344 4.94586C56.1056 5.22995 55.444 5.6614 54.8913 6.21295C54.3631 6.73972 53.9474 7.36731 53.6691 8.058C53.3908 8.7487 53.2558 9.48823 53.272 10.2322C53.2555 10.9761 53.3903 11.7157 53.6684 12.4064C53.9464 13.0972 54.3619 13.7249 54.8898 14.2519C55.4466 14.7971 56.1096 15.223 56.838 15.5035C57.5665 15.7839 58.345 15.9129 59.1255 15.8825ZM59.1255 12.6789C58.8064 12.6858 58.4893 12.6274 58.1939 12.5072C57.8985 12.3869 57.6311 12.2075 57.4085 11.9799C57.1789 11.747 56.9985 11.4706 56.8779 11.1672C56.7573 10.8638 56.6989 10.5395 56.7061 10.2133C56.6991 9.89579 56.7578 9.58024 56.8786 9.2863C56.9995 8.99236 57.1798 8.72631 57.4085 8.50473C57.6273 8.271 57.8936 8.08613 58.1895 7.96232C58.4855 7.8385 58.8045 7.77856 59.1255 7.78645C59.4446 7.77947 59.7617 7.83791 60.0571 7.95815C60.3525 8.0784 60.6198 8.25786 60.8425 8.48537C61.0778 8.70701 61.2636 8.97536 61.3879 9.27302C61.5123 9.57069 61.5724 9.89103 61.5644 10.2133C61.5716 10.5395 61.5132 10.8638 61.3925 11.1672C61.2719 11.4706 61.0915 11.747 60.862 11.9799C60.6356 12.208 60.3648 12.3878 60.0663 12.5082C59.7677 12.6286 59.4476 12.6872 59.1255 12.6803V12.6789Z" fill="#26404C"/>
<path d="M7.63311 15.8046C8.86365 15.811 10.083 15.5719 11.2191 15.1014C12.3552 14.631 13.3851 13.9388 14.2478 13.0656V6.85285L7.67202 9.96066H10.95V11.2031C10.0371 11.9484 8.89169 12.3536 7.71094 12.3488C7.1739 12.371 6.63829 12.2786 6.14017 12.0776C5.64204 11.8767 5.19295 11.5719 4.8231 11.1838C4.10699 10.4291 3.71533 9.42593 3.73157 8.3881C3.71905 7.87173 3.81104 7.35812 4.00207 6.87784C4.19309 6.39757 4.47925 5.96043 4.84351 5.59244C5.21676 5.21673 5.6646 4.92253 6.15846 4.72861C6.65232 4.53469 7.18138 4.4453 7.71189 4.46615C8.97053 4.46595 10.1829 4.93813 11.107 5.78842L13.4292 3.08957C11.863 1.71469 9.83963 0.967481 7.75128 0.992819C5.69846 0.933493 3.70581 1.68688 2.21053 3.08768C1.48735 3.77415 0.917206 4.60417 0.537041 5.52394C0.156876 6.44371 -0.0248224 7.43271 0.00372187 8.42683C-0.0280975 9.40846 0.14439 10.386 0.510353 11.2982C0.876317 12.2103 1.42785 13.0373 2.13033 13.7272C2.86166 14.4216 3.72537 14.9632 4.67048 15.32C5.61559 15.6768 6.62295 15.8416 7.63311 15.8046Z" fill="#FF9040"/>
</svg>
