<svg width="81" height="73" viewBox="0 0 81 73" fill="none" xmlns="http://www.w3.org/2000/svg">
<g clip-path="url(#clip0_74_56139)">
<path d="M70.651 12.633C68.5007 14.3023 67.7894 18.1899 67.7894 18.1899C58.3297 65.5591 22.253 50.2046 22.253 50.2046C22.253 50.2046 16.371 11.5099 64.5581 14.0275C64.5743 14.0483 68.5007 14.3023 70.651 12.633Z" fill="#169E3B"/>
<path d="M67.6594 14.9555L22.6975 50.777L22.7805 50.7125C20.9372 52.6271 19.1158 54.4414 17.1674 56.2207C16.648 56.6239 16.2013 57.1208 15.698 57.5448L14.9189 58.1496C14.6592 58.3512 14.3995 58.5529 14.1398 58.7545L12.5505 59.9883C12.2804 60.1979 12 60.4157 11.6549 60.5502L10 61.4998L9.97674 59.418L10.7455 58.9714C10.9844 58.7859 11.2695 58.6813 11.535 58.5085L13.0712 57.3993C13.3205 57.2058 13.5698 57.0122 13.8295 56.8106L14.5879 56.2219C15.0865 55.8348 15.6267 55.4155 16.048 54.9717C18.0448 53.2548 19.8963 51.5006 21.7281 49.6784L21.8008 49.6219L67.6594 14.9555Z" fill="#386845"/>
<path d="M30.8767 43.0609C30.8767 43.0609 31.1366 41.9587 31.3699 40.2433C31.4886 39.2712 31.5576 38.2936 31.5767 37.3143C31.549 36.7854 31.5629 36.2243 31.5063 35.7011C31.4498 35.178 31.3449 34.5923 31.2295 34.0148C31.1132 33.4424 31.0258 32.8646 30.9677 32.2836C30.8892 31.7107 30.8766 31.1368 30.8305 30.6056C30.7613 29.5085 30.7567 28.4948 30.7626 27.623C30.8066 25.9211 30.8828 24.7112 30.8828 24.7112C30.8828 24.7112 30.8216 25.8761 30.9045 27.6128C30.946 28.4812 31.006 29.502 31.1248 30.5772C31.1894 31.1108 31.2309 31.679 31.3405 32.2276C31.4229 32.7953 31.5373 33.358 31.6831 33.9129C31.8192 34.4743 31.9266 35.0414 32.05 35.6293C32.1378 36.1929 32.1952 36.7607 32.2218 37.3304C32.2536 38.3382 32.2308 39.3469 32.1535 40.3521C32.0819 41.2249 31.9999 41.9556 31.9271 42.4623L31.799 43.2623L30.8767 43.0609Z" fill="#386845"/>
<path d="M34.4262 40.3029C34.4262 40.3029 34.686 39.2007 34.9193 37.4853C35.038 36.5132 35.1069 35.5355 35.1261 34.5562C35.0984 34.0274 35.1123 33.4662 35.0558 32.9431C34.9993 32.4199 34.8943 31.8343 34.7789 31.2568C34.6626 30.6844 34.5752 30.1066 34.5171 29.5255C34.4386 28.9527 34.4156 28.3868 34.3798 27.8476C34.3107 26.7505 34.3062 25.7367 34.312 24.8649C34.356 23.163 34.4219 21.9612 34.4219 21.9612C34.4219 21.9612 34.371 23.1181 34.4539 24.8548C34.485 25.7313 34.5554 26.744 34.6742 27.8192C34.7388 28.3528 34.7803 28.921 34.8899 29.4696C34.9723 30.0373 35.0867 30.5999 35.2325 31.1548C35.3687 31.7162 35.476 32.2834 35.5994 32.8713C35.7229 33.4592 35.7274 34.0227 35.7712 34.5724C35.8012 35.6832 35.7665 36.7108 35.7029 37.594C35.6394 38.4772 35.5493 39.1976 35.4661 39.7124L35.3484 40.5043L34.4262 40.3029Z" fill="#386845"/>
<path d="M37.9809 37.545C37.9809 37.545 38.2407 36.4429 38.4636 34.7355C38.5909 33.7614 38.6634 32.7808 38.6808 31.7984C38.6531 31.2696 38.6566 30.7165 38.6105 30.1852C38.5644 29.654 38.449 29.0765 38.3336 28.4989C38.2173 27.9266 38.13 27.3488 38.0718 26.7677C37.9934 26.1948 37.9703 25.629 37.9345 25.0897C37.8654 23.9927 37.8609 22.9789 37.8667 22.1071C37.9107 20.4052 37.9766 19.2034 37.9766 19.2034C37.9766 19.2034 37.9257 20.3603 38.0086 22.097C38.0397 22.9734 38.1101 23.9862 38.2185 25.0694C38.2935 25.5949 38.335 26.1631 38.4446 26.7118C38.5542 27.2604 38.6326 27.8333 38.7768 28.4051C38.9211 28.9769 39.0307 29.5256 39.1541 30.1135C39.2776 30.7014 39.2821 31.2649 39.3259 31.8146C39.3558 32.9254 39.3212 33.953 39.2576 34.8362C39.1941 35.7194 39.104 36.4397 39.0209 36.9545L38.8927 37.7545L37.9809 37.545Z" fill="#386845"/>
<path d="M41.5227 34.7949C41.7136 33.9714 41.8617 33.1384 41.9662 32.2993C42.0798 31.4459 42.1464 30.5869 42.166 29.726C42.1499 29.2549 42.1546 28.7676 42.1038 28.2733L41.8777 26.7811L41.662 25.2809C41.5961 24.7881 41.5611 24.2917 41.5571 23.7946C41.5007 22.8212 41.4638 21.9158 41.4846 21.1492C41.5055 20.3825 41.5124 19.7267 41.5494 19.2811L41.5898 18.5825L41.5863 19.2858C41.5782 19.7257 41.6001 20.3757 41.6347 21.1494C41.6692 21.9231 41.7049 22.7626 41.8434 23.7559C41.8832 24.26 41.9552 24.7611 42.0591 25.2561L42.3371 26.708L42.6151 28.1599C42.7005 28.6774 42.7305 29.1878 42.7893 29.6925C42.8217 30.585 42.8039 31.4785 42.736 32.3688C42.6159 33.9297 42.4207 34.9651 42.4207 34.9651L41.5227 34.7949Z" fill="#386845"/>
<path d="M45.1958 32.0615C45.3621 31.3187 45.4904 30.5679 45.5803 29.8118C45.6782 29.0439 45.7341 28.2712 45.7478 27.4971C45.727 27.0629 45.7352 26.623 45.6775 26.1841L45.4618 24.8339L45.2564 23.4757C45.1906 23.0332 45.1556 22.5868 45.1515 22.1396C45.0916 21.2689 45.0616 20.4582 45.0836 19.7574C45.1056 19.0565 45.0906 18.5011 45.1068 18.0716L45.1484 17.439L45.1357 18.0659C45.1218 18.4769 45.1345 19.0508 45.154 19.7194C45.1687 20.5073 45.2237 21.294 45.3189 22.0763C45.3519 22.5181 45.4097 22.9576 45.4919 23.393L45.7653 24.7316L46.0445 26.0993C46.1184 26.559 46.1368 27.0116 46.176 27.4481C46.1996 28.2468 46.181 29.0462 46.1204 29.8428C46.0026 31.2351 45.8213 32.1597 45.8213 32.1597L45.1958 32.0615Z" fill="#386845"/>
<path d="M48.7486 29.3035C48.7486 29.3035 48.9322 28.5106 49.1354 27.3355C49.2116 26.726 49.2625 26.0194 49.2833 25.2528C49.2637 24.8844 49.2776 24.4734 49.2233 24.0819L49.0365 22.8761L48.8519 21.6518C48.795 21.2562 48.7635 20.8573 48.7574 20.4577C48.7147 19.6737 48.6836 18.9473 48.746 18.2985C48.8084 17.6497 48.7576 17.1555 48.7934 16.7941L48.8281 16.2168L48.8223 16.7884C48.805 17.1521 48.8245 17.6705 48.851 18.2837C48.8775 18.8968 48.9271 19.6256 49.0194 20.3878C49.0456 20.7847 49.0964 21.1797 49.1716 21.5704L49.4243 22.7752L49.6747 23.9983C49.745 24.4107 49.76 24.8161 49.8038 25.2157C49.8176 26.0055 49.8013 26.7351 49.7828 27.3332C49.6812 28.5962 49.5218 29.4204 49.5218 29.4204L48.7486 29.3035Z" fill="#386845"/>
<path d="M52.2998 26.5456C52.2998 26.5456 52.4591 25.8716 52.6277 24.8234C52.7038 24.2347 52.7498 23.6424 52.7652 23.0489C52.7491 22.7279 52.7537 22.3908 52.7111 22.057L52.5669 21.0349L52.4065 19.992C52.3453 19.6559 52.3627 19.2922 52.3281 18.9689C52.2981 18.3083 52.282 17.6871 52.3017 17.1548C52.3213 16.6225 52.3191 16.1907 52.348 15.8848L52.3711 15.3999L52.3768 15.879C52.3664 16.1873 52.3767 16.6296 52.4044 17.1584C52.4212 17.7551 52.4721 18.3505 52.5566 18.9415C52.5779 19.2776 52.6207 19.6121 52.6847 19.9429L52.9027 20.9743L53.1208 22.0058C53.1901 22.3523 53.2015 22.7103 53.2361 23.0336C53.2602 23.6485 53.249 24.2641 53.2025 24.8775C53.1598 25.4971 53.0826 26.1137 52.9715 26.7246L52.2998 26.5456Z" fill="#386845"/>
<path d="M55.9522 23.8096C55.9522 23.8096 56.07 23.3179 56.1751 22.5526C56.2236 22.1647 56.2606 21.719 56.2733 21.2421C56.2767 20.9936 56.2671 20.745 56.2445 20.4974L56.1234 19.7409L56.0126 18.9763C55.9784 18.7216 55.9572 18.4652 55.9492 18.2084C55.9169 17.7164 55.8985 17.2638 55.91 16.8712C55.9216 16.4786 55.9159 16.1496 55.9436 15.9279L55.9609 15.5642L55.9621 15.9303C55.9529 16.1542 55.969 16.4753 55.9863 16.8621C55.9978 17.309 56.0328 17.7549 56.0912 18.1982C56.1079 18.4418 56.1403 18.684 56.188 18.9235L56.3461 19.6847L56.5122 20.4563C56.5538 20.7243 56.5607 20.9691 56.5941 21.2266C56.6276 21.4841 56.5872 22.1827 56.5571 22.5729C56.4948 23.3718 56.4012 23.8947 56.4012 23.8947L55.9522 23.8096Z" fill="#386845"/>
<path d="M59.5051 21.0517C59.5051 21.0517 59.601 20.6604 59.683 20.0798C59.7199 19.7842 59.7431 19.4494 59.7708 19.0777L59.7293 18.5095C59.7051 18.3282 59.7039 18.1123 59.6716 17.9206L59.577 17.3268C59.5512 17.1323 59.5381 16.9364 59.5378 16.7402C59.5169 16.393 59.5134 16.045 59.5275 15.6976C59.5207 15.3579 59.535 15.0182 59.5703 14.6804C59.5703 14.6804 59.5564 15.0915 59.5933 15.6966C59.6037 15.9887 59.6337 16.349 59.6821 16.7117C59.7306 17.0743 59.7097 17.0904 59.7605 17.2845L59.8921 17.8828L59.997 18.4684L60.0813 19.0701C60.0801 19.4546 60.0916 19.8126 60.0708 20.1289C60.0211 20.7512 59.9622 21.1472 59.9622 21.1472L59.5051 21.0517Z" fill="#386845"/>
<path d="M63.1669 18.326L63.2511 17.877L63.2985 17.4233L63.2524 16.8921C63.2128 16.5594 63.192 16.2247 63.1901 15.8897L63.2109 15.4233L63.2294 15.8759C63.255 16.2095 63.3013 16.5413 63.3678 16.8692L63.459 17.4155C63.4462 17.5922 63.4543 17.7526 63.4543 17.9027C63.4543 18.0528 63.3966 18.3645 63.3966 18.3645L63.1669 18.326Z" fill="#386845"/>
<path d="M27.6445 45.5689C27.6445 45.5689 27.8558 44.7044 28.0406 43.3769C28.1401 42.6159 28.2014 41.8503 28.2243 41.083C28.2093 40.6776 28.2175 40.2378 28.1679 39.8093L27.9683 38.4799L27.771 37.1321C27.7115 36.6925 27.6791 36.2498 27.6742 35.8064C27.6202 35.0239 27.6056 34.2393 27.6305 33.4554C27.6398 32.7811 27.6456 32.2096 27.6537 31.7697L27.6953 31.137L27.6907 31.7743C27.6791 32.1669 27.7021 32.7327 27.7298 33.4117C27.7574 34.0907 27.8266 34.8875 27.8785 35.7478C27.9125 36.1835 27.9711 36.6168 28.0538 37.046L28.3376 38.3766L28.6295 39.7177C28.7033 40.1774 28.7322 40.622 28.7714 41.0585C28.8025 41.9349 28.769 42.7281 28.7366 43.4371C28.6866 44.2086 28.5937 44.9767 28.4583 45.7378L27.6445 45.5689Z" fill="#386845"/>
<path d="M24.4034 48.0851C24.5525 47.4464 24.6677 46.8003 24.7487 46.1494C24.8313 45.4952 24.876 44.8369 24.8827 44.1774C24.8712 43.8195 24.8804 43.4454 24.8343 43.0643L24.6798 41.9002L24.5171 40.7255C24.4603 40.3397 24.4306 39.9503 24.4284 39.5604C24.3839 38.8784 24.3755 38.1947 24.4031 37.512C24.3954 37.029 24.4151 36.5459 24.4621 36.0652L24.4922 35.5249L24.4991 36.0699C24.4841 36.4151 24.5059 36.9152 24.5347 37.5099C24.5635 38.1046 24.6281 38.7882 24.7146 39.5216C24.7711 39.8946 24.7803 40.2711 24.8738 40.6488L25.1311 41.8166L25.378 42.9925C25.4588 43.3967 25.476 43.7836 25.5222 44.1647C25.5458 44.8606 25.5307 45.5571 25.477 46.2511C25.4378 46.93 25.3626 47.6063 25.2517 48.2771L24.4034 48.0851Z" fill="#386845"/>
<path d="M31.3513 42.69L32.1581 42.7642C32.6752 42.8298 33.3953 42.9211 34.2586 43.0681C35.2515 43.2424 36.2344 43.4704 37.2029 43.7511C37.7326 43.9402 38.2854 44.0947 38.8082 44.3393C39.3311 44.5838 39.87 44.8493 40.3801 45.1203C40.8802 45.4018 41.3971 45.6522 41.9278 45.8701C42.4321 46.1123 42.9723 46.2934 43.4732 46.4883C44.4854 46.8699 45.4595 47.1811 46.2904 47.4366C47.9524 47.9475 49.0961 48.177 49.0961 48.177C49.0961 48.177 47.9454 48.0029 46.2534 47.582C45.3994 47.3611 44.4184 47.1053 43.3728 46.7663C42.8696 46.59 42.3167 46.4354 41.7812 46.2174C41.2315 46.02 40.6932 45.7919 40.1689 45.5344C39.638 45.2795 39.1025 45.0615 38.6039 44.8482C38.1053 44.6349 37.5479 44.5172 37.0585 44.3801C36.0094 44.1439 35.0503 43.9378 34.1697 43.8543C32.45 43.6549 31.3178 43.6334 31.3178 43.6334L31.3513 42.69Z" fill="#386845"/>
<path d="M34.9046 39.932L35.701 40.0143C36.2285 40.0718 36.9486 40.1631 37.8119 40.3101C38.6752 40.4571 39.7394 40.6483 40.7562 40.9931C41.2859 41.1822 41.8283 41.3448 42.3615 41.5813C42.8948 41.8178 43.4234 42.0912 43.9335 42.3623C44.4335 42.6437 44.9504 42.8941 45.4811 43.1121C45.9854 43.3543 46.5256 43.5354 47.0265 43.7302C48.0387 44.1119 49.0024 44.4311 49.8437 44.6785C51.5057 45.1895 52.6391 45.427 52.6391 45.427C52.6391 45.427 51.4987 45.2448 49.8068 44.8239C48.9527 44.603 47.9717 44.3473 46.9261 44.0083C46.4125 43.84 45.87 43.6774 45.3345 43.4594C44.7848 43.262 44.2465 43.0339 43.7222 42.7764C43.1913 42.5214 42.6558 42.3035 42.1573 42.0901C41.6587 41.8768 41.1012 41.7592 40.6118 41.6221C39.5627 41.3859 38.6036 41.1798 37.723 41.0962C36.0033 40.8969 34.8711 40.8753 34.8711 40.8753L34.9046 39.932Z" fill="#386845"/>
<path d="M38.449 37.182L39.2558 37.2562C39.7832 37.3137 40.5033 37.405 41.3666 37.552C42.2299 37.699 43.2421 37.9306 44.3109 38.235C44.8406 38.4242 45.383 38.5867 45.9162 38.8232C46.4494 39.0597 46.978 39.3331 47.4778 39.6123C47.9841 39.886 48.5042 40.1335 49.0358 40.354C49.5402 40.5962 50.0804 40.7773 50.5709 40.9802C51.5934 41.3538 52.5571 41.6731 53.3984 41.9205C55.0604 42.4315 56.1938 42.669 56.1938 42.669C56.1938 42.669 55.0534 42.4868 53.3615 42.0658C52.5074 41.8449 51.5264 41.5893 50.4807 41.2503C49.9672 41.0819 49.4248 40.9193 48.8892 40.7013C48.3396 40.5039 47.8012 40.2758 47.2769 40.0183C46.746 39.7634 46.2105 39.5454 45.7119 39.3321C45.2134 39.1187 44.6559 39.0012 44.1665 38.864C43.2096 38.6416 42.2419 38.4688 41.2673 38.3462C39.558 38.1389 38.4258 38.1173 38.4258 38.1173L38.449 37.182Z" fill="#386845"/>
<path d="M42.0009 34.424C42.0009 34.424 43.0524 34.4916 44.5943 34.7622C45.4728 34.9213 46.3426 35.1255 47.2003 35.3741C47.6585 35.5354 48.1455 35.691 48.6418 35.9228L49.9794 36.5521L51.317 37.1815C51.7708 37.4048 52.2385 37.5988 52.717 37.7624C53.6126 38.1011 54.4551 38.4144 55.1903 38.6108C55.9255 38.8072 56.5556 39.0185 56.9838 39.1198L57.6659 39.2907L56.9792 39.1567C56.5383 39.082 55.9093 38.9366 55.1534 38.7563C54.3974 38.576 53.5457 38.3366 52.6166 38.0406C52.1195 37.8908 51.6313 37.713 51.1543 37.508L49.7543 36.9271L48.3648 36.3381C47.9066 36.1768 47.4253 36.05 46.9729 35.9176C46.134 35.7232 45.2853 35.5748 44.4303 35.4732C43.5916 35.3664 42.7479 35.3033 41.9027 35.284L42.0009 34.424Z" fill="#386845"/>
<path d="M45.5471 31.7872C45.5471 31.7872 46.4877 31.8408 47.8658 32.0719C48.6526 32.2106 49.4316 32.3908 50.1995 32.6117C50.6127 32.7579 51.0466 32.888 51.4736 33.0735L52.7293 33.6831L53.9665 34.2903C54.3624 34.4999 54.7987 34.6116 55.1911 34.7739C55.9254 35.0601 56.6739 35.3085 57.4335 35.518C58.0925 35.7235 58.6454 35.8781 59.0309 35.9457L59.6414 36.0888L59.0182 35.9723C58.6142 35.9023 58.0591 35.7662 57.3793 35.5768C56.6995 35.3874 55.917 35.1943 55.0964 34.9308C54.6624 34.809 54.2361 34.661 53.8199 34.4875L52.555 33.9518L51.3005 33.4081C50.8917 33.2593 50.4757 33.1314 50.054 33.0249C49.298 32.8431 48.5329 32.7022 47.7619 32.6028C47.0072 32.5024 46.248 32.4405 45.4871 32.4175L45.5471 31.7872Z" fill="#386845"/>
<path d="M49.0998 29.0293C49.0998 29.0293 49.9376 29.0793 51.1864 29.294C51.8016 29.4001 52.5125 29.5653 53.2431 29.7987C53.6193 29.9402 54.0083 30.0552 54.3903 30.2256L55.5133 30.7714L56.6177 31.3149C56.9776 31.4847 57.3477 31.6319 57.7257 31.7556C58.4413 32.034 59.1568 32.3123 59.7223 32.4404C60.2879 32.5684 60.8072 32.7656 61.1639 32.839L61.719 32.975L61.1592 32.8759C60.7922 32.8106 60.3006 32.692 59.69 32.5489C59.0795 32.4058 58.3916 32.206 57.593 31.9921C57.2074 31.8872 56.8288 31.7577 56.4596 31.6045L55.3193 31.1221L54.1976 30.6421C53.8317 30.4925 53.43 30.404 53.078 30.2937C52.3301 30.1238 51.633 29.9979 51.0237 29.9206C49.8026 29.7845 49.0212 29.8074 49.0212 29.8074L49.0998 29.0293Z" fill="#386845"/>
<path d="M52.6547 26.2713C53.2741 26.3151 53.8906 26.3933 54.5013 26.5055C55.1072 26.6126 55.7064 26.7544 56.2961 26.9301C56.6088 27.0542 56.9446 27.1437 57.2632 27.2967L58.2085 27.7637L59.1536 28.2307C59.4569 28.3776 59.7705 28.502 60.0919 28.6029C60.6435 28.8314 61.2077 29.0283 61.7816 29.1925C62.2871 29.3504 62.713 29.4701 63.0142 29.5365L63.477 29.6608L63.0015 29.563C62.698 29.5151 62.2594 29.4219 61.7596 29.2929C61.2599 29.1639 60.6413 29.0104 60.0088 28.8176C59.7041 28.7039 59.3475 28.6305 59.037 28.4879L58.0664 28.0741L57.112 27.6809C56.7992 27.5568 56.4714 27.4778 56.1644 27.3825C55.5856 27.2504 55.0004 27.148 54.4113 27.0758C53.3852 26.955 52.6616 26.9664 52.6616 26.9664L52.6547 26.2713Z" fill="#386845"/>
<path d="M56.1926 23.6241C56.1926 23.6241 56.7225 23.6632 57.5119 23.8008C57.8974 23.8684 58.344 23.972 58.8333 24.1091C59.3227 24.2462 59.3019 24.2624 59.5512 24.369L60.2575 24.7212L60.9558 25.0631C61.1843 25.1859 61.4197 25.2533 61.6425 25.3472C62.0903 25.5165 62.522 25.6651 62.9028 25.7697C63.2837 25.8743 63.5803 25.9776 63.7996 26.0242L64.1538 26.116L63.7972 26.0426C63.5756 26.0145 63.2582 25.9274 62.875 25.8413C62.4919 25.7551 62.0579 25.625 61.5894 25.4718C61.3444 25.407 61.1038 25.3264 60.8692 25.2304L60.156 24.9335L59.4531 24.6286C59.2188 24.5453 58.9804 24.4744 58.7387 24.4161C58.2736 24.3102 57.8327 24.2356 57.4449 24.1864C56.6774 24.0984 56.1719 24.0906 56.1719 24.0906L56.1926 23.6241Z" fill="#386845"/>
<path d="M59.7019 20.8984C59.7019 20.8984 60.1001 20.9395 60.7152 21.0457C61.0269 21.104 61.3708 21.2039 61.7436 21.2981L62.3057 21.5288C62.4936 21.604 62.677 21.6899 62.855 21.7861L63.394 22.0515C63.5694 22.1488 63.7518 22.1907 63.9296 22.2695C64.1073 22.3483 64.6105 22.5247 64.8909 22.6072C65.468 22.7929 65.8696 22.8814 65.8696 22.8814C65.5369 22.8331 65.2071 22.7663 64.8817 22.6811C64.5805 22.6147 64.2365 22.5148 63.866 22.4022C63.676 22.3533 63.4894 22.2921 63.3074 22.2188L62.7558 21.9799C62.578 21.9011 62.3691 21.8464 62.1995 21.778L61.6593 21.597C61.2923 21.5317 60.9623 21.471 60.6668 21.4336C60.084 21.369 59.6812 21.3648 59.6812 21.3648L59.7019 20.8984Z" fill="#386845"/>
<path d="M63.2927 18.2294L63.7625 18.2984L64.2275 18.4043L64.7343 18.6281C65.0355 18.7739 65.3453 18.9009 65.6622 19.0084L66.0961 19.1385L65.639 19.043C65.315 18.9582 64.9959 18.8551 64.6834 18.7342L64.1802 18.5577L63.7289 18.4912L63.2731 18.4615L63.2927 18.2294Z" fill="#386845"/>
<path d="M28.1108 45.2061C28.8903 45.2713 29.6662 45.3759 30.4353 45.5196C31.225 45.6613 32.0067 45.8449 32.777 46.0699C33.1983 46.2265 33.6322 46.3566 34.0673 46.5525L35.353 47.2222L36.5902 47.8294C36.987 48.0215 37.3952 48.1892 37.8124 48.3315C38.6099 48.6296 39.3624 48.9127 40.0549 49.0755C40.5756 49.2496 41.1054 49.3951 41.6418 49.5113L42.25 49.6729L41.6269 49.5563C41.231 49.4967 40.6654 49.3688 39.9775 49.169C39.2897 48.9692 38.5234 48.7969 37.6843 48.531C37.2499 48.4155 36.8228 48.2736 36.4056 48.1062L35.1406 47.5705L33.8838 47.0452C33.4729 46.8806 33.0343 46.7874 32.6373 46.662C31.8156 46.4828 31.0261 46.3451 30.3509 46.2688C28.9821 46.114 28.0923 46.1044 28.0923 46.1044L28.1108 45.2061Z" fill="#386845"/>
<path d="M24.8829 47.7139C25.5603 47.7728 26.2341 47.8678 26.9015 47.9981C27.5872 48.1182 28.2657 48.2762 28.9339 48.4716C29.2917 48.6108 29.6622 48.7235 30.0338 48.9019L31.1118 49.4326L32.1793 49.9714C32.522 50.1556 32.8845 50.2578 33.2319 50.4051C33.9209 50.6707 34.5672 50.9029 35.1362 51.0782C35.7052 51.2536 36.1842 51.3987 36.5223 51.4697L37.0486 51.6115L36.5177 51.5067C36.0403 51.4331 35.5676 51.3324 35.1016 51.2051C34.4333 51.0627 33.773 50.885 33.1234 50.6728C32.7501 50.574 32.383 50.4522 32.0246 50.3083L30.919 49.8491L29.8295 49.4107C29.4717 49.2716 29.107 49.1878 28.7631 49.0879C28.1226 48.9308 27.4737 48.8109 26.8195 48.7288C26.1688 48.6458 25.5142 48.5973 24.8585 48.5834L24.8829 47.7139Z" fill="#386845"/>
</g>
<defs>
<clipPath id="clip0_74_56139">
<rect width="31.9725" height="77.0247" fill="white" transform="translate(60.8438) rotate(52.1776)"/>
</clipPath>
</defs>
</svg>
