<svg width="247" height="52" viewBox="0 0 247 52" fill="none" xmlns="http://www.w3.org/2000/svg">
<g clip-path="url(#clip0_343_92375)">
<path d="M246.24 1.27588H0.759766V50.7242H246.24V1.27588Z" stroke="#F7DB0C" stroke-width="2.18275" stroke-miterlimit="10"/>
<path d="M72.7559 23.564V5.85022H75.9708V13.1585H84.5217V5.85022H87.7336V23.564H84.5095V16.0074H75.9586V23.564H72.7559Z" fill="#B11116"/>
<path d="M96.4304 10.5579C100.296 10.5579 102.228 12.573 102.228 16.6031C102.228 17.1419 102.192 17.6801 102.119 18.2138H93.6652C93.6652 20.0447 94.982 20.9612 97.6155 20.9633C98.9095 20.9625 100.2 20.8378 101.472 20.5909V23.207C100.122 23.4769 98.7478 23.6017 97.3724 23.5794C92.7577 23.5794 90.4493 21.3616 90.4473 16.9259C90.4493 12.6805 92.4437 10.5579 96.4304 10.5579ZM93.6652 15.9328H99.0984V15.8335C99.0984 14.0336 98.2091 13.1336 96.4304 13.1336C94.7328 13.1336 93.8111 14.0667 93.6652 15.9328Z" fill="#B11116"/>
<path d="M104.641 23.5639V10.5579H107.126L107.527 12.2181C108.644 11.1113 109.824 10.5579 111.067 10.5579V13.2081C109.87 13.2081 108.799 13.716 107.853 14.7318V23.5639H104.641Z" fill="#B11116"/>
<path d="M116.1 5.85022V8.4539H112.888V5.85022H116.1ZM116.1 10.558V23.564H112.888V10.558H116.1Z" fill="#B11116"/>
<path d="M118.943 8.45386H121.323L121.806 10.5579H125.021V13.1585H122.164V19.1417C122.164 20.3541 122.678 20.9613 123.705 20.9634H125.021V23.5639H122.158C120.023 23.5639 118.956 22.395 118.956 20.0572L118.943 8.45386Z" fill="#B11116"/>
<path d="M126.592 19.514C126.592 16.9279 128.434 15.6349 132.119 15.6349C132.991 15.636 133.861 15.7191 134.717 15.8832V14.9056C134.717 13.7429 133.896 13.1605 132.253 13.1584C130.691 13.1816 129.137 13.3899 127.622 13.7791V11.1785C129.137 10.7893 130.691 10.581 132.253 10.5579C136.039 10.5579 137.931 11.9864 137.929 14.8435V23.5639H136.063L134.921 22.397C133.848 23.1645 132.569 23.5723 131.259 23.5639C128.148 23.5639 126.592 22.2139 126.592 19.514ZM132.119 17.8662C130.576 17.8662 129.804 18.4031 129.804 19.4768C129.804 20.6312 130.451 21.2085 131.745 21.2085C132.817 21.2067 133.86 20.8507 134.717 20.1937V18.1145C133.862 17.9434 132.991 17.8602 132.119 17.8662Z" fill="#B11116"/>
<path d="M152.326 22.5863C152.326 26.3848 150.09 28.284 145.62 28.284C144.205 28.3072 142.796 28.0977 141.447 27.6634V25.0628C142.805 25.4945 144.222 25.704 145.644 25.6834C147.957 25.6834 149.113 24.6925 149.111 22.7105C148.136 23.1281 147.087 23.3392 146.03 23.3311C142.248 23.3311 140.356 21.2209 140.354 17.0003C140.354 12.7157 142.558 10.5734 146.966 10.5734C148.764 10.6023 150.556 10.7798 152.326 11.104V22.5863ZM149.111 13.5215C148.386 13.2897 147.628 13.1847 146.868 13.2112C144.64 13.2112 143.526 14.4618 143.526 16.9631C143.526 19.3837 144.484 20.594 146.4 20.594C147.341 20.5894 148.267 20.3598 149.105 19.9237L149.111 13.5215Z" fill="#B11116"/>
<path d="M160.728 10.5579C164.593 10.5579 166.526 12.573 166.526 16.6031C166.526 17.1419 166.489 17.6801 166.417 18.2138H157.966C157.966 20.0447 159.283 20.9612 161.916 20.9633C163.21 20.9625 164.501 20.8378 165.772 20.5909V23.207C164.422 23.4768 163.049 23.6016 161.673 23.5794C157.058 23.5794 154.75 21.3616 154.748 16.9259C154.75 12.6805 156.743 10.5579 160.728 10.5579ZM157.966 15.9328H163.399V15.8335C163.399 14.0336 162.509 13.1336 160.728 13.1336C159.033 13.1336 158.112 14.0667 157.966 15.9328Z" fill="#B11116"/>
<path d="M174.7 23.564V5.85022H181.492C187.231 5.85022 190.101 8.64321 190.103 14.2292C190.103 20.4565 187.233 23.5702 181.492 23.5702L174.7 23.564ZM181.492 20.7244C185.089 20.7244 186.888 18.5604 186.888 14.2323C186.888 10.5517 185.089 8.71045 181.492 8.70838H177.915V20.7244H181.492Z" fill="#B11116"/>
<path d="M191.924 19.514C191.924 16.9279 193.766 15.6349 197.451 15.6349C198.323 15.636 199.193 15.7191 200.049 15.8832V14.9056C200.049 13.7429 199.228 13.1605 197.585 13.1584C196.023 13.1816 194.469 13.3899 192.954 13.7791V11.1785C194.469 10.7893 196.023 10.581 197.585 10.5579C201.371 10.5579 203.263 11.9864 203.261 14.8435V23.5639H201.395L200.253 22.397C199.18 23.1645 197.901 23.5723 196.591 23.5639C193.48 23.5639 191.924 22.2139 191.924 19.514ZM197.451 17.8662C195.908 17.8662 195.136 18.4031 195.136 19.4768C195.136 20.6312 195.783 21.2085 197.077 21.2085C198.149 21.2067 199.192 20.8507 200.049 20.1937V18.1145C199.194 17.9434 198.323 17.8602 197.451 17.8662Z" fill="#B11116"/>
<path d="M209.497 5.85022V8.4539H206.294V5.85022H209.497ZM209.497 10.558V23.564H206.294V10.558H209.497Z" fill="#B11116"/>
<path d="M212.535 23.5639V10.5579H215.024L215.422 12.2181C216.536 11.1113 217.717 10.5579 218.965 10.5579V13.2081C218.354 13.2167 217.752 13.3569 217.198 13.6195C216.644 13.882 216.151 14.2611 215.75 14.7318V23.5639H212.535Z" fill="#B11116"/>
<path d="M219.271 10.5579H222.678L225.905 19.9206L229.044 10.5579H232.386L227.099 23.9456C226.161 26.3083 224.661 27.9892 222.599 28.9885L221.043 26.7448C222.426 26.1495 223.536 25.0404 224.149 23.6415L219.271 10.5579Z" fill="#B11116"/>
<path d="M99.0564 30.2051V32.424H92.6143V35.9307H98.7312V38.2396H92.587V44.1359H90.1074V30.2051H99.0564Z" fill="#231F20"/>
<path d="M100.484 39.0123C100.484 35.5862 102.136 33.8732 105.44 33.8732C108.745 33.8732 110.397 35.5862 110.397 39.0123C110.397 42.4301 108.745 44.139 105.44 44.139C102.136 44.139 100.484 42.4301 100.484 39.0123ZM105.44 42.1746C107.061 42.1746 107.871 41.107 107.871 38.9719C107.871 36.8906 107.061 35.8489 105.44 35.8469C103.82 35.8448 103.01 36.8865 103.01 38.9719C103.01 41.107 103.82 42.1746 105.44 42.1746Z" fill="#231F20"/>
<path d="M111.824 39.0123C111.824 35.5862 113.476 33.8732 116.78 33.8732C120.084 33.8732 121.735 35.5862 121.733 39.0123C121.733 42.4301 120.082 44.139 116.78 44.139C113.478 44.139 111.826 42.4301 111.824 39.0123ZM116.78 42.1746C118.401 42.1746 119.211 41.107 119.211 38.9719C119.211 36.8906 118.401 35.8489 116.78 35.8469C115.16 35.8448 114.349 36.8865 114.349 38.9719C114.349 41.107 115.16 42.1746 116.78 42.1746Z" fill="#231F20"/>
<path d="M132.502 43.5059C131.039 43.9086 129.53 44.1172 128.014 44.1266C124.773 44.1266 123.152 42.3556 123.152 38.8137C123.152 35.5428 124.733 33.9073 127.896 33.9073C128.612 33.9178 129.317 34.0839 129.965 34.3946V30.2051H132.49L132.502 43.5059ZM129.977 36.5669C129.387 36.1994 128.705 36.017 128.014 36.0424C126.442 36.0424 125.657 36.9414 125.659 38.7392C125.659 40.8743 126.476 41.9408 128.108 41.9387C128.742 41.9429 129.372 41.8487 129.977 41.6595V36.5669Z" fill="#231F20"/>
<path d="M139.409 44.1204V30.2051H145.508C148.291 30.2051 149.683 31.5116 149.683 34.1246C149.683 36.961 147.78 38.6772 143.973 39.273L143.612 36.9765C145.901 36.5628 147.044 35.638 147.042 34.2022C147.042 33.0477 146.477 32.4705 145.347 32.4705H141.934V44.1204H139.409Z" fill="#231F20"/>
<path d="M151.111 44.1204V33.9011H153.065L153.369 35.2045C154.244 34.3356 155.171 33.9011 156.149 33.9011V35.9834C155.67 35.9906 155.197 36.101 154.762 36.3074C154.327 36.5138 153.939 36.8116 153.624 37.1813V44.1204H151.111Z" fill="#231F20"/>
<path d="M157.115 39.0123C157.115 35.5862 158.766 33.8732 162.068 33.8732C165.37 33.8732 167.022 35.5862 167.024 39.0123C167.024 42.4301 165.372 44.139 162.068 44.139C158.764 44.139 157.113 42.4301 157.115 39.0123ZM162.068 42.1746C163.689 42.1746 164.499 41.107 164.499 38.9719C164.499 36.8906 163.689 35.8489 162.068 35.8469C160.448 35.8448 159.637 36.8865 159.637 38.9719C159.639 41.107 160.45 42.1746 162.068 42.1746Z" fill="#231F20"/>
<path d="M177.793 43.5059C176.33 43.9084 174.821 44.117 173.305 44.1266C170.064 44.1266 168.443 42.3556 168.443 38.8137C168.443 35.5428 170.026 33.9073 173.19 33.9073C173.906 33.9178 174.611 34.0839 175.259 34.3946V30.2051H177.784L177.793 43.5059ZM175.268 36.5669C174.678 36.1994 173.996 36.017 173.305 36.0424C171.735 36.0424 170.95 36.9414 170.95 38.7392C170.95 40.8743 171.767 41.9408 173.399 41.9387C174.033 41.9427 174.663 41.8485 175.268 41.6595V36.5669Z" fill="#231F20"/>
<path d="M189.18 33.9012V44.1204H187.208L186.904 42.817C185.861 43.6474 184.58 44.1053 183.257 44.1204C181.211 44.1204 180.189 42.8842 180.191 40.4119V33.895H182.717V40.3375C182.717 41.4671 183.197 42.0319 184.163 42.0319C185.085 41.9926 185.967 41.6398 186.67 41.0295V33.8918L189.18 33.9012Z" fill="#231F20"/>
<path d="M198.946 43.8287C198.102 44.0257 197.238 44.1236 196.372 44.1204C192.817 44.1204 191.038 42.3525 191.036 38.8168C191.036 35.5397 192.815 33.9011 196.372 33.9011C197.238 33.8995 198.101 33.9974 198.946 34.1929V36.241C198.165 36.0515 197.366 35.9537 196.564 35.9493C194.564 35.9493 193.563 36.9062 193.561 38.8199C193.561 40.9922 194.562 42.0784 196.564 42.0784C197.366 42.074 198.165 41.9762 198.946 41.7867V43.8287Z" fill="#231F20"/>
<path d="M200.472 32.2471H202.34L202.72 33.9011H205.242V35.9462H203.003V40.6447C203.003 41.6005 203.407 42.0753 204.218 42.0753H205.242V44.1204H202.994C201.316 44.1204 200.478 43.2018 200.478 41.3646L200.472 32.2471Z" fill="#231F20"/>
<path d="M206.95 43.6331V41.4918C208.178 41.9689 209.485 42.2006 210.8 42.1745C211.888 42.1745 212.429 41.8176 212.429 41.1038C212.429 40.3901 212.064 40.0829 211.335 40.0829H209.511C207.486 40.0829 206.473 39.0608 206.473 37.0168C206.473 34.8755 207.957 33.8048 210.924 33.8048C212.132 33.7944 213.334 33.9884 214.48 34.3789V36.5202C213.326 36.0581 212.097 35.8263 210.857 35.8375C209.492 35.8375 208.809 36.1944 208.809 36.9082C208.809 37.5909 209.204 37.9323 210.001 37.9323H211.623C213.852 37.9323 214.966 38.9532 214.966 40.9952C214.966 43.1365 213.548 44.2072 210.712 44.2072C209.435 44.2304 208.164 44.0364 206.95 43.6331Z" fill="#231F20"/>
<path d="M72.8281 34.047C72.8281 31.4836 74.4488 30.2019 77.69 30.2019C78.8503 30.1995 80.0051 30.3635 81.1207 30.6892V32.7343C80.0455 32.4143 78.9315 32.2503 77.8116 32.247C76.1747 32.247 75.3553 32.8305 75.3533 33.9973C75.3533 35.3607 76.0046 36.0424 77.3072 36.0424H80.5282V34.6583H81.8925L82.8619 36.0424H84.6061V38.0844H83.0624V39.3443C83.0624 42.5449 81.3223 44.1441 77.842 44.1421C74.5055 44.1421 72.8372 42.789 72.8372 40.0829C72.8372 38.6119 73.4186 37.5972 74.5815 37.0386C73.4146 36.4903 72.8302 35.4931 72.8281 34.047ZM77.3284 38.0813C76.0137 38.0813 75.3553 38.734 75.3533 40.0395C75.3533 41.3967 76.1828 42.0742 77.842 42.0721C79.6307 42.0721 80.5261 41.1577 80.5282 39.3288V38.0875L77.3284 38.0813Z" fill="#231F20"/>
<path d="M61.0261 1.27588H0.759766V50.7242H61.0261V1.27588Z" fill="#F7DB0C"/>
<path d="M46.8661 6.64467C46.8661 6.64467 45.9544 6.43674 44.3014 7.1474C42.6484 7.85806 40.6823 7.9853 39.7008 9.03112C38.7193 10.0769 39.4395 9.86902 37.7804 11.5138C36.1212 13.1585 36.4221 13.6054 37.2881 14.6947C38.1541 15.784 39.6644 15.6257 41.287 14.6947C42.9097 13.7637 47.2429 10.35 47.6683 9.10871C48.0937 7.86738 48.2699 6.53605 46.8661 6.64467Z" fill="#B11116" stroke="white" stroke-width="0.873101" stroke-miterlimit="10"/>
<path d="M20.2465 14.6451C21.2311 14.1185 22.3634 13.9551 23.4523 14.1827C25.2998 14.5613 26.0534 14.7692 24.7346 15.9019C23.4158 17.0346 20.8876 19.0052 20.0581 19.6259C19.2285 20.2466 18.4749 20.4203 17.381 19.6259C16.2871 18.8314 16.2871 18.0742 17.381 16.7336C18.4749 15.393 20.2465 14.6451 20.2465 14.6451Z" fill="#B11116" stroke="white" stroke-width="0.873101" stroke-miterlimit="10"/>
<path d="M11.6133 24.9883C11.6133 24.9883 22.9598 18.6234 38.9615 16.8235C52.8362 15.0204 51.4414 15.8925 52.4958 16.2369C53.5503 16.5814 54.6229 16.6962 55.5528 17.4503C56.4826 18.2044 57.85 19.2503 55.5528 19.4178C53.2555 19.5854 37.4178 20.9695 31.4225 21.8477C25.4272 22.726 14.026 25.4072 11.6133 24.9883Z" fill="#231F20" stroke="white" stroke-width="0.873101" stroke-miterlimit="10"/>
<path d="M19.8822 27.9211C19.8822 27.9211 17.5636 31.313 16.573 32.9453C15.5824 34.5777 11.5136 41.7805 10.9849 42.7022C10.4561 43.6239 8.72105 46.0538 6.9495 44.921C5.17794 43.7883 4.98954 40.986 6.2354 38.5561C7.48126 36.1262 10.757 32.1074 11.3252 30.3913C11.8934 28.6752 11.9329 27.8373 14.7164 27.5424C16.4469 27.3743 18.1928 27.5023 19.8822 27.9211Z" fill="#B11116" stroke="white" stroke-width="0.873101" stroke-miterlimit="10"/>
<path d="M36.5957 23.0612C36.5957 23.0612 32.8125 23.9922 31.1534 24.8208C29.4943 25.6494 28.5888 26.0342 27.2031 28.4206C25.8175 30.8071 21.4539 34.7048 20.0227 39.3443C18.5915 43.9838 18.6279 45.6658 20.1716 45.8333C20.96 45.9432 21.7594 45.9432 22.5478 45.8333C22.5478 45.8333 24.8208 42.19 25.4012 41.3522C25.9816 40.5143 26.5072 40.1108 27.2973 38.7143C28.0874 37.3178 29.4092 36.2037 30.336 33.9818C31.2628 31.7598 33.7302 29.1871 34.973 27.4648C36.2159 25.7424 38.5982 22.8098 36.5957 23.0612Z" fill="#B11116" stroke="white" stroke-width="0.873101" stroke-miterlimit="10"/>
</g>
<defs>
<clipPath id="clip0_343_92375">
<rect width="247" height="51" fill="white" transform="translate(0 0.5)"/>
</clipPath>
</defs>
</svg>
