<svg width="306" height="44" viewBox="0 0 306 44" fill="none" xmlns="http://www.w3.org/2000/svg">
<path d="M49 24.9914V5.29126H51.455V13.4049H57.9818V5.29126H60.4369V24.9914H57.9818V16.5784H51.455V24.9914H49Z" fill="#2E3192"/>
<path d="M67.0833 10.5298C70.0473 10.5298 71.5144 12.7753 71.5144 17.2662C71.5144 17.865 71.4844 18.4638 71.4246 19.0625H64.9576C64.9576 21.0984 65.9756 22.1164 67.9815 22.1164C68.9695 22.1164 69.9575 21.9667 70.9156 21.6972V24.6013C70.0473 24.8708 68.9995 25.0205 67.7719 25.0205C64.2391 25.0205 62.4727 22.5654 62.4727 17.6254C62.5325 12.895 64.0594 10.5298 67.0833 10.5298ZM64.9876 16.5177H69.1492V16.3979C69.1492 14.392 68.4606 13.404 67.1133 13.404C65.7959 13.404 65.0774 14.4519 64.9876 16.5177Z" fill="#2E3192"/>
<path d="M73.3711 24.9906V10.5298H75.2573L75.5567 12.386C76.395 11.1585 77.3231 10.5298 78.2512 10.5298V13.4639C77.3231 13.4639 76.5147 14.0327 75.7962 15.1704V24.9906H73.3711Z" fill="#2E3192"/>
<path d="M82.1152 5.29126V8.19539H79.6602V5.29126H82.1152ZM82.1152 10.5307V24.9914H79.6602V10.5307H82.1152Z" fill="#2E3192"/>
<path d="M84.2995 8.1958H86.1258L86.4851 10.5311H88.9401V13.4352H86.7545V20.0818C86.7545 21.429 87.1437 22.1176 87.9221 22.1176H88.9102V25.0218H86.7246C85.1078 25.0218 84.2695 23.7344 84.2695 21.1296V8.1958H84.2995Z" fill="#2E3192"/>
<path d="M90.1367 20.4996C90.1367 17.6254 91.5439 16.1883 94.3582 16.1883C95.0168 16.1883 95.6755 16.2782 96.3342 16.4578V15.38C96.3342 14.0926 95.7055 13.4339 94.448 13.4339C93.4001 13.4339 92.2025 13.6734 90.9151 14.1225V11.2184C92.2025 10.7693 93.4001 10.5298 94.448 10.5298C97.3521 10.5298 98.7892 12.1166 98.7892 15.2902V24.9906H97.3521L96.4839 23.7032C95.6456 24.5714 94.7175 24.9906 93.6995 24.9906C91.3343 24.9906 90.1367 23.4936 90.1367 20.4996ZM94.3582 18.6733C93.1905 18.6733 92.5918 19.2721 92.5918 20.4697C92.5918 21.7571 93.1007 22.3858 94.0887 22.3858C94.8971 22.3858 95.6755 21.9966 96.3641 21.2481V18.9428C95.7354 18.7631 95.0767 18.6733 94.3582 18.6733Z" fill="#2E3192"/>
<path d="M109.806 23.8828C109.806 28.1043 108.099 30.23 104.686 30.23C103.489 30.23 102.411 29.9905 101.483 29.5414V26.6372C102.441 27.0863 103.489 27.3258 104.686 27.3258C106.453 27.3258 107.351 26.2181 107.351 24.0325C106.632 24.4816 105.824 24.7211 104.986 24.7211C102.082 24.7211 100.645 22.3858 100.645 17.6853C100.645 12.9249 102.321 10.5298 105.704 10.5298C106.842 10.5298 108.189 10.7394 109.806 11.1286V23.8828ZM107.351 13.8231C106.962 13.6136 106.393 13.4938 105.644 13.4938C103.938 13.4938 103.1 14.871 103.1 17.6554C103.1 20.3499 103.818 21.6972 105.285 21.6972C106.004 21.6972 106.692 21.4577 107.351 20.9487V13.8231Z" fill="#2E3192"/>
<path d="M116.212 10.5298C119.176 10.5298 120.643 12.7753 120.643 17.2662C120.643 17.865 120.613 18.4638 120.553 19.0625H114.087C114.087 21.0984 115.104 22.1164 117.11 22.1164C118.098 22.1164 119.086 21.9667 120.044 21.6972V24.6013C119.176 24.8708 118.128 25.0205 116.901 25.0205C113.368 25.0205 111.602 22.5654 111.602 17.6254C111.661 12.895 113.188 10.5298 116.212 10.5298ZM114.116 16.5177H118.278V16.3979C118.278 14.392 117.589 13.404 116.242 13.404C114.925 13.404 114.236 14.4519 114.116 16.5177Z" fill="#2E3192"/>
<path d="M126.902 24.9914V5.29126H132.082C136.483 5.29126 138.669 8.40497 138.669 14.6024C138.669 21.5185 136.483 24.9914 132.082 24.9914H126.902ZM132.082 21.8178C134.836 21.8178 136.214 19.4227 136.214 14.6024C136.214 10.5007 134.836 8.46485 132.082 8.46485H129.357V21.8178H132.082Z" fill="#2E3192"/>
<path d="M140.043 20.4996C140.043 17.6254 141.45 16.1883 144.264 16.1883C144.923 16.1883 145.582 16.2782 146.24 16.4578V15.38C146.24 14.0926 145.612 13.4339 144.354 13.4339C143.306 13.4339 142.109 13.6734 140.821 14.1225V11.2184C142.109 10.7693 143.306 10.5298 144.354 10.5298C147.258 10.5298 148.695 12.1166 148.695 15.2902V24.9906H147.258L146.39 23.7032C145.552 24.5714 144.624 24.9906 143.606 24.9906C141.241 24.9906 140.043 23.4936 140.043 20.4996ZM144.294 18.6733C143.127 18.6733 142.528 19.2721 142.528 20.4697C142.528 21.7571 143.037 22.3858 144.025 22.3858C144.833 22.3858 145.612 21.9966 146.3 21.2481V18.9428C145.642 18.7631 144.983 18.6733 144.294 18.6733Z" fill="#2E3192"/>
<path d="M153.49 5.29126V8.19539H151.035V5.29126H153.49ZM153.49 10.5307V24.9914H151.035V10.5307H153.49Z" fill="#2E3192"/>
<path d="M155.824 24.9906V10.5298H157.71L158.01 12.386C158.848 11.1585 159.776 10.5298 160.704 10.5298V13.4639C159.776 13.4639 158.968 14.0327 158.249 15.1704V24.9906H155.824Z" fill="#2E3192"/>
<path d="M160.945 10.5298H163.55L166.005 20.9487L168.4 10.5298H170.945L166.903 25.4097C166.185 28.0444 165.047 29.9006 163.46 31.0084L162.263 28.5234C163.34 27.8049 164.149 26.6672 164.628 25.0804L160.945 10.5298Z" fill="#2E3192"/>
<path d="M176.062 10.7402C176.062 7.11757 177.649 5.29126 180.793 5.29126C181.931 5.29126 183.038 5.53078 184.116 5.97987V8.884C183.038 8.4349 181.961 8.19539 180.913 8.19539C179.326 8.19539 178.518 9.03369 178.518 10.6804C178.518 12.5965 179.146 13.5845 180.404 13.5845H183.547V11.6085H184.865L185.823 13.5546H187.499V16.4587H186.002V18.2551C186.002 22.7759 184.296 25.0513 180.913 25.0513C177.679 25.0513 176.062 23.1352 176.062 19.3029C176.062 17.2072 176.631 15.7701 177.769 14.9916C176.631 14.2132 176.062 12.7761 176.062 10.7402ZM180.434 16.4587C179.146 16.4587 178.518 17.3868 178.518 19.2131C178.518 21.1293 179.326 22.0873 180.943 22.0873C182.679 22.0873 183.547 20.7999 183.547 18.1952V16.4287H180.434V16.4587Z" fill="#2E3192"/>
<path d="M201.78 5.29126V8.43491H195.523V13.4049H201.481V16.6683H195.493V24.9914H193.098V5.29126H201.78Z" fill="#2E3192"/>
<path d="M203.16 17.7758C203.16 12.9256 204.777 10.5005 207.98 10.5005C211.184 10.5005 212.801 12.9256 212.801 17.7758C212.801 22.626 211.184 25.0211 207.98 25.0211C204.777 25.0211 203.19 22.596 203.16 17.7758ZM207.98 22.2368C209.567 22.2368 210.346 20.7398 210.346 17.7159C210.346 14.7818 209.567 13.2849 207.98 13.2849C206.394 13.2849 205.615 14.7519 205.615 17.7159C205.615 20.7398 206.424 22.2368 207.98 22.2368Z" fill="#2E3192"/>
<path d="M214.207 17.7758C214.207 12.9256 215.824 10.5005 219.027 10.5005C222.231 10.5005 223.848 12.9256 223.848 17.7758C223.848 22.626 222.231 25.0211 219.027 25.0211C215.824 25.0211 214.207 22.596 214.207 17.7758ZM219.027 22.2368C220.614 22.2368 221.393 20.7398 221.393 17.7159C221.393 14.7818 220.614 13.2849 219.027 13.2849C217.441 13.2849 216.662 14.7519 216.662 17.7159C216.662 20.7398 217.441 22.2368 219.027 22.2368Z" fill="#2E3192"/>
<path d="M234.297 24.1232C232.8 24.692 231.363 24.9914 229.926 24.9914C226.782 24.9914 225.195 22.4765 225.195 17.4766C225.195 12.836 226.722 10.5307 229.806 10.5307C230.465 10.5307 231.123 10.7702 231.812 11.2193V5.29126H234.267V24.1232H234.297ZM231.842 14.303C231.333 13.7941 230.704 13.5546 229.926 13.5546C228.399 13.5546 227.65 14.842 227.65 17.3569C227.65 20.3808 228.459 21.8777 230.046 21.8777C230.674 21.8777 231.303 21.758 231.872 21.4885V14.303H231.842Z" fill="#2E3192"/>
<path d="M241.031 24.9914V5.29126H246.959C249.654 5.29126 251.031 7.14751 251.031 10.8301C251.031 14.842 249.175 17.2671 245.492 18.1054L245.133 14.842C247.348 14.2432 248.456 12.9258 248.456 10.9199C248.456 9.27322 247.917 8.46485 246.81 8.46485H243.486V24.9615H241.031V24.9914Z" fill="#2E3192"/>
<path d="M252.41 24.9906V10.5298H254.296L254.596 12.386C255.434 11.1585 256.362 10.5298 257.29 10.5298V13.4639C256.362 13.4639 255.554 14.0327 254.835 15.1704V24.9906H252.41Z" fill="#2E3192"/>
<path d="M258.25 17.7758C258.25 12.9256 259.867 10.5005 263.07 10.5005C266.274 10.5005 267.891 12.9256 267.891 17.7758C267.891 22.626 266.274 25.0211 263.07 25.0211C259.867 25.0211 258.25 22.596 258.25 17.7758ZM263.07 22.2368C264.657 22.2368 265.435 20.7398 265.435 17.7159C265.435 14.7818 264.657 13.2849 263.07 13.2849C261.483 13.2849 260.705 14.7519 260.705 17.7159C260.705 20.7398 261.483 22.2368 263.07 22.2368Z" fill="#2E3192"/>
<path d="M278.365 24.1232C276.868 24.692 275.431 24.9914 273.993 24.9914C270.85 24.9914 269.293 22.4765 269.293 17.4766C269.293 12.836 270.82 10.5307 273.904 10.5307C274.562 10.5307 275.221 10.7702 275.91 11.2193V5.29126H278.365V24.1232ZM275.91 14.303C275.401 13.7941 274.772 13.5546 273.993 13.5546C272.467 13.5546 271.718 14.842 271.718 17.3569C271.718 20.3808 272.497 21.8777 274.113 21.8777C274.742 21.8777 275.371 21.758 275.94 21.4885V14.303H275.91Z" fill="#2E3192"/>
<path d="M289.413 10.5298V24.9906H287.497L287.197 23.1343C286.09 24.3618 284.892 24.9906 283.635 24.9906C281.659 24.9906 280.641 23.2541 280.641 19.7512V10.5298H283.096V19.6613C283.096 21.2481 283.575 22.0565 284.503 22.0565C285.311 22.0565 286.12 21.5775 286.928 20.6493V10.5597H289.413V10.5298Z" fill="#2E3192"/>
<path d="M298.937 24.5714C298.128 24.8409 297.29 24.9906 296.422 24.9906C292.949 24.9906 291.242 22.4756 291.242 17.4757C291.242 12.8351 292.979 10.5298 296.422 10.5298C297.29 10.5298 298.128 10.6795 298.937 10.9489V13.8531C298.128 13.5836 297.35 13.4339 296.631 13.4339C294.685 13.4339 293.697 14.7812 293.697 17.5057C293.697 20.5895 294.685 22.1164 296.631 22.1164C297.38 22.1164 298.158 21.9667 298.937 21.6972V24.5714Z" fill="#2E3192"/>
<path d="M300.401 8.1958H302.227L302.587 10.5311H305.042V13.4352H302.856V20.0818C302.856 21.429 303.245 22.1176 304.024 22.1176H305.012V25.0218H302.826C301.209 25.0218 300.371 23.7344 300.371 21.1296V8.1958H300.401Z" fill="#2E3192"/>
<path d="M36.1164 0.920767C36.1164 0.920767 35.3379 0.741137 33.8709 1.33993C32.4338 1.93872 30.7273 2.05847 29.859 2.95666C28.9908 3.85484 29.6195 3.6752 28.1824 5.05242C26.7453 6.45958 26.9848 6.84879 27.7632 7.77691C28.5117 8.70504 29.8291 8.55534 31.2362 7.77691C32.6434 6.99849 36.4158 4.06441 36.805 3.01653C37.1642 1.96865 37.3439 0.830949 36.1164 0.920767Z" fill="#B11116"/>
<path d="M12.9092 7.74732C12.9092 7.74732 14.1068 7.02877 15.6936 7.35811C17.3103 7.68744 17.969 7.86708 16.8014 8.82515C15.6637 9.78321 13.4482 11.4598 12.7296 11.9987C12.0111 12.5376 11.3524 12.6873 10.3943 11.9987C9.43627 11.3101 9.43627 10.6814 10.3943 9.54369C11.3524 8.37605 12.9092 7.74732 12.9092 7.74732Z" fill="#B11116"/>
<path d="M5.36719 16.5781C5.36719 16.5781 15.2772 11.1291 29.199 9.60216C41.2946 8.07525 40.067 8.82374 40.9952 9.0932C41.9233 9.39259 42.8215 9.48241 43.6598 10.1411C44.4681 10.7698 45.6657 11.668 43.6598 11.8177C41.6538 11.9674 27.8517 13.135 22.6123 13.8835C17.4029 14.632 7.49289 16.9373 5.36719 16.5781Z" fill="black"/>
<path d="M12.5812 19.0634C12.5812 19.0634 10.5454 21.9675 9.70706 23.3447C8.83881 24.7519 5.30595 30.8894 4.82692 31.6679C4.37783 32.4463 2.85091 34.5421 1.324 33.5541C-0.232851 32.596 -0.382548 30.2008 0.695273 28.1051C1.77309 26.0392 4.64728 22.5962 5.12632 21.1292C5.60535 19.6621 5.66523 18.9436 8.09032 18.7041C10.5154 18.4945 12.5812 19.0634 12.5812 19.0634Z" fill="#B11116"/>
<path d="M27.161 14.9329C27.161 14.9329 23.8677 15.7113 22.4306 16.4298C20.9935 17.1484 20.1851 17.4777 18.9876 19.5136C17.76 21.5495 13.9877 24.8728 12.7302 28.8547C11.4727 32.8367 11.5027 34.2438 12.85 34.3935C14.1972 34.5432 14.9158 34.3935 14.9158 34.3935C14.9158 34.3935 16.8918 31.2798 17.4008 30.5613C17.9097 29.8427 18.3588 29.4834 19.0474 28.3158C19.736 27.1482 20.8737 26.1602 21.712 24.274C22.5204 22.3878 24.6761 20.1723 25.7539 18.7052C26.8317 17.2083 28.8975 14.7233 27.161 14.9329Z" fill="#B11116"/>
<path d="M137.491 32.9546L137.73 33.1941C137.281 33.733 136.922 34.1522 136.593 34.3917C136.263 34.6312 136.024 34.7809 135.874 34.7809C135.754 34.7809 135.694 34.6611 135.694 34.4216C135.694 33.8528 136.084 32.9546 136.832 31.787C137.461 30.769 137.79 30.1702 137.79 30.0505C137.79 29.9606 137.76 29.9008 137.67 29.9008C137.521 29.9008 137.132 30.2301 136.533 30.9187C135.934 31.5774 135.185 32.5354 134.287 33.763C133.269 35.1402 132.581 36.0982 132.221 36.697C132.94 36.7569 133.509 36.8467 133.988 36.9665C134.437 37.0862 135.096 37.2659 135.964 37.5054C136.832 37.7449 137.461 37.8946 137.88 37.9245C137.371 38.4934 137.042 38.8826 136.832 39.0922C136.623 39.3018 136.503 39.4215 136.383 39.4515C136.233 39.5113 135.994 39.5113 135.664 39.4515C135.365 39.3916 134.856 39.2718 134.168 39.0922C133.479 38.9125 132.85 38.7628 132.251 38.6431C131.653 38.5233 131.114 38.4635 130.605 38.4635C130.335 38.4635 130.096 38.4934 129.886 38.5533C129.677 38.6131 129.407 38.7329 129.048 38.8826C128.689 39.0323 128.449 39.0922 128.299 39.0922C128.09 39.0922 128 39.0024 128 38.8227C128 38.7329 128.03 38.6131 128.12 38.4934C128.299 38.2239 128.479 37.9545 128.629 37.685C128.808 37.4156 128.958 37.2359 129.168 37.0862C129.347 36.9365 129.617 36.8168 129.976 36.7569C130.335 36.6671 130.784 36.6371 131.383 36.6371C132.251 35.2899 133.06 34.1222 133.808 33.0743C134.557 32.0265 135.245 31.1582 135.874 30.4696C136.503 29.7511 137.042 29.2121 137.491 28.8529C137.97 28.4936 138.329 28.314 138.599 28.314C138.778 28.314 138.928 28.3738 139.048 28.4637C139.167 28.5834 139.197 28.7331 139.197 28.9128C139.167 29.6014 138.599 30.9187 137.491 32.9546Z" fill="black"/>
<path d="M140.037 36.7876V36.9971C140.037 37.3265 140.127 37.566 140.277 37.7456C140.427 37.9253 140.636 38.0151 140.876 38.0151C141.145 38.0151 141.415 37.9552 141.684 37.8354C141.954 37.7157 142.253 37.5361 142.522 37.3564C142.792 37.1468 143.151 36.8774 143.54 36.548V37.0271C142.942 37.7456 142.373 38.3145 141.834 38.7037C141.295 39.0929 140.756 39.2726 140.217 39.2726C139.738 39.2726 139.349 39.0929 139.079 38.7336C138.81 38.3744 138.66 37.8654 138.66 37.2067C138.66 36.6379 138.78 36.1289 139.049 35.6798C139.319 35.2307 139.738 34.7517 140.337 34.2427C140.756 33.8834 141.145 33.6439 141.534 33.4643C141.924 33.2846 142.283 33.1948 142.612 33.1948C142.852 33.1948 143.061 33.2547 143.211 33.3745C143.361 33.4942 143.421 33.6739 143.421 33.8834C143.421 34.2128 143.301 34.5421 143.031 34.9014C142.792 35.2307 142.403 35.56 141.894 35.8894C141.415 36.1588 140.786 36.4882 140.037 36.7876ZM140.097 36.2487C140.576 36.069 140.995 35.8295 141.325 35.5601C141.654 35.2906 141.924 35.0211 142.073 34.7517C142.223 34.5122 142.313 34.3026 142.313 34.1828C142.313 34.0631 142.253 34.0032 142.133 34.0032C142.043 34.0032 141.894 34.0631 141.654 34.1828C141.445 34.3026 141.205 34.4523 140.995 34.6619C140.786 34.8714 140.576 35.081 140.397 35.3505C140.277 35.6499 140.157 35.9493 140.097 36.2487Z" fill="black"/>
<path d="M149.915 37.0261L147.25 39.2117C146.502 40.4991 145.813 41.4572 145.214 42.1158C144.616 42.7446 144.137 43.0739 143.837 43.0739C143.687 43.0739 143.598 42.9841 143.598 42.7745C143.598 42.3853 143.807 41.9063 144.196 41.3075C144.346 41.068 144.526 40.8284 144.735 40.6189C144.945 40.3793 145.125 40.1997 145.304 40.05C145.484 39.9003 145.723 39.6907 146.023 39.4512C146.322 39.2117 146.532 39.0321 146.622 38.9422C147.16 37.8644 147.55 37.0261 147.789 36.4273C147.28 36.9662 146.861 37.3854 146.472 37.7447C146.083 38.074 145.753 38.3435 145.454 38.5231C145.154 38.7027 144.855 38.7925 144.616 38.7925C144.346 38.7925 144.077 38.583 143.867 38.1339C143.628 37.6848 143.508 37.2357 143.508 36.7866C143.508 36.577 143.568 36.3375 143.658 36.098C143.747 35.8585 143.897 35.619 144.137 35.3495C144.346 35.08 144.616 34.8106 144.945 34.5411C145.274 34.2717 145.663 33.9723 146.083 33.7328C146.921 33.2238 147.55 32.9543 147.999 32.9543C148.328 32.9543 148.508 33.0741 148.508 33.3436C148.508 33.7028 148.148 34.0322 147.4 34.3615C146.951 34.5711 146.502 34.8106 146.053 35.1399C145.604 35.4693 145.244 35.7986 144.975 36.1878C144.705 36.5471 144.556 36.8764 144.556 37.1758C144.556 37.3255 144.586 37.4453 144.646 37.5051C144.705 37.595 144.795 37.6249 144.915 37.6249C145.095 37.6249 145.304 37.5351 145.544 37.3555C145.783 37.1758 146.142 36.8764 146.622 36.4573C146.831 36.2477 147.13 35.9483 147.46 35.4992C147.819 35.0501 148.118 34.7208 148.328 34.4813C148.568 34.2418 148.777 34.122 148.957 34.122C149.077 34.122 149.166 34.1519 149.226 34.2118C149.286 34.2717 149.316 34.3615 149.316 34.5112C149.316 34.7507 149.226 35.11 149.017 35.589C148.807 36.068 148.478 36.8165 147.969 37.8944L149.915 36.4872V37.0261Z" fill="black"/>
<path d="M150.785 35.0501C151.593 34.3016 152.372 33.7627 153.15 33.4034C153.899 33.0441 154.497 32.8645 154.917 32.8645C155.036 32.8645 155.126 32.9244 155.216 33.0142C155.306 33.104 155.396 33.2238 155.455 33.3435C155.515 33.4633 155.545 33.5531 155.545 33.613C155.545 33.7028 155.515 33.7926 155.425 33.8226C155.336 33.8525 155.216 33.9124 155.036 33.9723C155.066 34.0621 155.126 34.1818 155.186 34.3016C155.246 34.4214 155.276 34.5411 155.336 34.6309C155.366 34.7208 155.396 34.7806 155.396 34.8405C155.396 34.9603 155.276 35.1998 155.006 35.5591C154.737 35.9183 154.557 36.1578 154.467 36.3375C154.378 36.5171 154.318 36.6967 154.318 36.9363C154.318 37.3255 154.497 37.5351 154.857 37.5351C155.216 37.5351 155.815 37.1758 156.623 36.4872V36.9662C155.276 38.4632 154.318 39.2117 153.719 39.2117C153.509 39.2117 153.36 39.1518 153.27 39.0021C153.18 38.8524 153.15 38.6728 153.15 38.4033C153.15 37.9842 153.3 37.3554 153.599 36.577C152.821 37.4452 152.252 38.074 151.863 38.4332C151.473 38.7925 151.174 38.9722 150.935 38.9722C150.815 38.9722 150.665 38.8823 150.485 38.6728C150.306 38.4632 150.156 38.1937 150.006 37.8943C149.857 37.565 149.797 37.2357 149.797 36.8764C149.797 36.6369 149.827 36.4273 149.857 36.2477C149.917 36.068 150.006 35.9183 150.126 35.7387C150.276 35.589 150.485 35.3495 150.785 35.0501ZM154.617 34.1818C153.24 34.8106 152.252 35.3495 151.653 35.7986C151.054 36.2477 150.755 36.6968 150.755 37.1758C150.755 37.3554 150.785 37.4752 150.845 37.5949C150.905 37.7147 150.994 37.7446 151.084 37.7446C151.144 37.7446 151.234 37.7147 151.384 37.6249C151.953 37.2956 152.461 36.8764 152.911 36.3375C153.42 35.7986 153.988 35.08 154.617 34.1818Z" fill="black"/>
<path d="M161.354 36.5168V37.0557C160.785 37.6246 160.306 38.0437 159.947 38.3731C159.588 38.6724 159.258 38.912 158.929 39.0916C158.63 39.2712 158.3 39.3611 158.001 39.3611C157.701 39.3611 157.432 39.2413 157.192 39.0018C156.953 38.7623 156.743 38.4629 156.624 38.1036C156.474 37.7144 156.414 37.3252 156.414 36.906C156.414 36.5467 156.504 36.2174 156.654 35.9479C156.803 35.6785 157.133 35.2893 157.582 34.8402C158.121 34.3013 158.63 33.8821 159.109 33.6127C159.588 33.3133 159.947 33.1636 160.216 33.1636C160.396 33.1636 160.576 33.2235 160.695 33.3732C160.815 33.5229 160.905 33.6726 160.905 33.8821C160.905 34.0618 160.815 34.3013 160.636 34.6007C160.456 34.93 160.276 35.1995 160.037 35.409C159.827 35.6486 159.648 35.7683 159.528 35.7683C159.378 35.7683 159.318 35.7084 159.318 35.5587C159.318 35.5288 159.318 35.4689 159.318 35.439C159.318 35.409 159.318 35.3492 159.318 35.3192C159.318 35.2593 159.288 35.2294 159.258 35.1995C159.198 35.1995 159.168 35.1995 159.109 35.2593C158.57 35.6186 158.21 35.8881 158.001 36.0378C157.791 36.1875 157.642 36.3372 157.522 36.4868C157.402 36.6365 157.342 36.8162 157.342 36.9659C157.342 37.2952 157.432 37.5347 157.642 37.7443C157.851 37.9539 158.121 38.0437 158.45 38.0437C158.779 38.0437 159.198 37.924 159.677 37.6545C160.157 37.385 160.695 36.9958 161.354 36.5168Z" fill="black"/>
<path d="M165.004 36.8162L163.567 38.0138C162.878 38.6126 162.429 38.912 162.19 38.912C161.98 38.912 161.771 38.6724 161.531 38.1934C161.292 37.7144 161.172 37.2952 161.172 36.9359C161.172 36.6365 161.232 36.3671 161.322 36.1575C161.411 35.9479 161.561 35.6785 161.801 35.3492C162.13 34.9001 162.429 34.5109 162.729 34.1815C163.028 33.8522 163.298 33.6127 163.537 33.433C163.777 33.2534 163.926 33.1636 164.016 33.1636C164.166 33.1636 164.316 33.2534 164.435 33.4031C164.585 33.5528 164.645 33.7025 164.645 33.8821C164.645 33.9719 164.585 34.1516 164.435 34.3612C164.286 34.6007 164.046 34.8701 163.747 35.2294C163.417 35.5887 162.998 35.9779 162.429 36.4569L162.28 36.906C162.25 36.9958 162.22 37.0557 162.22 37.1455C162.22 37.2952 162.28 37.3551 162.429 37.3551C162.579 37.3551 162.938 37.1755 163.477 36.7862C164.016 36.397 164.615 35.8881 165.274 35.2593C165.513 35.0198 165.723 34.7803 165.902 34.6007C166.052 34.421 166.202 34.2414 166.351 34.0618C166.471 33.8821 166.591 33.7624 166.681 33.6725C166.771 33.5827 166.86 33.5528 166.92 33.5229C167.04 33.4929 167.16 33.5528 167.22 33.7025C167.309 33.8222 167.339 34.0318 167.339 34.2713C167.339 34.421 167.28 34.6007 167.16 34.8102C167.04 35.0198 166.8 35.409 166.441 35.918C166.082 36.427 165.723 36.9659 165.393 37.5347C165.034 38.1036 164.675 38.7323 164.316 39.4209C164.345 39.391 164.495 39.2413 164.795 38.9419C165.094 38.6425 165.423 38.3132 165.783 37.9838C166.142 37.6545 166.411 37.385 166.651 37.1755C166.89 36.9659 167.16 36.7264 167.489 36.4868V37.0258C166.771 37.8042 166.112 38.5227 165.543 39.2413C164.944 39.9299 164.495 40.4988 164.196 40.9179C163.866 41.3371 163.687 41.5766 163.627 41.6364C163.477 41.8161 163.357 41.9957 163.238 42.1753C163.118 42.325 163.028 42.4748 162.938 42.5646C162.848 42.6544 162.789 42.6843 162.759 42.6843C162.639 42.6843 162.549 42.5646 162.459 42.355C162.369 42.1454 162.34 41.9358 162.34 41.7562C162.34 41.6065 162.369 41.4568 162.429 41.337C162.789 40.4389 163.657 38.9419 165.004 36.8162Z" fill="black"/>
<path d="M177.221 36.4869V37.0258C176.862 37.3551 176.592 37.5647 176.383 37.6545C176.173 37.7743 175.874 37.8042 175.455 37.7743C174.766 38.6126 174.137 39.0018 173.628 39.0018C173.329 39.0018 173.06 38.912 172.82 38.7024C172.581 38.4928 172.371 38.2234 172.221 37.894C172.072 37.5647 172.012 37.1755 172.012 36.7563C172.012 36.427 172.131 36.0378 172.341 35.6186C172.581 35.1995 172.85 34.8103 173.209 34.451C173.569 34.0917 173.958 33.7923 174.377 33.5828C174.796 33.3732 175.155 33.2534 175.515 33.2534C175.754 33.2534 175.964 33.2834 176.113 33.3732C176.263 33.463 176.323 33.5528 176.323 33.7025C176.323 33.8223 176.263 33.942 176.143 34.0618C176.353 34.0917 176.473 34.1815 176.563 34.2714C176.652 34.3612 176.682 34.5408 176.682 34.8103C176.682 35.0797 176.622 35.3791 176.503 35.7683C176.383 36.1576 176.233 36.5168 176.024 36.8761L176.173 37.0258H176.293C176.383 37.0258 176.473 36.9959 176.563 36.9659C176.652 36.936 176.742 36.8761 176.802 36.8162C176.832 36.7563 176.982 36.6665 177.221 36.4869ZM175.575 34.3612C175.125 34.6306 174.766 34.8702 174.437 35.0797C174.107 35.2893 173.868 35.5288 173.628 35.7384C173.419 35.948 173.269 36.1875 173.179 36.3971C173.06 36.9959 172.97 37.3252 172.97 37.3551C172.97 37.7144 173.209 37.894 173.718 37.894C173.958 37.894 174.347 37.6845 174.886 37.2952C174.796 37.0557 174.736 36.8162 174.736 36.5767C174.736 36.2474 174.796 35.8881 174.946 35.5588C175.095 35.2294 175.305 34.8103 175.575 34.3612Z" fill="black"/>
<path d="M181.682 36.4878V37.0267C181.353 37.356 181.113 37.5656 180.964 37.7153C180.784 37.865 180.574 38.0147 180.275 38.1644C180.275 38.6434 180.245 39.0626 180.215 39.4218C180.155 39.7512 180.065 40.1104 179.886 40.4997C179.706 40.8889 179.467 41.2781 179.107 41.7272C178.778 42.1763 178.419 42.5056 178.089 42.7451C177.76 42.9846 177.491 43.1044 177.311 43.1044C177.101 43.1044 176.922 42.9248 176.742 42.5954C176.562 42.2661 176.473 41.817 176.473 41.308C176.473 40.829 176.562 40.32 176.712 39.7811C176.892 39.2422 177.131 38.5536 177.491 37.6853C177.221 37.356 177.101 36.9967 177.101 36.6674C177.101 36.398 177.161 36.1884 177.311 36.0387C177.461 35.889 177.64 35.7692 177.91 35.6495C178.089 35.3501 178.269 35.1105 178.449 34.901C178.628 34.6914 178.838 34.4219 179.137 34.0926C179.706 32.7154 180.335 31.3981 181.083 30.0807C181.293 29.7214 181.443 29.4819 181.532 29.3322C181.622 29.2125 181.712 29.1526 181.832 29.1526C181.922 29.1526 182.011 29.2125 182.071 29.3622C182.131 29.4819 182.191 29.6616 182.191 29.8711C182.191 30.1406 182.161 30.3801 182.101 30.5897C182.041 30.7993 181.952 31.0388 181.862 31.2484C181.772 31.4579 181.622 31.7274 181.443 32.0567C181.263 32.3561 181.143 32.5657 181.113 32.6256C180.844 33.1046 180.544 33.6136 180.215 34.1824C179.886 34.7513 179.616 35.2004 179.407 35.5297C179.197 35.859 179.077 36.0986 178.988 36.2782C179.287 36.5177 179.497 36.7572 179.676 36.9369C179.856 37.1165 179.976 37.3261 180.125 37.5955C180.305 37.5356 180.485 37.4458 180.634 37.356C180.784 37.2662 180.964 37.1165 181.173 36.9668C181.293 36.7872 181.473 36.6375 181.682 36.4878ZM179.287 38.6434L179.257 38.4638C179.107 38.4937 178.988 38.4937 178.898 38.4638C178.808 38.4638 178.688 38.4338 178.568 38.4039C178.449 38.374 178.359 38.344 178.299 38.3141C178.239 38.2841 178.149 38.2542 178.089 38.2243C177.67 39.2123 177.491 40.0506 177.491 40.7092C177.491 41.0386 177.55 41.308 177.64 41.5475C177.73 41.7871 177.85 41.9068 178 41.9068C178.149 41.9068 178.299 41.7871 178.509 41.5475C178.718 41.308 178.898 40.9488 179.047 40.4697C179.197 39.9308 179.287 39.332 179.287 38.6434Z" fill="black"/>
<path d="M191.471 33.6139L191.052 34.0929C191.531 34.1229 191.951 34.1828 192.34 34.2726C192.729 34.3325 193.058 34.4223 193.388 34.5121C193.717 34.6019 193.986 34.6917 194.226 34.7816C195.064 35.1408 195.483 35.6199 195.483 36.2486C195.483 36.6378 195.304 36.9971 194.944 37.3863C194.585 37.7456 194.136 38.0749 193.567 38.3743C192.998 38.6737 192.43 38.8833 191.831 39.0629C191.232 39.2126 190.693 39.3024 190.214 39.3024C189.406 39.3024 188.777 39.1527 188.328 38.8533C187.879 38.5539 187.639 38.1348 187.639 37.6258C187.639 37.2665 187.789 36.8474 188.058 36.3384C188.328 35.8594 188.777 35.2307 189.346 34.5121C188.897 34.4822 188.597 34.4223 188.418 34.3025C188.238 34.1828 188.148 34.0331 188.148 33.8534C188.148 33.7337 188.178 33.6439 188.238 33.584C188.298 33.5241 188.388 33.4642 188.507 33.4343C188.627 33.4044 188.867 33.3744 189.196 33.3145C189.525 33.2846 189.975 33.2247 190.483 33.1648C191.052 32.4463 191.591 31.9074 192.04 31.5481C192.489 31.1888 192.998 30.9792 193.537 30.9194C193.567 30.9194 193.627 30.9194 193.687 30.9194C193.747 30.9194 193.777 30.9194 193.777 30.9493C193.777 30.9792 193.717 31.0691 193.597 31.2188C193.477 31.3685 193.268 31.578 192.998 31.8774C192.729 32.1768 192.4 32.5361 192.04 32.9552C193.058 32.8355 193.867 32.6559 194.495 32.5062C195.124 32.3265 195.603 32.1169 195.932 31.8774C196.262 31.6379 196.412 31.3685 196.412 31.0691C196.412 30.7098 196.232 30.4403 195.903 30.2906C195.543 30.1409 195.034 30.0511 194.316 30.0511C193.927 30.0511 193.477 30.0811 192.968 30.1709C192.459 30.2607 192.01 30.3505 191.591 30.4403C191.172 30.5302 190.813 30.6499 190.483 30.7697C190.154 30.8894 190.004 30.9792 190.004 31.0092C190.004 31.0391 190.034 31.0391 190.064 31.0691C190.334 31.1589 190.454 31.2487 190.454 31.3086C190.454 31.3984 190.064 31.5481 189.256 31.7876C188.448 32.0271 187.909 32.1469 187.639 32.1469C187.43 32.1469 187.34 32.0571 187.34 31.8475C187.34 31.608 187.549 31.1888 187.998 30.59C188.418 29.9913 188.807 29.602 189.166 29.4224C189.286 29.3625 189.585 29.2727 190.034 29.1529C190.483 29.0332 190.963 28.9134 191.501 28.7937C192.04 28.6739 192.579 28.5841 193.148 28.4943C193.717 28.4045 194.196 28.3745 194.615 28.3745C195.633 28.3745 196.382 28.5541 196.891 28.9134C197.399 29.2727 197.639 29.7218 197.639 30.2607C197.639 30.62 197.519 30.9793 197.28 31.3385C197.04 31.6679 196.681 31.9972 196.202 32.2966C195.723 32.596 195.064 32.8654 194.286 33.1049C193.477 33.3145 192.549 33.4642 191.471 33.6139ZM190.633 34.6319C190.364 34.9612 190.094 35.2606 189.885 35.5001C189.675 35.7696 189.525 35.9492 189.406 36.1288C189.316 36.2785 189.256 36.4582 189.256 36.6079C189.256 36.8773 189.376 37.0869 189.645 37.2965C189.915 37.506 190.304 37.5959 190.783 37.5959C191.232 37.5959 191.741 37.5061 192.25 37.3564C192.759 37.2067 193.208 36.9671 193.567 36.7276C193.927 36.4582 194.106 36.1887 194.106 35.9193C194.106 35.6797 193.986 35.5001 193.717 35.3504C193.447 35.2007 193.058 35.081 192.519 34.9612C192.01 34.8414 191.382 34.7217 190.633 34.6319Z" fill="black"/>
<path d="M201.292 36.4869V37.0258C200.932 37.3551 200.663 37.5647 200.453 37.6545C200.244 37.7743 199.944 37.8042 199.525 37.7743C198.836 38.6126 198.208 39.0018 197.699 39.0018C197.399 39.0018 197.13 38.912 196.89 38.7024C196.651 38.4928 196.441 38.2234 196.292 37.894C196.142 37.5647 196.082 37.1755 196.082 36.7563C196.082 36.427 196.202 36.0378 196.411 35.6186C196.651 35.1995 196.92 34.8103 197.28 34.451C197.639 34.0917 198.028 33.7923 198.447 33.5828C198.866 33.3732 199.226 33.2534 199.585 33.2534C199.824 33.2534 200.034 33.2834 200.184 33.3732C200.333 33.463 200.393 33.5528 200.393 33.7025C200.393 33.8223 200.333 33.942 200.214 34.0618C200.423 34.0917 200.543 34.1815 200.633 34.2714C200.723 34.3612 200.753 34.5408 200.753 34.8103C200.753 35.0797 200.693 35.3791 200.573 35.7683C200.453 36.1576 200.304 36.5168 200.094 36.8761L200.244 37.0258H200.363C200.453 37.0258 200.543 36.9959 200.633 36.9659C200.723 36.936 200.812 36.8761 200.872 36.8162C200.902 36.7563 201.052 36.6665 201.292 36.4869ZM199.645 34.3612C199.196 34.6306 198.836 34.8702 198.507 35.0797C198.178 35.2893 197.938 35.5288 197.699 35.7384C197.489 35.948 197.339 36.1875 197.25 36.3971C197.13 36.9959 197.04 37.3252 197.04 37.3551C197.04 37.7144 197.28 37.894 197.789 37.894C198.028 37.894 198.417 37.6845 198.956 37.2952C198.866 37.0557 198.807 36.8162 198.807 36.5767C198.807 36.2474 198.866 35.8881 199.016 35.5588C199.166 35.2294 199.375 34.8103 199.645 34.3612Z" fill="black"/>
<path d="M207.669 37.0261L205.004 39.2117C204.256 40.4991 203.567 41.4572 202.968 42.1158C202.369 42.7446 201.89 43.0739 201.591 43.0739C201.441 43.0739 201.352 42.9841 201.352 42.7745C201.352 42.3853 201.561 41.9063 201.95 41.3075C202.1 41.068 202.28 40.8284 202.489 40.6189C202.699 40.3793 202.878 40.1997 203.058 40.05C203.238 39.9003 203.477 39.6907 203.777 39.4512C204.076 39.2117 204.286 39.0321 204.375 38.9422C204.914 37.8644 205.304 37.0261 205.543 36.4273C205.034 36.9662 204.615 37.3854 204.226 37.7447C203.837 38.074 203.507 38.3435 203.208 38.5231C202.908 38.7027 202.609 38.7925 202.369 38.7925C202.1 38.7925 201.831 38.583 201.621 38.1339C201.381 37.6848 201.262 37.2357 201.262 36.7866C201.262 36.577 201.322 36.3375 201.411 36.098C201.501 35.8585 201.651 35.619 201.89 35.3495C202.1 35.08 202.369 34.8106 202.699 34.5411C203.028 34.2717 203.417 33.9723 203.837 33.7328C204.675 33.2238 205.304 32.9543 205.753 32.9543C206.082 32.9543 206.262 33.0741 206.262 33.3436C206.262 33.7028 205.902 34.0322 205.154 34.3615C204.705 34.5711 204.256 34.8106 203.807 35.1399C203.357 35.4693 202.998 35.7986 202.729 36.1878C202.459 36.5471 202.31 36.8764 202.31 37.1758C202.31 37.3255 202.34 37.4453 202.399 37.5051C202.459 37.595 202.549 37.6249 202.669 37.6249C202.848 37.6249 203.058 37.5351 203.298 37.3555C203.537 37.1758 203.896 36.8764 204.375 36.4573C204.585 36.2477 204.884 35.9483 205.214 35.4992C205.573 35.0501 205.872 34.7208 206.082 34.4813C206.321 34.2418 206.531 34.122 206.711 34.122C206.83 34.122 206.92 34.1519 206.98 34.2118C207.04 34.2717 207.07 34.3615 207.07 34.5112C207.07 34.7507 206.98 35.11 206.771 35.589C206.561 36.068 206.232 36.8165 205.723 37.8944L207.669 36.4872V37.0261Z" fill="black"/>
<path d="M211.382 35.9483C210.603 36.9663 210.005 37.7147 209.615 38.1339C209.196 38.5531 208.867 38.7926 208.627 38.7926C208.418 38.7926 208.238 38.7028 208.058 38.5531C207.879 38.3734 207.759 38.1639 207.669 37.8645C207.579 37.5651 207.52 37.2657 207.52 36.9363C207.52 36.7267 207.549 36.5172 207.579 36.3675C207.609 36.1878 207.699 36.0082 207.819 35.7986C207.939 35.589 208.088 35.3795 208.268 35.14C208.448 34.9004 208.687 34.631 208.957 34.3316C209.106 34.152 209.256 34.0023 209.346 33.8526C209.466 33.7328 209.555 33.643 209.675 33.5831C209.765 33.5532 209.945 33.5232 210.184 33.5232C210.364 33.5232 210.513 33.5532 210.663 33.5831C210.813 33.643 210.903 33.6729 210.903 33.7328C210.903 33.8226 210.813 34.0023 210.663 34.2418C210.513 34.4813 210.244 34.8106 209.915 35.1699C209.555 35.5292 209.166 35.8884 208.687 36.2477C208.597 36.5771 208.537 36.8166 208.537 36.9663C208.537 37.2058 208.627 37.2956 208.807 37.2956C208.867 37.2956 208.987 37.2357 209.136 37.116C209.286 36.9962 209.525 36.7866 209.885 36.4872C210.244 36.1878 210.573 35.8884 210.843 35.6489C211.052 35.4693 211.292 35.1998 211.561 34.8406C211.831 34.4813 212.07 34.2118 212.22 34.0322C212.609 33.6131 212.879 33.3436 213.028 33.2238C213.178 33.1041 213.298 33.0442 213.448 33.0442C213.567 33.0442 213.657 33.0741 213.717 33.164C213.777 33.2538 213.777 33.4035 213.777 33.643C213.777 33.7627 213.777 33.8526 213.747 33.9124C213.717 33.9723 213.687 34.0621 213.627 34.1819C213.567 34.3017 213.418 34.4813 213.208 34.7807C212.998 35.0801 212.759 35.4094 212.489 35.8286C212.34 36.0382 212.22 36.2777 212.1 36.5172C211.981 36.7567 211.921 36.9663 211.921 37.086C211.921 37.3555 212.04 37.5052 212.25 37.5052C212.43 37.5052 212.639 37.4154 212.879 37.2657C213.118 37.116 213.477 36.8465 213.986 36.4573V36.9962C213.358 37.5651 212.909 37.9842 212.609 38.2537C212.31 38.5231 212.04 38.7028 211.831 38.8525C211.621 38.9722 211.412 39.062 211.202 39.062C210.753 39.062 210.543 38.7926 210.543 38.2537C210.543 38.0441 210.603 37.7746 210.753 37.4453C210.843 37.086 211.082 36.607 211.382 35.9483Z" fill="black"/>
<path d="M213.836 37.1166V36.6076C214.135 36.2783 214.345 35.9789 214.495 35.7394C214.315 35.6795 214.195 35.6196 214.135 35.5298C214.046 35.44 214.016 35.3202 214.016 35.1406C214.016 34.961 214.105 34.6915 214.255 34.4221C214.405 34.1227 214.614 33.8532 214.854 33.5837C215.093 33.3143 215.303 33.1646 215.483 33.0748C215.542 33.0448 215.632 33.0149 215.692 33.0149C215.812 33.0149 215.842 33.0748 215.842 33.1646C215.842 33.2544 215.752 33.434 215.602 33.7035C216.71 33.5239 217.399 33.4341 217.698 33.4341C217.818 33.4341 217.878 33.434 217.938 33.464C218.027 33.5239 218.117 33.6137 218.147 33.7933C218.207 33.9729 218.237 34.1526 218.237 34.3322C218.237 34.452 218.177 34.5717 218.087 34.6915C217.998 34.8113 217.818 35.0208 217.578 35.2604C217.309 35.5597 217.069 35.8891 216.86 36.2484C216.68 36.6076 216.56 36.8771 216.56 37.0567C216.56 37.2962 216.71 37.4459 217.039 37.4459C217.369 37.4459 217.938 37.1166 218.746 36.4579V36.9968C218.297 37.4759 217.938 37.8351 217.638 38.1046C217.339 38.3741 217.069 38.5836 216.83 38.7333C216.59 38.883 216.351 38.9729 216.171 38.9729C215.932 38.9729 215.752 38.883 215.602 38.6735C215.453 38.4639 215.363 38.1645 215.363 37.7753C215.363 37.5358 215.423 37.2962 215.542 36.9968C215.662 36.6974 215.842 36.3681 216.051 36.0388C216.291 35.6795 216.53 35.3502 216.83 35.0208C216.68 35.0508 216.501 35.0807 216.321 35.1107C216.141 35.1406 215.932 35.1705 215.722 35.2304C215.513 35.2604 215.363 35.2903 215.243 35.3202C214.944 35.9789 214.465 36.5777 213.836 37.1166Z" fill="black"/>
<path d="M219.644 35.0501C220.453 34.3016 221.231 33.7627 222.009 33.4034C222.758 33.0441 223.357 32.8645 223.776 32.8645C223.896 32.8645 223.985 32.9244 224.075 33.0142C224.165 33.104 224.255 33.2238 224.315 33.3435C224.375 33.4633 224.405 33.5531 224.405 33.613C224.405 33.7028 224.375 33.7926 224.285 33.8226C224.195 33.8525 224.075 33.9124 223.896 33.9723C223.926 34.0621 223.985 34.1818 224.045 34.3016C224.105 34.4214 224.135 34.5411 224.195 34.6309C224.225 34.7208 224.255 34.7806 224.255 34.8405C224.255 34.9603 224.135 35.1998 223.866 35.5591C223.596 35.9183 223.417 36.1578 223.327 36.3375C223.237 36.5171 223.177 36.6967 223.177 36.9363C223.177 37.3255 223.357 37.5351 223.716 37.5351C224.075 37.5351 224.674 37.1758 225.482 36.4872V36.9662C224.135 38.4632 223.177 39.2117 222.578 39.2117C222.369 39.2117 222.219 39.1518 222.129 39.0021C222.039 38.8524 222.009 38.6728 222.009 38.4033C222.009 37.9842 222.159 37.3554 222.459 36.577C221.68 37.4452 221.111 38.074 220.722 38.4332C220.333 38.7925 220.033 38.9722 219.794 38.9722C219.674 38.9722 219.524 38.8823 219.345 38.6728C219.165 38.4632 219.016 38.1937 218.866 37.8943C218.716 37.565 218.656 37.2357 218.656 36.8764C218.656 36.6369 218.686 36.4273 218.716 36.2477C218.776 36.068 218.866 35.9183 218.986 35.7387C219.135 35.589 219.345 35.3495 219.644 35.0501ZM223.476 34.1818C222.099 34.8106 221.111 35.3495 220.513 35.7986C219.914 36.2477 219.614 36.6968 219.614 37.1758C219.614 37.3554 219.644 37.4752 219.704 37.5949C219.764 37.7147 219.854 37.7446 219.944 37.7446C220.004 37.7446 220.093 37.7147 220.243 37.6249C220.812 37.2956 221.321 36.8764 221.77 36.3375C222.279 35.7986 222.848 35.08 223.476 34.1818Z" fill="black"/>
</svg>
