<svg width="287" height="222" viewBox="0 0 287 222" fill="none" xmlns="http://www.w3.org/2000/svg">
<g clip-path="url(#clip0_74_138255)">
<path d="M284.791 148.35C285.641 142.028 286.917 135.772 288.61 129.624C285.233 128.684 281.725 127.665 278.088 126.568C271.814 142.631 263.844 157.971 254.317 172.325C244.028 184.627 209.969 221.922 209.969 221.922C209.969 221.922 224.154 191.992 233.351 176.321C240.677 163.472 263.28 134.404 271.074 124.453L259.149 121.006C249.299 137.895 238.255 154.05 226.102 169.348C213.984 180.831 200.775 191.091 186.665 199.983C186.665 199.983 212.853 180.004 218.464 166.684C224.076 153.364 226.726 143.179 237.014 132.366C243.405 125.706 248.393 121.162 251.277 118.655L235.689 114.111C229.906 129.539 222.402 144.258 213.32 157.987C203.11 170.367 171.934 208.916 171.934 208.916C179.7 195.519 186.573 181.621 192.51 167.311C198.356 151.641 221.894 121.319 229.064 112.073C226.57 111.368 223.998 110.585 221.27 109.801C213.563 125.322 204.32 140.022 193.68 153.678C182.067 165.979 139.979 205.311 139.979 205.311C149.557 191.866 158.303 177.841 166.167 163.315C173.961 147.645 205.137 116.304 213.944 107.529L201.24 103.612C194.408 113.935 187.018 123.874 179.105 133.385C168.205 144.766 158.223 157.001 149.254 169.975C141.46 182.354 130.393 203.587 130.393 203.587C130.393 203.587 150.969 148.742 164.14 132.68C174.127 121.49 185.227 111.356 197.265 102.436C191.731 100.713 186.041 98.9888 180.352 97.1867C171.586 112.796 160.554 127.004 147.617 139.34C126.688 154.579 104.907 168.601 82.3819 181.336C95.9844 171.093 108.995 160.08 121.352 148.35C134.446 135.187 168.115 103.22 175.909 95.698L162.971 91.6238C156.97 100.086 136.784 128.057 122.287 139.026C105.062 152.033 68.9763 177.34 68.9763 177.34C68.9763 177.34 97.736 145.999 114.649 127.744C128.04 114.206 142.252 101.514 157.204 89.7433C152.917 88.3329 148.786 87.001 144.889 85.5907C130.598 98.1396 115.525 109.759 99.7625 120.379C81.8364 131.348 42.1651 149.369 42.1651 149.369C42.1651 149.369 72.9512 125.08 93.7611 111.055C111.375 99.3021 133.354 87.5496 139.901 83.7887C133.9 81.6733 128.288 79.5578 122.988 77.4423C112.398 87.9554 100.474 97.0178 87.526 104.395C66.3264 116.069 39.5152 127.352 39.5152 127.352C52.4262 116.181 66.1277 105.969 80.5114 96.7951C94.4626 88.4115 110.596 79.5578 118.234 75.4835C114.025 73.7598 110.05 72.0361 106.309 70.3123C94.9144 78.7397 82.8145 86.1584 70.1454 92.4856C52.9208 100.321 26.4213 109.488 26.4213 109.488C37.8675 103.474 48.8373 96.5847 59.2339 88.8815C72.3646 80.197 86.5653 73.2698 101.477 68.2751C97.0345 66.238 92.9817 64.201 89.1627 62.2422C79.8022 69.1388 69.6161 74.8247 58.8442 79.166C48.6341 81.83 17.1465 90.5268 17.1465 90.5268L54.8693 71.566C64.9334 67.0079 75.3624 63.3123 86.0451 60.5184C82.6937 58.7164 79.5761 56.9925 76.6923 55.2688C70.3013 59.7348 50.3488 73.2895 43.9577 73.838C36.1638 74.5432 7.17025 83.1618 7.17025 83.1618C7.17025 83.1618 29.6948 74.2298 43.9577 67.4916C54.1678 62.4771 66.794 56.4442 73.1071 53.4669C70.5351 51.8999 68.1969 50.4111 66.0146 49.0008C61.5721 50.7245 45.0489 57.3842 37.3329 60.8317C27.6668 64.4462 17.8046 67.507 7.79378 69.9989C7.79378 69.9989 21.667 63.3391 31.6433 59.0298C39.4372 55.504 56.8177 49.1574 62.8191 46.8852C61.1044 45.7099 59.4677 44.613 57.9869 43.5161C49.0097 48.1042 39.6785 51.9559 30.0845 55.0338C20.42 57.3843 -0.0781321 59.3432 -0.0781321 59.3432C-0.0781321 59.3432 15.5098 53.3884 29.6948 49.3925C40.5284 46.2584 51.362 42.9677 55.5707 41.5574L51.8296 38.58C45.1713 41.1528 38.1453 42.6342 31.0198 42.9676C19.4847 42.9676 3.58503 43.673 3.58503 43.673C11.4465 39.3092 20.1266 36.6407 29.0713 35.8379C36.1909 35.2839 43.3525 35.7321 50.3488 37.1697C47.8657 35.0802 45.5466 32.8013 43.4121 30.3532C38.0205 31.5423 32.4365 31.5423 27.0449 30.3532C20.1072 28.8819 13.2624 26.9982 6.54671 24.7119C11.4522 21.8821 17.2117 20.9357 22.7582 22.048C29.383 24.7119 33.0462 25.7305 33.0462 25.7305C28.2234 22.9824 23.858 19.4927 20.1082 15.3881C16.0045 9.94789 13.0836 3.7016 11.5349 -2.94605C18.9009 2.41872 25.7623 8.45076 32.033 15.0746C35.3064 19.6973 39.8269 24.7119 41.9313 27.6109C40.3543 24.3028 39.0509 20.8699 38.0343 17.3469C36.6099 12.2492 35.9274 6.97101 36.0079 1.67663C39.3593 5.83346 41.7069 10.7145 42.8666 15.9366C44.1915 23.7717 43.7239 23.7717 44.7371 29.6481C47.2312 31.1367 52.5311 35.8378 57.5971 38.4234C53.5432 32.4456 50.3915 25.8975 48.2444 18.9922C44.971 7.39621 40.4505 -12.3483 40.4505 -12.3483C45.7992 -2.37447 50.1087 8.12808 53.3104 18.9922C54.5597 25.5256 56.2524 31.9657 58.3765 38.2667C60.7147 39.5204 63.2867 40.9306 66.1705 42.3409C62.7396 36.3033 59.9446 29.9223 57.8309 23.3016C55.181 13.6644 56.1163 12.9592 53.1546 0.97151C50.6385 -8.1153 47.4336 -16.9951 43.568 -25.5896C43.568 -25.5896 57.8309 -12.6615 59.1559 -4.35631C60.4809 3.94891 65.3911 11.9406 66.9499 23.2232C67.9351 30.4997 69.4196 37.6991 71.3925 44.7698C73.9645 46.1801 76.7703 47.5903 79.654 49.079C76.278 39.6175 73.6715 29.8962 71.8601 20.0108C69.5219 5.67251 67.4955 -25.9813 67.4955 -25.9813C67.4955 -25.9813 76.5364 4.65399 77.9394 15.153C79.3423 24.0851 83.0834 45.6317 84.1745 52.1348C87.8377 53.9369 91.9684 55.8172 95.6316 57.6977C90.3469 46.3827 85.8671 34.7053 82.2261 22.7531C78.2511 7.78805 72.3277 -24.2576 72.3277 -24.2576C80.2926 -9.24475 86.817 6.49655 91.8126 22.7531C94.4625 35.446 98.7492 53.1533 100.386 59.8915C104.751 61.9286 109.271 63.9657 113.869 66.0029C106.565 52.8333 100.184 39.1669 94.7743 25.1036C91.1891 12.489 84.876 -22.8473 84.876 -22.8473C92.2986 -7.53016 98.9322 8.16082 104.751 24.1634C107.634 34.8191 116.441 60.9101 118.78 67.7266C122.988 69.5287 127.431 71.3309 131.873 73.0547C127.34 58.3232 121.927 43.8802 115.662 29.8047C109.349 18.1304 112.7 17.1119 107.868 4.18392C103.036 -8.74401 94.6184 -27.1565 94.6184 -27.1565C94.6184 -27.1565 110.206 -10.1543 113.168 -0.20371C116.13 9.74688 125.171 17.5036 128.756 29.413C133.061 44.451 135.855 59.885 137.095 75.4835C141.538 77.1289 145.981 78.7742 150.423 80.3413C147.228 72.5062 135.615 43.2812 132.731 32.3904C129.457 19.7759 122.443 -21.8287 122.443 -21.8287C122.443 -21.8287 129.769 0.814707 134.056 11.1571C138.342 21.4994 147.306 26.8273 149.644 42.4975C151.67 54.4069 154.164 73.8381 155.177 82.065C157.594 82.9269 160.01 83.7103 162.504 84.4154C164.998 85.1206 167.492 85.9826 170.298 86.7661C166.277 76.0304 163.072 65.0033 160.711 53.7801C157.048 35.5243 161.413 26.2006 156.736 11.2355C152.479 -0.712363 147.266 -12.2941 141.148 -23.3958C141.148 -23.3958 159.698 -5.45342 161.646 7.94463C163.595 21.3427 163.283 35.6028 167.258 43.908C171.678 50.9758 174.202 59.0738 174.584 67.4134C174.584 74.3866 173.961 83.0836 173.571 87.4712C179.65 89.3517 186.197 91.232 192.978 93.2692C185.587 77.6852 179.335 61.5807 174.273 45.0832C170.894 24.9516 168.889 4.611 168.271 -15.7958C168.271 -15.7958 176.065 14.8396 181.209 29.0995C186.353 43.3595 193.134 54.7204 194.147 67.0999C194.849 76.1886 196.096 88.4896 196.719 94.366L210.125 98.2053C206.773 88.9599 197.81 63.5741 193.758 50.4111C188.847 34.114 178.871 -12.8184 178.871 -12.8184C183.124 1.28658 188.332 15.0826 194.459 28.4728C202.31 40.4112 207.935 53.6859 211.06 67.6484C213.009 79.0093 214.645 93.6608 215.347 100.007C220.647 101.574 225.947 103.063 230.935 104.63C224.467 90.3312 219.251 75.4927 215.347 60.2834C211.06 39.9904 212.385 -8.58735 212.385 -8.58735C213.188 4.76818 215.81 17.9497 220.179 30.5882C226.414 45.8667 235.767 69.2154 236.39 82.5351C236.858 91.4671 237.014 101.183 237.014 106.589L247.068 109.409C243.813 96.8088 241.211 84.0464 239.274 71.1741C236.312 50.8811 230.311 -11.7214 230.311 -11.7214C230.311 -11.7214 244.34 31.6067 249.562 49.8626C254.784 68.1184 254.55 77.8339 253.225 111.055C257.356 112.23 261.487 113.405 265.462 114.502C261.632 104.659 259.932 94.1089 260.474 83.5537C260.416 58.0979 262.634 32.6884 267.099 7.6314C267.371 20.7346 268.359 33.8129 270.06 46.807C272.087 58.4813 272.087 105.257 272.087 116.539C275.594 117.558 279.023 118.498 282.375 119.438C278.121 109.925 276.171 99.5339 276.685 89.1165C277.387 67.805 301.548 38.815 301.548 38.815C301.548 38.815 282.998 68.4318 284.011 80.7329C285.025 93.0341 289.311 93.7392 288.922 102.75C288.575 108.763 287.899 114.753 286.895 120.692C290.792 121.789 292.507 122.181 296.17 123.199C294.327 111.707 295.619 99.9279 299.911 89.1165C302.971 80.6593 308.381 73.2626 315.499 67.805C312.55 75.7188 310.662 83.9922 309.887 92.4072C308.073 103.471 304.742 114.23 299.989 124.375C327.112 131.818 346.285 136.989 346.285 136.989L337.4 144.041C337.4 144.041 320.175 139.418 291.961 131.348C293.371 143.773 292.951 156.34 290.714 168.643C285.905 184.872 279.591 200.612 271.853 215.654C276.1 204.137 279.614 192.36 282.375 180.396C285.804 169.74 283.154 160.729 284.791 148.35Z" fill="#169E3B"/>
</g>
<defs>
<clipPath id="clip0_74_138255">
<rect width="249" height="348" fill="white" transform="translate(0 222) rotate(-90)"/>
</clipPath>
</defs>
</svg>
