<svg width="22" height="17" viewBox="0 0 22 17" fill="none" xmlns="http://www.w3.org/2000/svg">
<path d="M11.2171 4.16499C11.2171 4.16499 11.6843 -0.306899 8.8296 0.688425C8.8296 0.688425 6.98027 -0.316994 6.17303 0.379531C5.36578 1.07404 5.54191 1.93006 5.54191 1.93006C5.54191 1.93006 3.30853 2.7356 4.8056 4.01156C6.30267 5.28549 11.2171 9.14969 11.2171 9.14969V4.16499Z" fill="#FF0C63"/>
<path d="M15.7997 6.98754C15.7997 6.98754 20.8707 5.36434 18.5296 3.68662C18.5296 3.68662 18.8085 1.87363 17.6955 1.58291C16.5825 1.29219 15.7312 1.79692 15.7312 1.79692C15.7312 1.79692 13.8696 0.496735 13.1431 2.1684C12.4166 3.84006 10.3789 9.18412 10.3789 9.18412L15.7997 6.98754Z" fill="#FF0C63"/>
<path d="M14.5159 10.9485C14.5159 10.9485 18.1167 14.312 19.2126 11.9196C19.2126 11.9196 21.3701 11.5077 21.3163 10.5447C21.2625 9.58367 20.3941 9.09711 20.3941 9.09711C20.3941 9.09711 21.2283 7.20539 19.0756 7.22154C16.923 7.23769 10.1445 7.51024 10.1445 7.51024L14.5159 10.9485Z" fill="#FF0C63"/>
<path d="M8.88403 11.2174C8.88403 11.2174 6.8121 15.3683 9.89676 15.126C9.89676 15.126 11.296 16.5413 12.3185 16.079C13.341 15.6146 13.4853 14.7566 13.4853 14.7566C13.4853 14.7566 15.9095 14.5406 14.9433 12.9537C13.977 11.3668 10.6942 6.46289 10.6942 6.46289L8.88403 11.2174Z" fill="#FF0C63"/>
<path d="M6.6462 6.89668C6.6462 6.89668 1.47003 5.51574 2.00331 8.03534C2.00331 8.03534 0.401045 9.29716 1.04195 10.1027C1.68285 10.9083 2.72983 10.9607 2.72983 10.9607C2.72983 10.9607 3.17993 12.9393 5.02192 12.0207C6.86391 11.1021 12.5293 8.01717 12.5293 8.01717L6.6462 6.89668Z" fill="#FF0C63"/>
<path d="M9.82116 10.5833C9.7918 10.5833 9.76 10.5792 9.7282 10.5712C9.56186 10.5288 9.46646 10.3834 9.51783 10.2441L11.3843 5.17259C11.4356 5.03328 11.6118 4.95657 11.7806 4.99896C11.9469 5.04136 12.0423 5.18672 11.9909 5.32603L10.1245 10.3975C10.0829 10.5106 9.9557 10.5833 9.82116 10.5833Z" fill="#FFB6B6"/>
<path d="M10.7514 10.5837C10.585 10.5837 10.4456 10.4767 10.4358 10.3374L10.0591 5.03165C10.0493 4.88831 10.1814 4.76314 10.3575 4.75506C10.5312 4.74698 10.6829 4.85601 10.6927 5.00137L11.0694 10.3071C11.0792 10.4504 10.9471 10.5756 10.7709 10.5837C10.7636 10.5837 10.7587 10.5837 10.7514 10.5837Z" fill="#FFB6B6"/>
<path d="M12.533 10.2644C12.4327 10.2644 12.3348 10.226 12.2737 10.1533L8.62396 5.88332C8.52366 5.76622 8.55791 5.60269 8.69979 5.51991C8.84412 5.43714 9.03981 5.4654 9.14011 5.5825L12.7923 9.85048C12.8926 9.96758 12.8583 10.1311 12.7165 10.2139C12.6602 10.2482 12.5966 10.2644 12.533 10.2644Z" fill="#FFB6B6"/>
<path d="M13.3679 9.409C13.319 9.409 13.2701 9.39891 13.2236 9.38074L7.62181 7.01457C7.46525 6.94795 7.40409 6.79047 7.48482 6.66328C7.56554 6.53407 7.75635 6.48561 7.91046 6.55022L13.5123 8.91639C13.6688 8.98301 13.73 9.14049 13.6492 9.26768C13.593 9.35853 13.4829 9.409 13.3679 9.409Z" fill="#FFB6B6"/>
<path d="M7.76481 8.22778C7.59358 8.22778 7.4517 8.11472 7.44925 7.97138C7.4468 7.82602 7.58379 7.7069 7.75992 7.70488L13.3617 7.60596C13.533 7.61605 13.6822 7.717 13.6846 7.86236C13.6871 8.00772 13.5501 8.12684 13.3739 8.12886L7.77215 8.22778C7.76726 8.22778 7.76481 8.22778 7.76481 8.22778Z" fill="#FFB6B6"/>
<path d="M7.76651 9.65135C7.67845 9.65135 7.59039 9.62107 7.52679 9.5605C7.41182 9.45148 7.42649 9.28593 7.55859 9.19104L12.6907 5.53277C12.8228 5.43788 13.0234 5.44999 13.1384 5.55901C13.2533 5.66804 13.2387 5.83359 13.1066 5.92848L7.972 9.58877C7.91329 9.63117 7.8399 9.65135 7.76651 9.65135Z" fill="#FFB6B6"/>
<path d="M8.50304 10.4517C8.43699 10.4517 8.37339 10.4356 8.31713 10.4013C8.17525 10.3165 8.1459 10.1529 8.24864 10.0358L10.416 7.58689L13.2046 6.23624C13.3563 6.16356 13.5496 6.20394 13.6376 6.32911C13.7257 6.45428 13.6768 6.61377 13.5251 6.68646L10.8489 7.9826L8.75745 10.3447C8.69874 10.4154 8.60089 10.4517 8.50304 10.4517Z" fill="#FFB6B6"/>
<path d="M10.1295 8.22549C10.4279 8.41325 10.9049 8.3648 11.1373 8.12253C11.3697 7.88026 11.3159 7.48455 11.0272 7.29073C10.7361 7.0949 10.2591 7.13326 10.0169 7.37149C9.77477 7.60568 9.79923 8.01552 10.1295 8.22549Z" fill="#FF0C63"/>
</svg>
