<svg width="297" height="355" viewBox="0 0 297 355" fill="none" xmlns="http://www.w3.org/2000/svg">
<path d="M256.339 -1H258.859V123.504H256.339V-1Z" fill="#EFB93F"/>
<path d="M132.329 -1H134.85V123.504H132.329V-1Z" fill="#EFB93F"/>
<path d="M272.472 213.479H274.992V337.984H272.472V213.479Z" fill="#EFB93F"/>
<path d="M249.03 201.13H251.551V284.301H249.03V201.13Z" fill="#EFB93F"/>
<path d="M26.7177 -1H29.2383V50.4146H26.7177V-1Z" fill="#EFB93F"/>
<path d="M3.78107 64.5283H52.6797V111.91H3.78107V64.5283Z" fill="#D8A430"/>
<path d="M25.2065 146.439C25.7106 150.472 31.0037 150.472 31.5078 146.439C30.7516 142.407 25.7106 142.407 25.2065 146.439Z" fill="#F9D53D"/>
<path d="M26.2151 33.7805C27.4754 35.0406 29.2398 35.0406 30.5001 33.7805C31.7604 32.5203 31.7604 30.7561 30.5001 29.4959C29.2398 28.2357 27.4754 28.2357 26.2151 29.4959C24.9549 30.7561 24.9549 32.5203 26.2151 33.7805Z" fill="#EFB93F"/>
<path d="M25.2065 136.357C25.7106 140.39 31.0037 140.39 31.5078 136.357C30.7516 132.325 25.7106 132.325 25.2065 136.357Z" fill="#F9D53D"/>
<path d="M25.2065 156.017C25.7106 160.049 31.0037 160.049 31.5078 156.017C30.7516 151.984 25.7106 151.984 25.2065 156.017Z" fill="#F9D53D"/>
<path d="M28.2308 33.0244C68.0554 48.9025 53.9403 64.0244 53.9403 64.0244H28.2308H2.52118C2.52118 64.0244 -11.5939 48.9025 28.2308 33.0244Z" fill="#F9D53D"/>
<path d="M54.6973 112.667H2.01782C4.03426 125.269 15.1247 134.846 28.2315 134.846C41.5904 134.846 52.4288 125.269 54.6973 112.667Z" fill="#EFB93F"/>
<path d="M30.7505 85.4467V103.845H48.8984V85.4467C48.8984 81.6662 47.1341 77.8857 43.8573 75.1133C41.5889 73.3491 39.8245 71.8369 39.8245 71.8369C39.8245 71.8369 38.0601 73.0971 35.7916 75.1133C32.5149 77.8857 30.7505 81.4141 30.7505 85.4467Z" fill="#F9D53D"/>
<path d="M7.81491 85.4467V103.845H25.9629V85.4467C25.9629 81.6662 24.1985 77.8857 20.9218 75.1133C18.6533 73.3491 16.8889 71.8369 16.8889 71.8369C16.8889 71.8369 15.1245 73.0971 12.856 75.1133C9.5793 77.8857 7.81491 81.4141 7.81491 85.4467Z" fill="#F9D53D"/>
<path d="M0.000579834 110.146H56.7129V114.683H0.000579834V110.146Z" fill="#F9D53D"/>
<path d="M0.000579834 62.2598H56.7129V66.7964H0.000579834V62.2598Z" fill="#FFE150"/>
<path d="M273.983 315.3L267.934 326.39C267.682 326.642 267.682 326.894 267.43 326.894L255.079 329.414C254.323 329.666 254.071 330.422 254.575 330.926L263.145 340.252C263.397 340.504 263.397 340.756 263.397 341.008L261.884 353.609C261.884 354.365 262.389 354.87 263.145 354.618L274.487 349.325C274.739 349.325 274.991 349.325 275.243 349.325L286.586 354.618C287.342 354.87 287.846 354.365 287.846 353.609L286.334 341.008C286.334 340.756 286.334 340.504 286.586 340.252L295.156 330.926C295.66 330.422 295.408 329.666 294.652 329.414L282.301 326.894C282.049 326.894 281.797 326.642 281.797 326.39L275.747 315.3C275.243 314.544 274.235 314.544 273.983 315.3Z" fill="#F9D53D"/>
<path d="M181.983 205.667C210.465 219.277 243.989 207.935 257.095 180.464C269.446 154.757 259.364 124.261 234.915 109.139C242.476 109.895 250.29 111.911 257.6 115.439C291.375 131.57 305.49 171.895 289.358 205.667C273.227 239.439 232.898 253.553 199.123 237.423C179.463 228.098 166.356 210.204 162.071 190.293C167.364 196.846 174.169 201.887 181.983 205.667Z" fill="#F9D53D"/>
<path d="M252.559 296.146C252.054 300.179 246.761 300.179 246.257 296.146C247.013 292.114 252.054 292.114 252.559 296.146Z" fill="#F9D53D"/>
<path d="M246.257 286.065C246.761 282.033 252.054 282.033 252.559 286.065C252.054 290.098 247.013 290.098 246.257 286.065Z" fill="#F9D53D"/>
<path d="M252.559 305.724C252.054 309.756 246.761 309.756 246.257 305.724C247.013 301.691 252.054 301.691 252.559 305.724Z" fill="#F9D53D"/>
<path d="M131.896 147.332L139.021 159.644H124.82L117.695 147.332H131.896Z" fill="#F9D53D"/>
<path d="M140.584 134.339L147.855 146.845L140.535 159.498L133.264 146.943L140.584 134.339Z" fill="#F9D53D"/>
<path d="M125.064 133.512H139.412L132.141 146.115H117.793L125.064 133.512Z" fill="#F9D53D"/>
<path d="M132.385 195.021L144.342 177.356H120.478L132.385 195.021ZM139.901 179.741L132.385 190.836L124.821 179.741H139.901Z" fill="#F9D53D"/>
<path d="M119.014 123H146.49L160.252 146.748L146.49 170.495H119.014L105.252 146.748L119.014 123ZM120.381 168.111H145.123L157.519 146.748L145.123 125.384H120.381L108.034 146.748L120.381 168.111Z" fill="#F9D53D"/>
<path d="M131.896 147.332L139.021 159.644H124.82L117.695 147.332H131.896Z" fill="#F9D53D"/>
<path d="M140.584 134.339L147.855 146.845L140.535 159.498L133.264 146.943L140.584 134.339Z" fill="#F9D53D"/>
<path d="M125.064 133.512H139.412L132.141 146.115H117.793L125.064 133.512Z" fill="#F9D53D"/>
</svg>
