<svg width="32" height="33" viewBox="0 0 32 33" fill="none" xmlns="http://www.w3.org/2000/svg">
<g clip-path="url(#clip0_179_110076)">
<path d="M16 0.875977C7.16352 0.875977 0 8.0395 0 16.876C0 24.3793 5.16608 30.6757 12.135 32.4049V21.7656H8.83584V16.876H12.135V14.7691C12.135 9.32334 14.5997 6.79918 19.9462 6.79918C20.96 6.79918 22.7091 6.99822 23.4246 7.19662V11.6286C23.047 11.5889 22.391 11.5691 21.5763 11.5691C18.953 11.5691 17.9392 12.563 17.9392 15.1467V16.876H23.1654L22.2675 21.7656H17.9392V32.7589C25.8618 31.8021 32.0006 25.0565 32.0006 16.876C32 8.0395 24.8365 0.875977 16 0.875977Z" fill="#484848"/>
</g>
<defs>
<clipPath id="clip0_179_110076">
<rect width="32" height="32" fill="white" transform="translate(0 0.875977)"/>
</clipPath>
</defs>
</svg>
