<svg width="32" height="33" viewBox="0 0 32 33" fill="none" xmlns="http://www.w3.org/2000/svg">
<g clip-path="url(#clip0_228_110348)">
<path d="M16 3.75723C20.275 3.75723 20.7813 3.77598 22.4625 3.85098C24.025 3.91973 24.8688 4.18223 25.4313 4.40098C26.175 4.68848 26.7125 5.03848 27.2688 5.59473C27.8313 6.15723 28.175 6.68848 28.4625 7.43223C28.6813 7.99473 28.9438 8.84473 29.0125 10.401C29.0875 12.0885 29.1063 12.5947 29.1063 16.8635C29.1063 21.1385 29.0875 21.6447 29.0125 23.326C28.9438 24.8885 28.6813 25.7322 28.4625 26.2947C28.175 27.0385 27.825 27.576 27.2688 28.1322C26.7063 28.6947 26.175 29.0385 25.4313 29.326C24.8688 29.5447 24.0188 29.8072 22.4625 29.876C20.775 29.951 20.2688 29.9697 16 29.9697C11.725 29.9697 11.2188 29.951 9.5375 29.876C7.975 29.8072 7.13125 29.5447 6.56875 29.326C5.825 29.0385 5.2875 28.6885 4.73125 28.1322C4.16875 27.5697 3.825 27.0385 3.5375 26.2947C3.31875 25.7322 3.05625 24.8822 2.9875 23.326C2.9125 21.6385 2.89375 21.1322 2.89375 16.8635C2.89375 12.5885 2.9125 12.0822 2.9875 10.401C3.05625 8.83848 3.31875 7.99473 3.5375 7.43223C3.825 6.68848 4.175 6.15098 4.73125 5.59473C5.29375 5.03223 5.825 4.68848 6.56875 4.40098C7.13125 4.18223 7.98125 3.91973 9.5375 3.85098C11.2188 3.77598 11.725 3.75723 16 3.75723ZM16 0.875977C11.6563 0.875977 11.1125 0.894727 9.40625 0.969727C7.70625 1.04473 6.5375 1.31973 5.525 1.71348C4.46875 2.12598 3.575 2.66973 2.6875 3.56348C1.79375 4.45098 1.25 5.34473 0.8375 6.39473C0.44375 7.41348 0.16875 8.57598 0.09375 10.276C0.01875 11.9885 0 12.5322 0 16.876C0 21.2197 0.01875 21.7635 0.09375 23.4697C0.16875 25.1697 0.44375 26.3385 0.8375 27.351C1.25 28.4072 1.79375 29.301 2.6875 30.1885C3.575 31.076 4.46875 31.626 5.51875 32.0322C6.5375 32.426 7.7 32.701 9.4 32.776C11.1063 32.851 11.65 32.8697 15.9938 32.8697C20.3375 32.8697 20.8813 32.851 22.5875 32.776C24.2875 32.701 25.4563 32.426 26.4688 32.0322C27.5188 31.626 28.4125 31.076 29.3 30.1885C30.1875 29.301 30.7375 28.4072 31.1438 27.3572C31.5375 26.3385 31.8125 25.176 31.8875 23.476C31.9625 21.7697 31.9813 21.226 31.9813 16.8822C31.9813 12.5385 31.9625 11.9947 31.8875 10.2885C31.8125 8.58848 31.5375 7.41973 31.1438 6.40723C30.75 5.34473 30.2063 4.45098 29.3125 3.56348C28.425 2.67598 27.5313 2.12598 26.4813 1.71973C25.4625 1.32598 24.3 1.05098 22.6 0.975977C20.8875 0.894727 20.3438 0.875977 16 0.875977Z" fill="#484848"/>
<path d="M16 8.65723C11.4625 8.65723 7.78125 12.3385 7.78125 16.876C7.78125 21.4135 11.4625 25.0947 16 25.0947C20.5375 25.0947 24.2188 21.4135 24.2188 16.876C24.2188 12.3385 20.5375 8.65723 16 8.65723ZM16 22.2072C13.0563 22.2072 10.6687 19.8197 10.6687 16.876C10.6687 13.9322 13.0563 11.5447 16 11.5447C18.9438 11.5447 21.3312 13.9322 21.3312 16.876C21.3312 19.8197 18.9438 22.2072 16 22.2072Z" fill="#484848"/>
<path d="M26.4625 8.33184C26.4625 9.39434 25.6 10.2506 24.5438 10.2506C23.4813 10.2506 22.625 9.38809 22.625 8.33184C22.625 7.26934 23.4875 6.41309 24.5438 6.41309C25.6 6.41309 26.4625 7.27559 26.4625 8.33184Z" fill="#484848"/>
</g>
<defs>
<clipPath id="clip0_228_110348">
<rect width="32" height="32" fill="white" transform="translate(0 0.875977)"/>
</clipPath>
</defs>
</svg>
