<svg width="32" height="33" viewBox="0 0 32 33" fill="none" xmlns="http://www.w3.org/2000/svg">
<g clip-path="url(#clip0_228_110350)">
<path d="M29.6313 0.875977H2.3625C1.05625 0.875977 0 1.90723 0 3.18223V30.5635C0 31.8385 1.05625 32.876 2.3625 32.876H29.6313C30.9375 32.876 32 31.8385 32 30.5697V3.18223C32 1.90723 30.9375 0.875977 29.6313 0.875977ZM9.49375 28.1447H4.74375V12.8697H9.49375V28.1447ZM7.11875 10.7885C5.59375 10.7885 4.3625 9.55723 4.3625 8.03848C4.3625 6.51973 5.59375 5.28848 7.11875 5.28848C8.6375 5.28848 9.86875 6.51973 9.86875 8.03848C9.86875 9.55098 8.6375 10.7885 7.11875 10.7885ZM27.2687 28.1447H22.525V20.7197C22.525 18.951 22.4937 16.6697 20.0562 16.6697C17.5875 16.6697 17.2125 18.601 17.2125 20.5947V28.1447H12.475V12.8697H17.025V14.9572H17.0875C17.7188 13.7572 19.2688 12.4885 21.575 12.4885C26.3813 12.4885 27.2687 15.651 27.2687 19.7635V28.1447Z" fill="#484848"/>
</g>
<defs>
<clipPath id="clip0_228_110350">
<rect width="32" height="32" fill="white" transform="translate(0 0.875977)"/>
</clipPath>
</defs>
</svg>
