<svg width="20" height="25" viewBox="0 0 20 25" fill="none" xmlns="http://www.w3.org/2000/svg">
<path fill-rule="evenodd" clip-rule="evenodd" d="M9.56533 24.3819L9.56925 24.3837C9.84522 24.5038 9.99922 24.4758 9.99922 24.4758C9.99922 24.4758 10.1532 24.5038 10.4303 24.3832L10.4331 24.3819L10.4411 24.3783L10.4665 24.3666C10.4876 24.3568 10.5167 24.3431 10.5535 24.3254C10.6269 24.29 10.7308 24.2386 10.8607 24.1708C11.1203 24.0354 11.4849 23.8344 11.9195 23.565C12.7869 23.0274 13.9435 22.2114 15.1029 21.094C17.4223 18.8584 19.7992 15.3653 19.7992 10.4758C19.7992 5.06339 15.4116 0.675781 9.99922 0.675781C4.58683 0.675781 0.199219 5.06339 0.199219 10.4758C0.199219 15.3653 2.57618 18.8584 4.89554 21.094C6.05491 22.2114 7.21149 23.0274 8.0789 23.565C8.51352 23.8344 8.87813 24.0354 9.13776 24.1708C9.26765 24.2386 9.37149 24.29 9.44495 24.3254C9.48169 24.3431 9.51085 24.3568 9.53189 24.3666L9.5573 24.3783L9.56533 24.3819ZM9.99922 13.6258C11.7389 13.6258 13.1492 12.2155 13.1492 10.4758C13.1492 8.73608 11.7389 7.32578 9.99922 7.32578C8.25952 7.32578 6.84922 8.73608 6.84922 10.4758C6.84922 12.2155 8.25952 13.6258 9.99922 13.6258Z" fill="#484848"/>
</svg>
