<svg width="118" height="118" viewBox="0 0 118 118" fill="none" xmlns="http://www.w3.org/2000/svg">
<g clip-path="url(#clip0_228_110442)">
<path d="M88.4998 58.9998L44.2498 88.4997V29.5L88.4998 58.9998ZM58.9998 0.0109863C26.4586 0.0109863 0.0107422 26.4589 0.0107422 59C0.0107422 91.541 26.4586 117.989 58.9998 117.989C91.5409 117.989 117.989 91.541 117.989 59C117.989 26.4589 91.5409 0.0109863 58.9998 0.0109863ZM58.9998 7.36404C87.5551 7.36404 110.636 30.4447 110.636 59C110.636 87.5552 87.5551 110.636 58.9998 110.636C30.4444 110.636 7.3638 87.5552 7.3638 59C7.3638 30.4447 30.4444 7.36404 58.9998 7.36404Z" fill="white"/>
</g>
<defs>
<clipPath id="clip0_228_110442">
<rect width="118" height="118" fill="white"/>
</clipPath>
</defs>
</svg>
