<svg width="33" height="32" viewBox="0 0 33 32" fill="none" xmlns="http://www.w3.org/2000/svg">
<path d="M3.5 4H5.34758C6.02716 4 6.62183 4.45687 6.79694 5.1135L7.30786 7.02946M10.5 19C8.29086 19 6.5 20.7909 6.5 23H27.5M10.5 19H25.4577C26.9525 15.9325 28.2569 12.7551 29.3556 9.48334C23.0067 7.86194 16.354 7 9.5 7C8.76694 7 8.03619 7.00986 7.30786 7.02946M10.5 19L7.30786 7.02946M8.5 27C8.5 27.5523 8.05228 28 7.5 28C6.94772 28 6.5 27.5523 6.5 27C6.5 26.4477 6.94772 26 7.5 26C8.05228 26 8.5 26.4477 8.5 27ZM25.5 27C25.5 27.5523 25.0523 28 24.5 28C23.9477 28 23.5 27.5523 23.5 27C23.5 26.4477 23.9477 26 24.5 26C25.0523 26 25.5 26.4477 25.5 27Z" stroke="white" stroke-width="1.5" stroke-linecap="round" stroke-linejoin="round"/>
</svg>
