<svg width="32" height="33" viewBox="0 0 32 33" fill="none" xmlns="http://www.w3.org/2000/svg">
<path d="M0 32.876L2.24933 24.6586C0.861331 22.2533 0.132 19.5266 0.133333 16.7306C0.137333 7.98931 7.25065 0.875977 15.9906 0.875977C20.232 0.87731 24.2133 2.52931 27.2079 5.52664C30.2013 8.52398 31.8493 12.508 31.8479 16.7453C31.8439 25.488 24.7306 32.6013 15.9906 32.6013C13.3373 32.6 10.7226 31.9346 8.40665 30.6706L0 32.876ZM8.79598 27.8C11.0306 29.1266 13.164 29.9213 15.9853 29.9226C23.2493 29.9226 29.1666 24.0106 29.1706 16.7426C29.1733 9.45998 23.2839 3.55598 15.996 3.55331C8.72665 3.55331 2.81333 9.46531 2.81066 16.732C2.80933 19.6986 3.67866 21.92 5.13866 24.244L3.80666 29.108L8.79598 27.8ZM23.9786 20.5146C23.8799 20.3493 23.6159 20.2506 23.2186 20.052C22.8226 19.8533 20.8746 18.8946 20.5106 18.7626C20.148 18.6306 19.884 18.564 19.6186 18.9613C19.3546 19.3573 18.5946 20.2506 18.364 20.5146C18.1333 20.7786 17.9013 20.812 17.5053 20.6133C17.1093 20.4146 15.832 19.9973 14.3186 18.6466C13.1413 17.596 12.3453 16.2986 12.1146 15.9013C11.884 15.5053 12.0906 15.2906 12.288 15.0933C12.4666 14.916 12.684 14.6306 12.8826 14.3986C13.084 14.1693 13.1493 14.004 13.2826 13.7386C13.4146 13.4746 13.3493 13.2426 13.2493 13.044C13.1493 12.8466 12.3573 10.896 12.028 10.1026C11.7053 9.33064 11.3786 9.43464 11.136 9.42264L10.376 9.40931C10.112 9.40931 9.68264 9.50798 9.31998 9.90531C8.95731 10.3026 7.93332 11.26 7.93332 13.2106C7.93332 15.1613 9.35331 17.0453 9.55064 17.3093C9.74931 17.5733 12.344 21.576 16.3186 23.292C17.264 23.7 18.0026 23.944 18.5773 24.1266C19.5266 24.428 20.3906 24.3853 21.0733 24.284C21.8346 24.1706 23.4173 23.3253 23.7479 22.4C24.0786 21.4733 24.0786 20.68 23.9786 20.5146Z" fill="#484848"/>
</svg>
